%TF.GenerationSoftware,KiCad,Pcbnew,8.0.3*%
%TF.CreationDate,2024-07-09T17:09:24+02:00*%
%TF.ProjectId,eirini2,65697269-6e69-4322-9e6b-696361645f70,1.0*%
%TF.SameCoordinates,Original*%
%TF.FileFunction,Legend,Bot*%
%TF.FilePolarity,Positive*%
%FSLAX46Y46*%
G04 Gerber Fmt 4.6, Leading zero omitted, Abs format (unit mm)*
G04 Created by KiCad (PCBNEW 8.0.3) date 2024-07-09 17:09:24*
%MOMM*%
%LPD*%
G01*
G04 APERTURE LIST*
%ADD10C,0.300000*%
%ADD11C,0.150000*%
%ADD12C,1.230000*%
%ADD13C,1.524000*%
%ADD14C,2.109000*%
%ADD15C,1.325926*%
%ADD16C,1.800000*%
G04 APERTURE END LIST*
D10*
X92155489Y-75215114D02*
X91655489Y-75215114D01*
X91441203Y-76000828D02*
X92155489Y-76000828D01*
X92155489Y-76000828D02*
X92155489Y-74500828D01*
X92155489Y-74500828D02*
X91441203Y-74500828D01*
X90798346Y-75000828D02*
X90798346Y-75786542D01*
X90798346Y-75786542D02*
X90726917Y-75929400D01*
X90726917Y-75929400D02*
X90584060Y-76000828D01*
X90012632Y-76500828D02*
X90012632Y-75286542D01*
X90012632Y-75286542D02*
X89941203Y-75143685D01*
X89941203Y-75143685D02*
X89869775Y-75072257D01*
X89869775Y-75072257D02*
X89726917Y-75000828D01*
X89726917Y-75000828D02*
X89512632Y-75000828D01*
X89512632Y-75000828D02*
X89369775Y-75072257D01*
X89369775Y-75072257D02*
X89298346Y-75143685D01*
X89298346Y-75143685D02*
X89226917Y-75286542D01*
X89226917Y-75286542D02*
X89226917Y-75715114D01*
X89226917Y-75715114D02*
X89298346Y-75857971D01*
X89298346Y-75857971D02*
X89369775Y-75929400D01*
X89369775Y-75929400D02*
X89512632Y-76000828D01*
X89512632Y-76000828D02*
X89726917Y-76000828D01*
X89726917Y-76000828D02*
X89869775Y-75929400D01*
X89869775Y-75929400D02*
X90012632Y-75786542D01*
X88584061Y-75000828D02*
X88584061Y-76000828D01*
X88584061Y-75143685D02*
X88512632Y-75072257D01*
X88512632Y-75072257D02*
X88369775Y-75000828D01*
X88369775Y-75000828D02*
X88155489Y-75000828D01*
X88155489Y-75000828D02*
X88012632Y-75072257D01*
X88012632Y-75072257D02*
X87941204Y-75215114D01*
X87941204Y-75215114D02*
X87941204Y-76500828D01*
X88155489Y-74429400D02*
X88369775Y-74643685D01*
X87369775Y-75000828D02*
X87012632Y-76000828D01*
X87012632Y-76000828D02*
X86655489Y-75215114D01*
X86655489Y-75215114D02*
X86655489Y-75143685D01*
X86655489Y-75143685D02*
X86726918Y-75000828D01*
X86012632Y-75000828D02*
X86012632Y-76000828D01*
X86012632Y-75143685D02*
X85941203Y-75072257D01*
X85941203Y-75072257D02*
X85798346Y-75000828D01*
X85798346Y-75000828D02*
X85584060Y-75000828D01*
X85584060Y-75000828D02*
X85441203Y-75072257D01*
X85441203Y-75072257D02*
X85369775Y-75215114D01*
X85369775Y-75215114D02*
X85369775Y-76500828D01*
X84655489Y-75429400D02*
X83512632Y-75429400D01*
X82298346Y-75215114D02*
X82084060Y-75286542D01*
X82084060Y-75286542D02*
X82012631Y-75357971D01*
X82012631Y-75357971D02*
X81941203Y-75500828D01*
X81941203Y-75500828D02*
X81941203Y-75715114D01*
X81941203Y-75715114D02*
X82012631Y-75857971D01*
X82012631Y-75857971D02*
X82084060Y-75929400D01*
X82084060Y-75929400D02*
X82226917Y-76000828D01*
X82226917Y-76000828D02*
X82798346Y-76000828D01*
X82798346Y-76000828D02*
X82798346Y-74500828D01*
X82798346Y-74500828D02*
X82298346Y-74500828D01*
X82298346Y-74500828D02*
X82155489Y-74572257D01*
X82155489Y-74572257D02*
X82084060Y-74643685D01*
X82084060Y-74643685D02*
X82012631Y-74786542D01*
X82012631Y-74786542D02*
X82012631Y-74929400D01*
X82012631Y-74929400D02*
X82084060Y-75072257D01*
X82084060Y-75072257D02*
X82155489Y-75143685D01*
X82155489Y-75143685D02*
X82298346Y-75215114D01*
X82298346Y-75215114D02*
X82798346Y-75215114D01*
X81084060Y-76000828D02*
X81226917Y-75929400D01*
X81226917Y-75929400D02*
X81298346Y-75857971D01*
X81298346Y-75857971D02*
X81369774Y-75715114D01*
X81369774Y-75715114D02*
X81369774Y-75286542D01*
X81369774Y-75286542D02*
X81298346Y-75143685D01*
X81298346Y-75143685D02*
X81226917Y-75072257D01*
X81226917Y-75072257D02*
X81084060Y-75000828D01*
X81084060Y-75000828D02*
X80869774Y-75000828D01*
X80869774Y-75000828D02*
X80726917Y-75072257D01*
X80726917Y-75072257D02*
X80655489Y-75143685D01*
X80655489Y-75143685D02*
X80584060Y-75286542D01*
X80584060Y-75286542D02*
X80584060Y-75715114D01*
X80584060Y-75715114D02*
X80655489Y-75857971D01*
X80655489Y-75857971D02*
X80726917Y-75929400D01*
X80726917Y-75929400D02*
X80869774Y-76000828D01*
X80869774Y-76000828D02*
X81084060Y-76000828D01*
X79298346Y-76000828D02*
X79298346Y-75215114D01*
X79298346Y-75215114D02*
X79369774Y-75072257D01*
X79369774Y-75072257D02*
X79512631Y-75000828D01*
X79512631Y-75000828D02*
X79798346Y-75000828D01*
X79798346Y-75000828D02*
X79941203Y-75072257D01*
X79298346Y-75929400D02*
X79441203Y-76000828D01*
X79441203Y-76000828D02*
X79798346Y-76000828D01*
X79798346Y-76000828D02*
X79941203Y-75929400D01*
X79941203Y-75929400D02*
X80012631Y-75786542D01*
X80012631Y-75786542D02*
X80012631Y-75643685D01*
X80012631Y-75643685D02*
X79941203Y-75500828D01*
X79941203Y-75500828D02*
X79798346Y-75429400D01*
X79798346Y-75429400D02*
X79441203Y-75429400D01*
X79441203Y-75429400D02*
X79298346Y-75357971D01*
X78584060Y-76000828D02*
X78584060Y-75000828D01*
X78584060Y-75286542D02*
X78512631Y-75143685D01*
X78512631Y-75143685D02*
X78441203Y-75072257D01*
X78441203Y-75072257D02*
X78298345Y-75000828D01*
X78298345Y-75000828D02*
X78155488Y-75000828D01*
X77012632Y-76000828D02*
X77012632Y-74500828D01*
X77012632Y-75929400D02*
X77155489Y-76000828D01*
X77155489Y-76000828D02*
X77441203Y-76000828D01*
X77441203Y-76000828D02*
X77584060Y-75929400D01*
X77584060Y-75929400D02*
X77655489Y-75857971D01*
X77655489Y-75857971D02*
X77726917Y-75715114D01*
X77726917Y-75715114D02*
X77726917Y-75286542D01*
X77726917Y-75286542D02*
X77655489Y-75143685D01*
X77655489Y-75143685D02*
X77584060Y-75072257D01*
X77584060Y-75072257D02*
X77441203Y-75000828D01*
X77441203Y-75000828D02*
X77155489Y-75000828D01*
X77155489Y-75000828D02*
X77012632Y-75072257D01*
D11*
X90769887Y-78616340D02*
X91188935Y-78616340D01*
X91188935Y-78616340D02*
X90922268Y-78197292D01*
X90922268Y-78197292D02*
X91188935Y-77816340D01*
X91188935Y-77816340D02*
X90769887Y-77816340D01*
X90350839Y-78349673D02*
X90427029Y-78387768D01*
X90427029Y-78387768D02*
X90465125Y-78463959D01*
X90465125Y-78463959D02*
X90465125Y-78502054D01*
X90465125Y-78502054D02*
X90427029Y-78578245D01*
X90427029Y-78578245D02*
X90350839Y-78616340D01*
X90350839Y-78616340D02*
X90198458Y-78616340D01*
X90198458Y-78616340D02*
X90122267Y-78578245D01*
X90274648Y-78349673D02*
X90350839Y-78349673D01*
X90350839Y-78349673D02*
X90427029Y-78311578D01*
X90427029Y-78311578D02*
X90465125Y-78235387D01*
X90465125Y-78235387D02*
X90465125Y-78197292D01*
X90465125Y-78197292D02*
X90427029Y-78121102D01*
X90427029Y-78121102D02*
X90350839Y-78083006D01*
X90350839Y-78083006D02*
X90198458Y-78083006D01*
X90198458Y-78083006D02*
X90122267Y-78121102D01*
X89093696Y-78349673D02*
X89169886Y-78387768D01*
X89169886Y-78387768D02*
X89207982Y-78463959D01*
X89207982Y-78463959D02*
X89207982Y-78502054D01*
X89207982Y-78502054D02*
X89169886Y-78578245D01*
X89169886Y-78578245D02*
X89093696Y-78616340D01*
X89093696Y-78616340D02*
X88941315Y-78616340D01*
X88941315Y-78616340D02*
X88865124Y-78578245D01*
X89017505Y-78349673D02*
X89093696Y-78349673D01*
X89093696Y-78349673D02*
X89169886Y-78311578D01*
X89169886Y-78311578D02*
X89207982Y-78235387D01*
X89207982Y-78235387D02*
X89207982Y-78197292D01*
X89207982Y-78197292D02*
X89169886Y-78121102D01*
X89169886Y-78121102D02*
X89093696Y-78083006D01*
X89093696Y-78083006D02*
X88941315Y-78083006D01*
X88941315Y-78083006D02*
X88865124Y-78121102D01*
X88522267Y-78083006D02*
X88522267Y-78502054D01*
X88522267Y-78502054D02*
X88484172Y-78578245D01*
X88484172Y-78578245D02*
X88407982Y-78616340D01*
X88407982Y-78616340D02*
X88293696Y-78616340D01*
X88293696Y-78616340D02*
X88217505Y-78578245D01*
X88217505Y-78578245D02*
X88179410Y-78540149D01*
X88179410Y-78540149D02*
X88141315Y-78463959D01*
X88141315Y-78463959D02*
X88141315Y-78197292D01*
X88141315Y-78197292D02*
X88179410Y-78121102D01*
X88179410Y-78121102D02*
X88217505Y-78083006D01*
X87455600Y-78083006D02*
X87874648Y-78883006D01*
X87874648Y-78083006D02*
X87798457Y-78121102D01*
X87798457Y-78121102D02*
X87760362Y-78197292D01*
X87760362Y-78197292D02*
X87569886Y-78768721D01*
X87569886Y-78768721D02*
X87531791Y-78844911D01*
X87531791Y-78844911D02*
X87455600Y-78883006D01*
X86693695Y-78083006D02*
X86807981Y-78463959D01*
X86807981Y-78463959D02*
X86846076Y-78540149D01*
X86846076Y-78540149D02*
X86884172Y-78578245D01*
X86884172Y-78578245D02*
X86960362Y-78616340D01*
X86960362Y-78616340D02*
X87036553Y-78616340D01*
X87036553Y-78616340D02*
X87112743Y-78578245D01*
X87112743Y-78578245D02*
X87150838Y-78540149D01*
X87150838Y-78540149D02*
X87188934Y-78425864D01*
X87188934Y-78425864D02*
X87188934Y-78273483D01*
X87188934Y-78273483D02*
X87150838Y-78159197D01*
X87150838Y-78159197D02*
X87112743Y-78121102D01*
X87112743Y-78121102D02*
X87036553Y-78083006D01*
X87036553Y-78083006D02*
X86960362Y-78083006D01*
X86960362Y-78083006D02*
X86884172Y-78121102D01*
X86884172Y-78121102D02*
X86846076Y-78159197D01*
X86846076Y-78159197D02*
X86807981Y-78235387D01*
X86807981Y-78235387D02*
X86769886Y-78502054D01*
X86769886Y-78502054D02*
X86731791Y-78578245D01*
X86731791Y-78578245D02*
X86655600Y-78616340D01*
X86350838Y-78883006D02*
X86350838Y-78235387D01*
X86350838Y-78235387D02*
X86312743Y-78159197D01*
X86312743Y-78159197D02*
X86274648Y-78121102D01*
X86274648Y-78121102D02*
X86198457Y-78083006D01*
X86198457Y-78083006D02*
X86084172Y-78083006D01*
X86084172Y-78083006D02*
X86007981Y-78121102D01*
X86007981Y-78121102D02*
X85969886Y-78159197D01*
X85969886Y-78159197D02*
X85931791Y-78235387D01*
X85931791Y-78235387D02*
X85931791Y-78463959D01*
X85931791Y-78463959D02*
X85969886Y-78540149D01*
X85969886Y-78540149D02*
X86007981Y-78578245D01*
X86007981Y-78578245D02*
X86084172Y-78616340D01*
X86084172Y-78616340D02*
X86198457Y-78616340D01*
X86198457Y-78616340D02*
X86274648Y-78578245D01*
X86274648Y-78578245D02*
X86350838Y-78502054D01*
X85588933Y-78083006D02*
X85588933Y-78502054D01*
X85588933Y-78502054D02*
X85550838Y-78578245D01*
X85550838Y-78578245D02*
X85474648Y-78616340D01*
X84712742Y-78083006D02*
X85055600Y-78083006D01*
X85055600Y-78083006D02*
X85131790Y-78121102D01*
X85131790Y-78121102D02*
X85169885Y-78159197D01*
X85169885Y-78159197D02*
X85207981Y-78235387D01*
X85207981Y-78235387D02*
X85207981Y-78463959D01*
X85207981Y-78463959D02*
X85169885Y-78540149D01*
X85169885Y-78540149D02*
X85131790Y-78578245D01*
X85131790Y-78578245D02*
X85055600Y-78616340D01*
X85055600Y-78616340D02*
X84941314Y-78616340D01*
X84941314Y-78616340D02*
X84865123Y-78578245D01*
X84865123Y-78578245D02*
X84827028Y-78540149D01*
X84827028Y-78540149D02*
X84788933Y-78463959D01*
X84788933Y-78463959D02*
X84788933Y-78235387D01*
X84788933Y-78235387D02*
X84827028Y-78159197D01*
X84827028Y-78159197D02*
X84865123Y-78121102D01*
X84865123Y-78121102D02*
X84941314Y-78083006D01*
X84446076Y-78197292D02*
X84407980Y-78121102D01*
X84407980Y-78121102D02*
X84331790Y-78083006D01*
X84331790Y-78083006D02*
X83988933Y-78083006D01*
X84217504Y-78083006D02*
X84217504Y-78502054D01*
X84217504Y-78502054D02*
X84179409Y-78578245D01*
X84179409Y-78578245D02*
X84103218Y-78616340D01*
X83417504Y-78349673D02*
X83417504Y-78502054D01*
X83607980Y-78083006D02*
X83646075Y-78121102D01*
X83646075Y-78121102D02*
X83684171Y-78197292D01*
X83684171Y-78197292D02*
X83684171Y-78502054D01*
X83684171Y-78502054D02*
X83646075Y-78578245D01*
X83646075Y-78578245D02*
X83569885Y-78616340D01*
X83569885Y-78616340D02*
X83531790Y-78616340D01*
X83531790Y-78616340D02*
X83455599Y-78578245D01*
X83455599Y-78578245D02*
X83417504Y-78502054D01*
X83417504Y-78502054D02*
X83379409Y-78578245D01*
X83379409Y-78578245D02*
X83303218Y-78616340D01*
X83303218Y-78616340D02*
X83265123Y-78616340D01*
X83265123Y-78616340D02*
X83188932Y-78578245D01*
X83188932Y-78578245D02*
X83150837Y-78502054D01*
X83150837Y-78502054D02*
X83150837Y-78197292D01*
X83150837Y-78197292D02*
X83188932Y-78121102D01*
X83188932Y-78121102D02*
X83227028Y-78083006D01*
X83341313Y-77778245D02*
X83455599Y-77892530D01*
X82084171Y-78540149D02*
X82084171Y-78883006D01*
X82312742Y-78083006D02*
X82274647Y-78083006D01*
X82274647Y-78083006D02*
X82236552Y-78121102D01*
X82236552Y-78121102D02*
X82084171Y-78540149D01*
X82084171Y-78540149D02*
X81893694Y-78083006D01*
X81588932Y-78083006D02*
X81588932Y-78502054D01*
X81588932Y-78502054D02*
X81550837Y-78578245D01*
X81550837Y-78578245D02*
X81474647Y-78616340D01*
X80712741Y-78083006D02*
X80827027Y-78463959D01*
X80827027Y-78463959D02*
X80865122Y-78540149D01*
X80865122Y-78540149D02*
X80903218Y-78578245D01*
X80903218Y-78578245D02*
X80979408Y-78616340D01*
X80979408Y-78616340D02*
X81055599Y-78616340D01*
X81055599Y-78616340D02*
X81131789Y-78578245D01*
X81131789Y-78578245D02*
X81169884Y-78540149D01*
X81169884Y-78540149D02*
X81207980Y-78425864D01*
X81207980Y-78425864D02*
X81207980Y-78273483D01*
X81207980Y-78273483D02*
X81169884Y-78159197D01*
X81169884Y-78159197D02*
X81131789Y-78121102D01*
X81131789Y-78121102D02*
X81055599Y-78083006D01*
X81055599Y-78083006D02*
X80979408Y-78083006D01*
X80979408Y-78083006D02*
X80903218Y-78121102D01*
X80903218Y-78121102D02*
X80865122Y-78159197D01*
X80865122Y-78159197D02*
X80827027Y-78235387D01*
X80827027Y-78235387D02*
X80788932Y-78502054D01*
X80788932Y-78502054D02*
X80750837Y-78578245D01*
X80750837Y-78578245D02*
X80674646Y-78616340D01*
X79646075Y-78616340D02*
X79722265Y-78578245D01*
X79722265Y-78578245D02*
X79760360Y-78540149D01*
X79760360Y-78540149D02*
X79798456Y-78463959D01*
X79798456Y-78463959D02*
X79798456Y-78235387D01*
X79798456Y-78235387D02*
X79760360Y-78159197D01*
X79760360Y-78159197D02*
X79722265Y-78121102D01*
X79722265Y-78121102D02*
X79646075Y-78083006D01*
X79646075Y-78083006D02*
X79531789Y-78083006D01*
X79531789Y-78083006D02*
X79455598Y-78121102D01*
X79455598Y-78121102D02*
X79417503Y-78159197D01*
X79417503Y-78159197D02*
X79379408Y-78235387D01*
X79379408Y-78235387D02*
X79379408Y-78463959D01*
X79379408Y-78463959D02*
X79417503Y-78540149D01*
X79417503Y-78540149D02*
X79455598Y-78578245D01*
X79455598Y-78578245D02*
X79531789Y-78616340D01*
X79531789Y-78616340D02*
X79646075Y-78616340D01*
X79493694Y-77778245D02*
X79607979Y-77892530D01*
X78922265Y-78083006D02*
X79112741Y-78616340D01*
X79112741Y-77816340D02*
X79036550Y-77816340D01*
X79036550Y-77816340D02*
X78998455Y-77854435D01*
X78998455Y-77854435D02*
X78922265Y-78083006D01*
X78922265Y-78083006D02*
X78731788Y-78616340D01*
X77969883Y-78083006D02*
X78084169Y-78463959D01*
X78084169Y-78463959D02*
X78122264Y-78540149D01*
X78122264Y-78540149D02*
X78160360Y-78578245D01*
X78160360Y-78578245D02*
X78236550Y-78616340D01*
X78236550Y-78616340D02*
X78312741Y-78616340D01*
X78312741Y-78616340D02*
X78388931Y-78578245D01*
X78388931Y-78578245D02*
X78427026Y-78540149D01*
X78427026Y-78540149D02*
X78465122Y-78425864D01*
X78465122Y-78425864D02*
X78465122Y-78273483D01*
X78465122Y-78273483D02*
X78427026Y-78159197D01*
X78427026Y-78159197D02*
X78388931Y-78121102D01*
X78388931Y-78121102D02*
X78312741Y-78083006D01*
X78312741Y-78083006D02*
X78236550Y-78083006D01*
X78236550Y-78083006D02*
X78160360Y-78121102D01*
X78160360Y-78121102D02*
X78122264Y-78159197D01*
X78122264Y-78159197D02*
X78084169Y-78235387D01*
X78084169Y-78235387D02*
X78046074Y-78502054D01*
X78046074Y-78502054D02*
X78007979Y-78578245D01*
X78007979Y-78578245D02*
X77931788Y-78616340D01*
X77627026Y-78540149D02*
X77588931Y-78578245D01*
X77588931Y-78578245D02*
X77627026Y-78616340D01*
X77627026Y-78616340D02*
X77665122Y-78578245D01*
X77665122Y-78578245D02*
X77627026Y-78540149D01*
X77627026Y-78540149D02*
X77627026Y-78616340D01*
X77627026Y-78311578D02*
X77665122Y-77854435D01*
X77665122Y-77854435D02*
X77627026Y-77816340D01*
X77627026Y-77816340D02*
X77588931Y-77854435D01*
X77588931Y-77854435D02*
X77627026Y-78311578D01*
X77627026Y-78311578D02*
X77627026Y-77816340D01*
X90046077Y-79104295D02*
X89588934Y-79104295D01*
X89817506Y-79904295D02*
X89817506Y-79104295D01*
X89322267Y-79904295D02*
X89322267Y-79370961D01*
X89322267Y-79104295D02*
X89360363Y-79142390D01*
X89360363Y-79142390D02*
X89322267Y-79180485D01*
X89322267Y-79180485D02*
X89284172Y-79142390D01*
X89284172Y-79142390D02*
X89322267Y-79104295D01*
X89322267Y-79104295D02*
X89322267Y-79180485D01*
X88407982Y-79370961D02*
X88217506Y-79904295D01*
X88217506Y-79904295D02*
X88027029Y-79370961D01*
X87607982Y-79904295D02*
X87684172Y-79866200D01*
X87684172Y-79866200D02*
X87722267Y-79828104D01*
X87722267Y-79828104D02*
X87760363Y-79751914D01*
X87760363Y-79751914D02*
X87760363Y-79523342D01*
X87760363Y-79523342D02*
X87722267Y-79447152D01*
X87722267Y-79447152D02*
X87684172Y-79409057D01*
X87684172Y-79409057D02*
X87607982Y-79370961D01*
X87607982Y-79370961D02*
X87493696Y-79370961D01*
X87493696Y-79370961D02*
X87417505Y-79409057D01*
X87417505Y-79409057D02*
X87379410Y-79447152D01*
X87379410Y-79447152D02*
X87341315Y-79523342D01*
X87341315Y-79523342D02*
X87341315Y-79751914D01*
X87341315Y-79751914D02*
X87379410Y-79828104D01*
X87379410Y-79828104D02*
X87417505Y-79866200D01*
X87417505Y-79866200D02*
X87493696Y-79904295D01*
X87493696Y-79904295D02*
X87607982Y-79904295D01*
X86655600Y-79370961D02*
X86655600Y-80018580D01*
X86655600Y-80018580D02*
X86693695Y-80094771D01*
X86693695Y-80094771D02*
X86731791Y-80132866D01*
X86731791Y-80132866D02*
X86807981Y-80170961D01*
X86807981Y-80170961D02*
X86922267Y-80170961D01*
X86922267Y-80170961D02*
X86998457Y-80132866D01*
X86655600Y-79866200D02*
X86731791Y-79904295D01*
X86731791Y-79904295D02*
X86884172Y-79904295D01*
X86884172Y-79904295D02*
X86960362Y-79866200D01*
X86960362Y-79866200D02*
X86998457Y-79828104D01*
X86998457Y-79828104D02*
X87036553Y-79751914D01*
X87036553Y-79751914D02*
X87036553Y-79523342D01*
X87036553Y-79523342D02*
X86998457Y-79447152D01*
X86998457Y-79447152D02*
X86960362Y-79409057D01*
X86960362Y-79409057D02*
X86884172Y-79370961D01*
X86884172Y-79370961D02*
X86731791Y-79370961D01*
X86731791Y-79370961D02*
X86655600Y-79409057D01*
X86160362Y-79904295D02*
X86236552Y-79866200D01*
X86236552Y-79866200D02*
X86274647Y-79790009D01*
X86274647Y-79790009D02*
X86274647Y-79104295D01*
X85855599Y-79904295D02*
X85855599Y-79370961D01*
X85855599Y-79104295D02*
X85893695Y-79142390D01*
X85893695Y-79142390D02*
X85855599Y-79180485D01*
X85855599Y-79180485D02*
X85817504Y-79142390D01*
X85817504Y-79142390D02*
X85855599Y-79104295D01*
X85855599Y-79104295D02*
X85855599Y-79180485D01*
X85360362Y-79904295D02*
X85436552Y-79866200D01*
X85436552Y-79866200D02*
X85474647Y-79828104D01*
X85474647Y-79828104D02*
X85512743Y-79751914D01*
X85512743Y-79751914D02*
X85512743Y-79523342D01*
X85512743Y-79523342D02*
X85474647Y-79447152D01*
X85474647Y-79447152D02*
X85436552Y-79409057D01*
X85436552Y-79409057D02*
X85360362Y-79370961D01*
X85360362Y-79370961D02*
X85246076Y-79370961D01*
X85246076Y-79370961D02*
X85169885Y-79409057D01*
X85169885Y-79409057D02*
X85131790Y-79447152D01*
X85131790Y-79447152D02*
X85093695Y-79523342D01*
X85093695Y-79523342D02*
X85093695Y-79751914D01*
X85093695Y-79751914D02*
X85131790Y-79828104D01*
X85131790Y-79828104D02*
X85169885Y-79866200D01*
X85169885Y-79866200D02*
X85246076Y-79904295D01*
X85246076Y-79904295D02*
X85360362Y-79904295D01*
X84141313Y-79904295D02*
X84141313Y-79104295D01*
X84141313Y-79409057D02*
X84065123Y-79370961D01*
X84065123Y-79370961D02*
X83912742Y-79370961D01*
X83912742Y-79370961D02*
X83836551Y-79409057D01*
X83836551Y-79409057D02*
X83798456Y-79447152D01*
X83798456Y-79447152D02*
X83760361Y-79523342D01*
X83760361Y-79523342D02*
X83760361Y-79751914D01*
X83760361Y-79751914D02*
X83798456Y-79828104D01*
X83798456Y-79828104D02*
X83836551Y-79866200D01*
X83836551Y-79866200D02*
X83912742Y-79904295D01*
X83912742Y-79904295D02*
X84065123Y-79904295D01*
X84065123Y-79904295D02*
X84141313Y-79866200D01*
X83112741Y-79866200D02*
X83188932Y-79904295D01*
X83188932Y-79904295D02*
X83341313Y-79904295D01*
X83341313Y-79904295D02*
X83417503Y-79866200D01*
X83417503Y-79866200D02*
X83455599Y-79790009D01*
X83455599Y-79790009D02*
X83455599Y-79485247D01*
X83455599Y-79485247D02*
X83417503Y-79409057D01*
X83417503Y-79409057D02*
X83341313Y-79370961D01*
X83341313Y-79370961D02*
X83188932Y-79370961D01*
X83188932Y-79370961D02*
X83112741Y-79409057D01*
X83112741Y-79409057D02*
X83074646Y-79485247D01*
X83074646Y-79485247D02*
X83074646Y-79561438D01*
X83074646Y-79561438D02*
X83455599Y-79637628D01*
X82731789Y-79370961D02*
X82731789Y-79904295D01*
X82731789Y-79447152D02*
X82693694Y-79409057D01*
X82693694Y-79409057D02*
X82617504Y-79370961D01*
X82617504Y-79370961D02*
X82503218Y-79370961D01*
X82503218Y-79370961D02*
X82427027Y-79409057D01*
X82427027Y-79409057D02*
X82388932Y-79485247D01*
X82388932Y-79485247D02*
X82388932Y-79904295D01*
X81703217Y-79866200D02*
X81779408Y-79904295D01*
X81779408Y-79904295D02*
X81931789Y-79904295D01*
X81931789Y-79904295D02*
X82007979Y-79866200D01*
X82007979Y-79866200D02*
X82046075Y-79790009D01*
X82046075Y-79790009D02*
X82046075Y-79485247D01*
X82046075Y-79485247D02*
X82007979Y-79409057D01*
X82007979Y-79409057D02*
X81931789Y-79370961D01*
X81931789Y-79370961D02*
X81779408Y-79370961D01*
X81779408Y-79370961D02*
X81703217Y-79409057D01*
X81703217Y-79409057D02*
X81665122Y-79485247D01*
X81665122Y-79485247D02*
X81665122Y-79561438D01*
X81665122Y-79561438D02*
X82046075Y-79637628D01*
%LPC*%
D12*
%TO.C,TP4057*%
X136920000Y-41990000D03*
X136920000Y-46910000D03*
X136920000Y-39530000D03*
X136920000Y-49370000D03*
%TD*%
D13*
%TO.C,DS1*%
X40640000Y-73660000D03*
X48260000Y-73660000D03*
X45720000Y-73660000D03*
X43180000Y-73660000D03*
%TD*%
D14*
%TO.C,U2*%
X94240000Y-106680000D03*
X91700000Y-106680000D03*
X89160000Y-106680000D03*
X86620000Y-106680000D03*
X81540000Y-106680000D03*
X84080000Y-106680000D03*
X76460000Y-121920000D03*
X76460000Y-106680000D03*
X79000000Y-121920000D03*
X81540000Y-121920000D03*
X84080000Y-121920000D03*
X86620000Y-121920000D03*
X89160000Y-121920000D03*
X91700000Y-121920000D03*
X94240000Y-121920000D03*
X79000000Y-106680000D03*
%TD*%
D13*
%TO.C,RV1*%
X115570000Y-49530000D03*
X110490000Y-49530000D03*
X105410000Y-49530000D03*
%TD*%
D15*
%TO.C,SD1*%
X123925385Y-74194615D03*
X137694615Y-74194615D03*
X132186923Y-74194615D03*
X129433077Y-74194615D03*
X126679231Y-74194615D03*
X134940769Y-74194615D03*
%TD*%
D16*
%TO.C,TFT1*%
X60156662Y-70533335D03*
X60156662Y-84133331D03*
X60156674Y-68266669D03*
X60156674Y-75066667D03*
X60156674Y-72800001D03*
X60156674Y-79599999D03*
X60156662Y-77333333D03*
X60156674Y-81866665D03*
%TD*%
%LPD*%
M02*
