%TF.GenerationSoftware,KiCad,Pcbnew,8.0.3*%
%TF.CreationDate,2024-07-09T17:09:24+02:00*%
%TF.ProjectId,eirini2,65697269-6e69-4322-9e6b-696361645f70,1.0*%
%TF.SameCoordinates,Original*%
%TF.FileFunction,Legend,Top*%
%TF.FilePolarity,Positive*%
%FSLAX46Y46*%
G04 Gerber Fmt 4.6, Leading zero omitted, Abs format (unit mm)*
G04 Created by KiCad (PCBNEW 8.0.3) date 2024-07-09 17:09:24*
%MOMM*%
%LPD*%
G01*
G04 APERTURE LIST*
%ADD10C,0.300000*%
%ADD11C,0.150000*%
%ADD12C,0.100000*%
%ADD13C,0.120000*%
%ADD14C,0.127000*%
%ADD15C,1.230000*%
%ADD16R,0.900000X1.500000*%
%ADD17R,1.500000X0.900000*%
%ADD18C,1.524000*%
%ADD19C,2.109000*%
%ADD20C,1.325926*%
%ADD21C,1.800000*%
G04 APERTURE END LIST*
D10*
X110084034Y-57492971D02*
X109893558Y-57588209D01*
X109893558Y-57588209D02*
X109798320Y-57778685D01*
X109798320Y-57778685D02*
X109798320Y-57873923D01*
X109798320Y-57873923D02*
X109893558Y-58064400D01*
X109893558Y-58064400D02*
X110084034Y-58159638D01*
X110084034Y-58159638D02*
X110464987Y-58159638D01*
X110464987Y-58159638D02*
X110655463Y-58064400D01*
X110274510Y-57492971D02*
X110084034Y-57492971D01*
X110084034Y-57492971D02*
X109893558Y-57397733D01*
X109893558Y-57397733D02*
X109798320Y-57207257D01*
X109798320Y-57207257D02*
X109798320Y-57112019D01*
X109798320Y-57112019D02*
X109893558Y-56921542D01*
X109893558Y-56921542D02*
X110084034Y-56826304D01*
X110084034Y-56826304D02*
X110464987Y-56826304D01*
X110464987Y-56826304D02*
X110655463Y-56921542D01*
X112084035Y-57016780D02*
X112274511Y-57112019D01*
X112274511Y-57112019D02*
X112369749Y-57207257D01*
X112369749Y-57207257D02*
X112464987Y-57397733D01*
X112464987Y-57397733D02*
X112464987Y-57778685D01*
X112464987Y-57778685D02*
X112369749Y-57969161D01*
X112369749Y-57969161D02*
X112274511Y-58064400D01*
X112274511Y-58064400D02*
X112084035Y-58159638D01*
X112084035Y-58159638D02*
X111798320Y-58159638D01*
X111798320Y-58159638D02*
X111607844Y-58064400D01*
X111607844Y-58064400D02*
X111512606Y-57969161D01*
X111322130Y-58826304D02*
X111417368Y-58731066D01*
X111417368Y-58731066D02*
X111512606Y-58540590D01*
X111512606Y-58540590D02*
X111512606Y-56445352D01*
X111512606Y-56445352D02*
X111607844Y-56254876D01*
X111607844Y-56254876D02*
X111798320Y-56159638D01*
X111798320Y-56159638D02*
X112084035Y-56159638D01*
X112084035Y-56159638D02*
X112274511Y-56254876D01*
X112274511Y-56254876D02*
X112369749Y-56445352D01*
X112369749Y-56445352D02*
X112369749Y-56731066D01*
X112369749Y-56731066D02*
X112274511Y-56921542D01*
X112274511Y-56921542D02*
X112084035Y-57016780D01*
X112084035Y-57016780D02*
X111893558Y-57016780D01*
D11*
X71259819Y-113677506D02*
X71974104Y-113677506D01*
X71974104Y-113677506D02*
X72116961Y-113725125D01*
X72116961Y-113725125D02*
X72212200Y-113820363D01*
X72212200Y-113820363D02*
X72259819Y-113963220D01*
X72259819Y-113963220D02*
X72259819Y-114058458D01*
X72259819Y-112725125D02*
X72259819Y-113201315D01*
X72259819Y-113201315D02*
X71259819Y-113201315D01*
X72164580Y-111820363D02*
X72212200Y-111867982D01*
X72212200Y-111867982D02*
X72259819Y-112010839D01*
X72259819Y-112010839D02*
X72259819Y-112106077D01*
X72259819Y-112106077D02*
X72212200Y-112248934D01*
X72212200Y-112248934D02*
X72116961Y-112344172D01*
X72116961Y-112344172D02*
X72021723Y-112391791D01*
X72021723Y-112391791D02*
X71831247Y-112439410D01*
X71831247Y-112439410D02*
X71688390Y-112439410D01*
X71688390Y-112439410D02*
X71497914Y-112391791D01*
X71497914Y-112391791D02*
X71402676Y-112344172D01*
X71402676Y-112344172D02*
X71307438Y-112248934D01*
X71307438Y-112248934D02*
X71259819Y-112106077D01*
X71259819Y-112106077D02*
X71259819Y-112010839D01*
X71259819Y-112010839D02*
X71307438Y-111867982D01*
X71307438Y-111867982D02*
X71355057Y-111820363D01*
X71259819Y-111106077D02*
X71974104Y-111106077D01*
X71974104Y-111106077D02*
X72116961Y-111153696D01*
X72116961Y-111153696D02*
X72212200Y-111248934D01*
X72212200Y-111248934D02*
X72259819Y-111391791D01*
X72259819Y-111391791D02*
X72259819Y-111487029D01*
X72259819Y-110153696D02*
X72259819Y-110629886D01*
X72259819Y-110629886D02*
X71259819Y-110629886D01*
X72164580Y-109248934D02*
X72212200Y-109296553D01*
X72212200Y-109296553D02*
X72259819Y-109439410D01*
X72259819Y-109439410D02*
X72259819Y-109534648D01*
X72259819Y-109534648D02*
X72212200Y-109677505D01*
X72212200Y-109677505D02*
X72116961Y-109772743D01*
X72116961Y-109772743D02*
X72021723Y-109820362D01*
X72021723Y-109820362D02*
X71831247Y-109867981D01*
X71831247Y-109867981D02*
X71688390Y-109867981D01*
X71688390Y-109867981D02*
X71497914Y-109820362D01*
X71497914Y-109820362D02*
X71402676Y-109772743D01*
X71402676Y-109772743D02*
X71307438Y-109677505D01*
X71307438Y-109677505D02*
X71259819Y-109534648D01*
X71259819Y-109534648D02*
X71259819Y-109439410D01*
X71259819Y-109439410D02*
X71307438Y-109296553D01*
X71307438Y-109296553D02*
X71355057Y-109248934D01*
X71259819Y-108534648D02*
X71974104Y-108534648D01*
X71974104Y-108534648D02*
X72116961Y-108582267D01*
X72116961Y-108582267D02*
X72212200Y-108677505D01*
X72212200Y-108677505D02*
X72259819Y-108820362D01*
X72259819Y-108820362D02*
X72259819Y-108915600D01*
X72259819Y-107582267D02*
X72259819Y-108058457D01*
X72259819Y-108058457D02*
X71259819Y-108058457D01*
X72164580Y-106677505D02*
X72212200Y-106725124D01*
X72212200Y-106725124D02*
X72259819Y-106867981D01*
X72259819Y-106867981D02*
X72259819Y-106963219D01*
X72259819Y-106963219D02*
X72212200Y-107106076D01*
X72212200Y-107106076D02*
X72116961Y-107201314D01*
X72116961Y-107201314D02*
X72021723Y-107248933D01*
X72021723Y-107248933D02*
X71831247Y-107296552D01*
X71831247Y-107296552D02*
X71688390Y-107296552D01*
X71688390Y-107296552D02*
X71497914Y-107248933D01*
X71497914Y-107248933D02*
X71402676Y-107201314D01*
X71402676Y-107201314D02*
X71307438Y-107106076D01*
X71307438Y-107106076D02*
X71259819Y-106963219D01*
X71259819Y-106963219D02*
X71259819Y-106867981D01*
X71259819Y-106867981D02*
X71307438Y-106725124D01*
X71307438Y-106725124D02*
X71355057Y-106677505D01*
X71259819Y-105963219D02*
X71974104Y-105963219D01*
X71974104Y-105963219D02*
X72116961Y-106010838D01*
X72116961Y-106010838D02*
X72212200Y-106106076D01*
X72212200Y-106106076D02*
X72259819Y-106248933D01*
X72259819Y-106248933D02*
X72259819Y-106344171D01*
X72259819Y-105010838D02*
X72259819Y-105487028D01*
X72259819Y-105487028D02*
X71259819Y-105487028D01*
X72164580Y-104106076D02*
X72212200Y-104153695D01*
X72212200Y-104153695D02*
X72259819Y-104296552D01*
X72259819Y-104296552D02*
X72259819Y-104391790D01*
X72259819Y-104391790D02*
X72212200Y-104534647D01*
X72212200Y-104534647D02*
X72116961Y-104629885D01*
X72116961Y-104629885D02*
X72021723Y-104677504D01*
X72021723Y-104677504D02*
X71831247Y-104725123D01*
X71831247Y-104725123D02*
X71688390Y-104725123D01*
X71688390Y-104725123D02*
X71497914Y-104677504D01*
X71497914Y-104677504D02*
X71402676Y-104629885D01*
X71402676Y-104629885D02*
X71307438Y-104534647D01*
X71307438Y-104534647D02*
X71259819Y-104391790D01*
X71259819Y-104391790D02*
X71259819Y-104296552D01*
X71259819Y-104296552D02*
X71307438Y-104153695D01*
X71307438Y-104153695D02*
X71355057Y-104106076D01*
X90436779Y-55578866D02*
X91198684Y-55578866D01*
X90817731Y-55959819D02*
X90817731Y-55197914D01*
X51136779Y-96008866D02*
X51898684Y-96008866D01*
X51517731Y-96389819D02*
X51517731Y-95627914D01*
X128606779Y-27428866D02*
X129368684Y-27428866D01*
X128987731Y-27809819D02*
X128987731Y-27047914D01*
X138957255Y-38239819D02*
X139147731Y-38239819D01*
X139147731Y-38239819D02*
X139242969Y-38287438D01*
X139242969Y-38287438D02*
X139338207Y-38382676D01*
X139338207Y-38382676D02*
X139385826Y-38573152D01*
X139385826Y-38573152D02*
X139385826Y-38906485D01*
X139385826Y-38906485D02*
X139338207Y-39096961D01*
X139338207Y-39096961D02*
X139242969Y-39192200D01*
X139242969Y-39192200D02*
X139147731Y-39239819D01*
X139147731Y-39239819D02*
X138957255Y-39239819D01*
X138957255Y-39239819D02*
X138862017Y-39192200D01*
X138862017Y-39192200D02*
X138766779Y-39096961D01*
X138766779Y-39096961D02*
X138719160Y-38906485D01*
X138719160Y-38906485D02*
X138719160Y-38573152D01*
X138719160Y-38573152D02*
X138766779Y-38382676D01*
X138766779Y-38382676D02*
X138862017Y-38287438D01*
X138862017Y-38287438D02*
X138957255Y-38239819D01*
X139814398Y-38239819D02*
X139814398Y-39049342D01*
X139814398Y-39049342D02*
X139862017Y-39144580D01*
X139862017Y-39144580D02*
X139909636Y-39192200D01*
X139909636Y-39192200D02*
X140004874Y-39239819D01*
X140004874Y-39239819D02*
X140195350Y-39239819D01*
X140195350Y-39239819D02*
X140290588Y-39192200D01*
X140290588Y-39192200D02*
X140338207Y-39144580D01*
X140338207Y-39144580D02*
X140385826Y-39049342D01*
X140385826Y-39049342D02*
X140385826Y-38239819D01*
X140719160Y-38239819D02*
X141290588Y-38239819D01*
X141004874Y-39239819D02*
X141004874Y-38239819D01*
X141623922Y-38858866D02*
X142385827Y-38858866D01*
X142004874Y-39239819D02*
X142004874Y-38477914D01*
X27006779Y-51558866D02*
X27768684Y-51558866D01*
X27387731Y-51939819D02*
X27387731Y-51177914D01*
X76425588Y-103819438D02*
X76330350Y-103771819D01*
X76330350Y-103771819D02*
X76187493Y-103771819D01*
X76187493Y-103771819D02*
X76044636Y-103819438D01*
X76044636Y-103819438D02*
X75949398Y-103914676D01*
X75949398Y-103914676D02*
X75901779Y-104009914D01*
X75901779Y-104009914D02*
X75854160Y-104200390D01*
X75854160Y-104200390D02*
X75854160Y-104343247D01*
X75854160Y-104343247D02*
X75901779Y-104533723D01*
X75901779Y-104533723D02*
X75949398Y-104628961D01*
X75949398Y-104628961D02*
X76044636Y-104724200D01*
X76044636Y-104724200D02*
X76187493Y-104771819D01*
X76187493Y-104771819D02*
X76282731Y-104771819D01*
X76282731Y-104771819D02*
X76425588Y-104724200D01*
X76425588Y-104724200D02*
X76473207Y-104676580D01*
X76473207Y-104676580D02*
X76473207Y-104343247D01*
X76473207Y-104343247D02*
X76282731Y-104343247D01*
X76901779Y-104771819D02*
X76901779Y-103771819D01*
X76901779Y-103771819D02*
X77473207Y-104771819D01*
X77473207Y-104771819D02*
X77473207Y-103771819D01*
X77949398Y-104771819D02*
X77949398Y-103771819D01*
X77949398Y-103771819D02*
X78187493Y-103771819D01*
X78187493Y-103771819D02*
X78330350Y-103819438D01*
X78330350Y-103819438D02*
X78425588Y-103914676D01*
X78425588Y-103914676D02*
X78473207Y-104009914D01*
X78473207Y-104009914D02*
X78520826Y-104200390D01*
X78520826Y-104200390D02*
X78520826Y-104343247D01*
X78520826Y-104343247D02*
X78473207Y-104533723D01*
X78473207Y-104533723D02*
X78425588Y-104628961D01*
X78425588Y-104628961D02*
X78330350Y-104724200D01*
X78330350Y-104724200D02*
X78187493Y-104771819D01*
X78187493Y-104771819D02*
X77949398Y-104771819D01*
X139290588Y-76387438D02*
X139195350Y-76339819D01*
X139195350Y-76339819D02*
X139052493Y-76339819D01*
X139052493Y-76339819D02*
X138909636Y-76387438D01*
X138909636Y-76387438D02*
X138814398Y-76482676D01*
X138814398Y-76482676D02*
X138766779Y-76577914D01*
X138766779Y-76577914D02*
X138719160Y-76768390D01*
X138719160Y-76768390D02*
X138719160Y-76911247D01*
X138719160Y-76911247D02*
X138766779Y-77101723D01*
X138766779Y-77101723D02*
X138814398Y-77196961D01*
X138814398Y-77196961D02*
X138909636Y-77292200D01*
X138909636Y-77292200D02*
X139052493Y-77339819D01*
X139052493Y-77339819D02*
X139147731Y-77339819D01*
X139147731Y-77339819D02*
X139290588Y-77292200D01*
X139290588Y-77292200D02*
X139338207Y-77244580D01*
X139338207Y-77244580D02*
X139338207Y-76911247D01*
X139338207Y-76911247D02*
X139147731Y-76911247D01*
X139766779Y-77339819D02*
X139766779Y-76339819D01*
X139766779Y-76339819D02*
X140338207Y-77339819D01*
X140338207Y-77339819D02*
X140338207Y-76339819D01*
X140814398Y-77339819D02*
X140814398Y-76339819D01*
X140814398Y-76339819D02*
X141052493Y-76339819D01*
X141052493Y-76339819D02*
X141195350Y-76387438D01*
X141195350Y-76387438D02*
X141290588Y-76482676D01*
X141290588Y-76482676D02*
X141338207Y-76577914D01*
X141338207Y-76577914D02*
X141385826Y-76768390D01*
X141385826Y-76768390D02*
X141385826Y-76911247D01*
X141385826Y-76911247D02*
X141338207Y-77101723D01*
X141338207Y-77101723D02*
X141290588Y-77196961D01*
X141290588Y-77196961D02*
X141195350Y-77292200D01*
X141195350Y-77292200D02*
X141052493Y-77339819D01*
X141052493Y-77339819D02*
X140814398Y-77339819D01*
D10*
X61220701Y-58159638D02*
X61220701Y-57112019D01*
X61220701Y-57112019D02*
X61125463Y-56921542D01*
X61125463Y-56921542D02*
X60934987Y-56826304D01*
X60934987Y-56826304D02*
X60554034Y-56826304D01*
X60554034Y-56826304D02*
X60363558Y-56921542D01*
X61220701Y-58064400D02*
X61030225Y-58159638D01*
X61030225Y-58159638D02*
X60554034Y-58159638D01*
X60554034Y-58159638D02*
X60363558Y-58064400D01*
X60363558Y-58064400D02*
X60268320Y-57873923D01*
X60268320Y-57873923D02*
X60268320Y-57683447D01*
X60268320Y-57683447D02*
X60363558Y-57492971D01*
X60363558Y-57492971D02*
X60554034Y-57397733D01*
X60554034Y-57397733D02*
X61030225Y-57397733D01*
X61030225Y-57397733D02*
X61220701Y-57302495D01*
X63030225Y-58159638D02*
X63030225Y-57112019D01*
X63030225Y-57112019D02*
X62934987Y-56921542D01*
X62934987Y-56921542D02*
X62744511Y-56826304D01*
X62744511Y-56826304D02*
X62363558Y-56826304D01*
X62363558Y-56826304D02*
X62173082Y-56921542D01*
X63030225Y-58064400D02*
X62839749Y-58159638D01*
X62839749Y-58159638D02*
X62363558Y-58159638D01*
X62363558Y-58159638D02*
X62173082Y-58064400D01*
X62173082Y-58064400D02*
X62077844Y-57873923D01*
X62077844Y-57873923D02*
X62077844Y-57683447D01*
X62077844Y-57683447D02*
X62173082Y-57492971D01*
X62173082Y-57492971D02*
X62363558Y-57397733D01*
X62363558Y-57397733D02*
X62839749Y-57397733D01*
X62839749Y-57397733D02*
X63030225Y-57302495D01*
D11*
X52406779Y-26158866D02*
X53168684Y-26158866D01*
X52787731Y-26539819D02*
X52787731Y-25777914D01*
X57337438Y-86769411D02*
X57289819Y-86864649D01*
X57289819Y-86864649D02*
X57289819Y-87007506D01*
X57289819Y-87007506D02*
X57337438Y-87150363D01*
X57337438Y-87150363D02*
X57432676Y-87245601D01*
X57432676Y-87245601D02*
X57527914Y-87293220D01*
X57527914Y-87293220D02*
X57718390Y-87340839D01*
X57718390Y-87340839D02*
X57861247Y-87340839D01*
X57861247Y-87340839D02*
X58051723Y-87293220D01*
X58051723Y-87293220D02*
X58146961Y-87245601D01*
X58146961Y-87245601D02*
X58242200Y-87150363D01*
X58242200Y-87150363D02*
X58289819Y-87007506D01*
X58289819Y-87007506D02*
X58289819Y-86912268D01*
X58289819Y-86912268D02*
X58242200Y-86769411D01*
X58242200Y-86769411D02*
X58194580Y-86721792D01*
X58194580Y-86721792D02*
X57861247Y-86721792D01*
X57861247Y-86721792D02*
X57861247Y-86912268D01*
X58289819Y-86293220D02*
X57289819Y-86293220D01*
X57289819Y-86293220D02*
X58289819Y-85721792D01*
X58289819Y-85721792D02*
X57289819Y-85721792D01*
X58289819Y-85245601D02*
X57289819Y-85245601D01*
X57289819Y-85245601D02*
X57289819Y-85007506D01*
X57289819Y-85007506D02*
X57337438Y-84864649D01*
X57337438Y-84864649D02*
X57432676Y-84769411D01*
X57432676Y-84769411D02*
X57527914Y-84721792D01*
X57527914Y-84721792D02*
X57718390Y-84674173D01*
X57718390Y-84674173D02*
X57861247Y-84674173D01*
X57861247Y-84674173D02*
X58051723Y-84721792D01*
X58051723Y-84721792D02*
X58146961Y-84769411D01*
X58146961Y-84769411D02*
X58242200Y-84864649D01*
X58242200Y-84864649D02*
X58289819Y-85007506D01*
X58289819Y-85007506D02*
X58289819Y-85245601D01*
X121558207Y-77244580D02*
X121510588Y-77292200D01*
X121510588Y-77292200D02*
X121367731Y-77339819D01*
X121367731Y-77339819D02*
X121272493Y-77339819D01*
X121272493Y-77339819D02*
X121129636Y-77292200D01*
X121129636Y-77292200D02*
X121034398Y-77196961D01*
X121034398Y-77196961D02*
X120986779Y-77101723D01*
X120986779Y-77101723D02*
X120939160Y-76911247D01*
X120939160Y-76911247D02*
X120939160Y-76768390D01*
X120939160Y-76768390D02*
X120986779Y-76577914D01*
X120986779Y-76577914D02*
X121034398Y-76482676D01*
X121034398Y-76482676D02*
X121129636Y-76387438D01*
X121129636Y-76387438D02*
X121272493Y-76339819D01*
X121272493Y-76339819D02*
X121367731Y-76339819D01*
X121367731Y-76339819D02*
X121510588Y-76387438D01*
X121510588Y-76387438D02*
X121558207Y-76435057D01*
X121939160Y-77292200D02*
X122082017Y-77339819D01*
X122082017Y-77339819D02*
X122320112Y-77339819D01*
X122320112Y-77339819D02*
X122415350Y-77292200D01*
X122415350Y-77292200D02*
X122462969Y-77244580D01*
X122462969Y-77244580D02*
X122510588Y-77149342D01*
X122510588Y-77149342D02*
X122510588Y-77054104D01*
X122510588Y-77054104D02*
X122462969Y-76958866D01*
X122462969Y-76958866D02*
X122415350Y-76911247D01*
X122415350Y-76911247D02*
X122320112Y-76863628D01*
X122320112Y-76863628D02*
X122129636Y-76816009D01*
X122129636Y-76816009D02*
X122034398Y-76768390D01*
X122034398Y-76768390D02*
X121986779Y-76720771D01*
X121986779Y-76720771D02*
X121939160Y-76625533D01*
X121939160Y-76625533D02*
X121939160Y-76530295D01*
X121939160Y-76530295D02*
X121986779Y-76435057D01*
X121986779Y-76435057D02*
X122034398Y-76387438D01*
X122034398Y-76387438D02*
X122129636Y-76339819D01*
X122129636Y-76339819D02*
X122367731Y-76339819D01*
X122367731Y-76339819D02*
X122510588Y-76387438D01*
X58289819Y-69037030D02*
X58289819Y-69513220D01*
X58289819Y-69513220D02*
X57289819Y-69513220D01*
X57766009Y-68703696D02*
X57766009Y-68370363D01*
X58289819Y-68227506D02*
X58289819Y-68703696D01*
X58289819Y-68703696D02*
X57289819Y-68703696D01*
X57289819Y-68703696D02*
X57289819Y-68227506D01*
X58289819Y-67798934D02*
X57289819Y-67798934D01*
X57289819Y-67798934D02*
X57289819Y-67560839D01*
X57289819Y-67560839D02*
X57337438Y-67417982D01*
X57337438Y-67417982D02*
X57432676Y-67322744D01*
X57432676Y-67322744D02*
X57527914Y-67275125D01*
X57527914Y-67275125D02*
X57718390Y-67227506D01*
X57718390Y-67227506D02*
X57861247Y-67227506D01*
X57861247Y-67227506D02*
X58051723Y-67275125D01*
X58051723Y-67275125D02*
X58146961Y-67322744D01*
X58146961Y-67322744D02*
X58242200Y-67417982D01*
X58242200Y-67417982D02*
X58289819Y-67560839D01*
X58289819Y-67560839D02*
X58289819Y-67798934D01*
X58004104Y-66846553D02*
X58004104Y-66370363D01*
X58289819Y-66941791D02*
X57289819Y-66608458D01*
X57289819Y-66608458D02*
X58289819Y-66275125D01*
X119716779Y-97278866D02*
X120478684Y-97278866D01*
X120097731Y-97659819D02*
X120097731Y-96897914D01*
X138677255Y-49469819D02*
X138867731Y-49469819D01*
X138867731Y-49469819D02*
X138962969Y-49517438D01*
X138962969Y-49517438D02*
X139058207Y-49612676D01*
X139058207Y-49612676D02*
X139105826Y-49803152D01*
X139105826Y-49803152D02*
X139105826Y-50136485D01*
X139105826Y-50136485D02*
X139058207Y-50326961D01*
X139058207Y-50326961D02*
X138962969Y-50422200D01*
X138962969Y-50422200D02*
X138867731Y-50469819D01*
X138867731Y-50469819D02*
X138677255Y-50469819D01*
X138677255Y-50469819D02*
X138582017Y-50422200D01*
X138582017Y-50422200D02*
X138486779Y-50326961D01*
X138486779Y-50326961D02*
X138439160Y-50136485D01*
X138439160Y-50136485D02*
X138439160Y-49803152D01*
X138439160Y-49803152D02*
X138486779Y-49612676D01*
X138486779Y-49612676D02*
X138582017Y-49517438D01*
X138582017Y-49517438D02*
X138677255Y-49469819D01*
X139534398Y-49469819D02*
X139534398Y-50279342D01*
X139534398Y-50279342D02*
X139582017Y-50374580D01*
X139582017Y-50374580D02*
X139629636Y-50422200D01*
X139629636Y-50422200D02*
X139724874Y-50469819D01*
X139724874Y-50469819D02*
X139915350Y-50469819D01*
X139915350Y-50469819D02*
X140010588Y-50422200D01*
X140010588Y-50422200D02*
X140058207Y-50374580D01*
X140058207Y-50374580D02*
X140105826Y-50279342D01*
X140105826Y-50279342D02*
X140105826Y-49469819D01*
X140439160Y-49469819D02*
X141010588Y-49469819D01*
X140724874Y-50469819D02*
X140724874Y-49469819D01*
X141343922Y-50088866D02*
X142105827Y-50088866D01*
X51089160Y-77292200D02*
X51232017Y-77339819D01*
X51232017Y-77339819D02*
X51470112Y-77339819D01*
X51470112Y-77339819D02*
X51565350Y-77292200D01*
X51565350Y-77292200D02*
X51612969Y-77244580D01*
X51612969Y-77244580D02*
X51660588Y-77149342D01*
X51660588Y-77149342D02*
X51660588Y-77054104D01*
X51660588Y-77054104D02*
X51612969Y-76958866D01*
X51612969Y-76958866D02*
X51565350Y-76911247D01*
X51565350Y-76911247D02*
X51470112Y-76863628D01*
X51470112Y-76863628D02*
X51279636Y-76816009D01*
X51279636Y-76816009D02*
X51184398Y-76768390D01*
X51184398Y-76768390D02*
X51136779Y-76720771D01*
X51136779Y-76720771D02*
X51089160Y-76625533D01*
X51089160Y-76625533D02*
X51089160Y-76530295D01*
X51089160Y-76530295D02*
X51136779Y-76435057D01*
X51136779Y-76435057D02*
X51184398Y-76387438D01*
X51184398Y-76387438D02*
X51279636Y-76339819D01*
X51279636Y-76339819D02*
X51517731Y-76339819D01*
X51517731Y-76339819D02*
X51660588Y-76387438D01*
X52660588Y-77244580D02*
X52612969Y-77292200D01*
X52612969Y-77292200D02*
X52470112Y-77339819D01*
X52470112Y-77339819D02*
X52374874Y-77339819D01*
X52374874Y-77339819D02*
X52232017Y-77292200D01*
X52232017Y-77292200D02*
X52136779Y-77196961D01*
X52136779Y-77196961D02*
X52089160Y-77101723D01*
X52089160Y-77101723D02*
X52041541Y-76911247D01*
X52041541Y-76911247D02*
X52041541Y-76768390D01*
X52041541Y-76768390D02*
X52089160Y-76577914D01*
X52089160Y-76577914D02*
X52136779Y-76482676D01*
X52136779Y-76482676D02*
X52232017Y-76387438D01*
X52232017Y-76387438D02*
X52374874Y-76339819D01*
X52374874Y-76339819D02*
X52470112Y-76339819D01*
X52470112Y-76339819D02*
X52612969Y-76387438D01*
X52612969Y-76387438D02*
X52660588Y-76435057D01*
X53565350Y-77339819D02*
X53089160Y-77339819D01*
X53089160Y-77339819D02*
X53089160Y-76339819D01*
X145116779Y-46478866D02*
X145878684Y-46478866D01*
X145497731Y-46859819D02*
X145497731Y-46097914D01*
X81616779Y-129028866D02*
X82378684Y-129028866D01*
X81997731Y-129409819D02*
X81997731Y-128647914D01*
X37690588Y-76387438D02*
X37595350Y-76339819D01*
X37595350Y-76339819D02*
X37452493Y-76339819D01*
X37452493Y-76339819D02*
X37309636Y-76387438D01*
X37309636Y-76387438D02*
X37214398Y-76482676D01*
X37214398Y-76482676D02*
X37166779Y-76577914D01*
X37166779Y-76577914D02*
X37119160Y-76768390D01*
X37119160Y-76768390D02*
X37119160Y-76911247D01*
X37119160Y-76911247D02*
X37166779Y-77101723D01*
X37166779Y-77101723D02*
X37214398Y-77196961D01*
X37214398Y-77196961D02*
X37309636Y-77292200D01*
X37309636Y-77292200D02*
X37452493Y-77339819D01*
X37452493Y-77339819D02*
X37547731Y-77339819D01*
X37547731Y-77339819D02*
X37690588Y-77292200D01*
X37690588Y-77292200D02*
X37738207Y-77244580D01*
X37738207Y-77244580D02*
X37738207Y-76911247D01*
X37738207Y-76911247D02*
X37547731Y-76911247D01*
X38166779Y-77339819D02*
X38166779Y-76339819D01*
X38166779Y-76339819D02*
X38738207Y-77339819D01*
X38738207Y-77339819D02*
X38738207Y-76339819D01*
X39214398Y-77339819D02*
X39214398Y-76339819D01*
X39214398Y-76339819D02*
X39452493Y-76339819D01*
X39452493Y-76339819D02*
X39595350Y-76387438D01*
X39595350Y-76387438D02*
X39690588Y-76482676D01*
X39690588Y-76482676D02*
X39738207Y-76577914D01*
X39738207Y-76577914D02*
X39785826Y-76768390D01*
X39785826Y-76768390D02*
X39785826Y-76911247D01*
X39785826Y-76911247D02*
X39738207Y-77101723D01*
X39738207Y-77101723D02*
X39690588Y-77196961D01*
X39690588Y-77196961D02*
X39595350Y-77292200D01*
X39595350Y-77292200D02*
X39452493Y-77339819D01*
X39452493Y-77339819D02*
X39214398Y-77339819D01*
X80251541Y-101739819D02*
X80870588Y-101739819D01*
X80870588Y-101739819D02*
X80537255Y-102120771D01*
X80537255Y-102120771D02*
X80680112Y-102120771D01*
X80680112Y-102120771D02*
X80775350Y-102168390D01*
X80775350Y-102168390D02*
X80822969Y-102216009D01*
X80822969Y-102216009D02*
X80870588Y-102311247D01*
X80870588Y-102311247D02*
X80870588Y-102549342D01*
X80870588Y-102549342D02*
X80822969Y-102644580D01*
X80822969Y-102644580D02*
X80775350Y-102692200D01*
X80775350Y-102692200D02*
X80680112Y-102739819D01*
X80680112Y-102739819D02*
X80394398Y-102739819D01*
X80394398Y-102739819D02*
X80299160Y-102692200D01*
X80299160Y-102692200D02*
X80251541Y-102644580D01*
X81299160Y-102644580D02*
X81346779Y-102692200D01*
X81346779Y-102692200D02*
X81299160Y-102739819D01*
X81299160Y-102739819D02*
X81251541Y-102692200D01*
X81251541Y-102692200D02*
X81299160Y-102644580D01*
X81299160Y-102644580D02*
X81299160Y-102739819D01*
X81680112Y-101739819D02*
X82299159Y-101739819D01*
X82299159Y-101739819D02*
X81965826Y-102120771D01*
X81965826Y-102120771D02*
X82108683Y-102120771D01*
X82108683Y-102120771D02*
X82203921Y-102168390D01*
X82203921Y-102168390D02*
X82251540Y-102216009D01*
X82251540Y-102216009D02*
X82299159Y-102311247D01*
X82299159Y-102311247D02*
X82299159Y-102549342D01*
X82299159Y-102549342D02*
X82251540Y-102644580D01*
X82251540Y-102644580D02*
X82203921Y-102692200D01*
X82203921Y-102692200D02*
X82108683Y-102739819D01*
X82108683Y-102739819D02*
X81822969Y-102739819D01*
X81822969Y-102739819D02*
X81727731Y-102692200D01*
X81727731Y-102692200D02*
X81680112Y-102644580D01*
X82584874Y-101739819D02*
X82918207Y-102739819D01*
X82918207Y-102739819D02*
X83251540Y-101739819D01*
D12*
X126849524Y-36527419D02*
X127420952Y-36527419D01*
X127135238Y-37527419D02*
X127135238Y-36527419D01*
X127754286Y-37527419D02*
X127754286Y-36527419D01*
X127754286Y-36527419D02*
X128135238Y-36527419D01*
X128135238Y-36527419D02*
X128230476Y-36575038D01*
X128230476Y-36575038D02*
X128278095Y-36622657D01*
X128278095Y-36622657D02*
X128325714Y-36717895D01*
X128325714Y-36717895D02*
X128325714Y-36860752D01*
X128325714Y-36860752D02*
X128278095Y-36955990D01*
X128278095Y-36955990D02*
X128230476Y-37003609D01*
X128230476Y-37003609D02*
X128135238Y-37051228D01*
X128135238Y-37051228D02*
X127754286Y-37051228D01*
X129182857Y-36860752D02*
X129182857Y-37527419D01*
X128944762Y-36479800D02*
X128706667Y-37194085D01*
X128706667Y-37194085D02*
X129325714Y-37194085D01*
X129897143Y-36527419D02*
X129992381Y-36527419D01*
X129992381Y-36527419D02*
X130087619Y-36575038D01*
X130087619Y-36575038D02*
X130135238Y-36622657D01*
X130135238Y-36622657D02*
X130182857Y-36717895D01*
X130182857Y-36717895D02*
X130230476Y-36908371D01*
X130230476Y-36908371D02*
X130230476Y-37146466D01*
X130230476Y-37146466D02*
X130182857Y-37336942D01*
X130182857Y-37336942D02*
X130135238Y-37432180D01*
X130135238Y-37432180D02*
X130087619Y-37479800D01*
X130087619Y-37479800D02*
X129992381Y-37527419D01*
X129992381Y-37527419D02*
X129897143Y-37527419D01*
X129897143Y-37527419D02*
X129801905Y-37479800D01*
X129801905Y-37479800D02*
X129754286Y-37432180D01*
X129754286Y-37432180D02*
X129706667Y-37336942D01*
X129706667Y-37336942D02*
X129659048Y-37146466D01*
X129659048Y-37146466D02*
X129659048Y-36908371D01*
X129659048Y-36908371D02*
X129706667Y-36717895D01*
X129706667Y-36717895D02*
X129754286Y-36622657D01*
X129754286Y-36622657D02*
X129801905Y-36575038D01*
X129801905Y-36575038D02*
X129897143Y-36527419D01*
X131135238Y-36527419D02*
X130659048Y-36527419D01*
X130659048Y-36527419D02*
X130611429Y-37003609D01*
X130611429Y-37003609D02*
X130659048Y-36955990D01*
X130659048Y-36955990D02*
X130754286Y-36908371D01*
X130754286Y-36908371D02*
X130992381Y-36908371D01*
X130992381Y-36908371D02*
X131087619Y-36955990D01*
X131087619Y-36955990D02*
X131135238Y-37003609D01*
X131135238Y-37003609D02*
X131182857Y-37098847D01*
X131182857Y-37098847D02*
X131182857Y-37336942D01*
X131182857Y-37336942D02*
X131135238Y-37432180D01*
X131135238Y-37432180D02*
X131087619Y-37479800D01*
X131087619Y-37479800D02*
X130992381Y-37527419D01*
X130992381Y-37527419D02*
X130754286Y-37527419D01*
X130754286Y-37527419D02*
X130659048Y-37479800D01*
X130659048Y-37479800D02*
X130611429Y-37432180D01*
X131516191Y-36527419D02*
X132182857Y-36527419D01*
X132182857Y-36527419D02*
X131754286Y-37527419D01*
D11*
X52304819Y-100688094D02*
X51304819Y-100688094D01*
X51304819Y-100688094D02*
X51304819Y-100449999D01*
X51304819Y-100449999D02*
X51352438Y-100307142D01*
X51352438Y-100307142D02*
X51447676Y-100211904D01*
X51447676Y-100211904D02*
X51542914Y-100164285D01*
X51542914Y-100164285D02*
X51733390Y-100116666D01*
X51733390Y-100116666D02*
X51876247Y-100116666D01*
X51876247Y-100116666D02*
X52066723Y-100164285D01*
X52066723Y-100164285D02*
X52161961Y-100211904D01*
X52161961Y-100211904D02*
X52257200Y-100307142D01*
X52257200Y-100307142D02*
X52304819Y-100449999D01*
X52304819Y-100449999D02*
X52304819Y-100688094D01*
X51400057Y-99735713D02*
X51352438Y-99688094D01*
X51352438Y-99688094D02*
X51304819Y-99592856D01*
X51304819Y-99592856D02*
X51304819Y-99354761D01*
X51304819Y-99354761D02*
X51352438Y-99259523D01*
X51352438Y-99259523D02*
X51400057Y-99211904D01*
X51400057Y-99211904D02*
X51495295Y-99164285D01*
X51495295Y-99164285D02*
X51590533Y-99164285D01*
X51590533Y-99164285D02*
X51733390Y-99211904D01*
X51733390Y-99211904D02*
X52304819Y-99783332D01*
X52304819Y-99783332D02*
X52304819Y-99164285D01*
X50404819Y-95514285D02*
X50404819Y-96085713D01*
X50404819Y-95799999D02*
X49404819Y-95799999D01*
X49404819Y-95799999D02*
X49547676Y-95895237D01*
X49547676Y-95895237D02*
X49642914Y-95990475D01*
X49642914Y-95990475D02*
X49690533Y-96085713D01*
X85711905Y-128654819D02*
X85711905Y-127654819D01*
X85711905Y-127654819D02*
X85950000Y-127654819D01*
X85950000Y-127654819D02*
X86092857Y-127702438D01*
X86092857Y-127702438D02*
X86188095Y-127797676D01*
X86188095Y-127797676D02*
X86235714Y-127892914D01*
X86235714Y-127892914D02*
X86283333Y-128083390D01*
X86283333Y-128083390D02*
X86283333Y-128226247D01*
X86283333Y-128226247D02*
X86235714Y-128416723D01*
X86235714Y-128416723D02*
X86188095Y-128511961D01*
X86188095Y-128511961D02*
X86092857Y-128607200D01*
X86092857Y-128607200D02*
X85950000Y-128654819D01*
X85950000Y-128654819D02*
X85711905Y-128654819D01*
X87235714Y-128654819D02*
X86664286Y-128654819D01*
X86950000Y-128654819D02*
X86950000Y-127654819D01*
X86950000Y-127654819D02*
X86854762Y-127797676D01*
X86854762Y-127797676D02*
X86759524Y-127892914D01*
X86759524Y-127892914D02*
X86664286Y-127940533D01*
X82585714Y-130554819D02*
X82014286Y-130554819D01*
X82300000Y-130554819D02*
X82300000Y-129554819D01*
X82300000Y-129554819D02*
X82204762Y-129697676D01*
X82204762Y-129697676D02*
X82109524Y-129792914D01*
X82109524Y-129792914D02*
X82014286Y-129840533D01*
X85711905Y-57294819D02*
X85711905Y-56294819D01*
X85711905Y-56294819D02*
X85950000Y-56294819D01*
X85950000Y-56294819D02*
X86092857Y-56342438D01*
X86092857Y-56342438D02*
X86188095Y-56437676D01*
X86188095Y-56437676D02*
X86235714Y-56532914D01*
X86235714Y-56532914D02*
X86283333Y-56723390D01*
X86283333Y-56723390D02*
X86283333Y-56866247D01*
X86283333Y-56866247D02*
X86235714Y-57056723D01*
X86235714Y-57056723D02*
X86188095Y-57151961D01*
X86188095Y-57151961D02*
X86092857Y-57247200D01*
X86092857Y-57247200D02*
X85950000Y-57294819D01*
X85950000Y-57294819D02*
X85711905Y-57294819D01*
X87188095Y-56294819D02*
X86711905Y-56294819D01*
X86711905Y-56294819D02*
X86664286Y-56771009D01*
X86664286Y-56771009D02*
X86711905Y-56723390D01*
X86711905Y-56723390D02*
X86807143Y-56675771D01*
X86807143Y-56675771D02*
X87045238Y-56675771D01*
X87045238Y-56675771D02*
X87140476Y-56723390D01*
X87140476Y-56723390D02*
X87188095Y-56771009D01*
X87188095Y-56771009D02*
X87235714Y-56866247D01*
X87235714Y-56866247D02*
X87235714Y-57104342D01*
X87235714Y-57104342D02*
X87188095Y-57199580D01*
X87188095Y-57199580D02*
X87140476Y-57247200D01*
X87140476Y-57247200D02*
X87045238Y-57294819D01*
X87045238Y-57294819D02*
X86807143Y-57294819D01*
X86807143Y-57294819D02*
X86711905Y-57247200D01*
X86711905Y-57247200D02*
X86664286Y-57199580D01*
X90885714Y-55394819D02*
X90314286Y-55394819D01*
X90600000Y-55394819D02*
X90600000Y-54394819D01*
X90600000Y-54394819D02*
X90504762Y-54537676D01*
X90504762Y-54537676D02*
X90409524Y-54632914D01*
X90409524Y-54632914D02*
X90314286Y-54680533D01*
X123811905Y-96904819D02*
X123811905Y-95904819D01*
X123811905Y-95904819D02*
X124050000Y-95904819D01*
X124050000Y-95904819D02*
X124192857Y-95952438D01*
X124192857Y-95952438D02*
X124288095Y-96047676D01*
X124288095Y-96047676D02*
X124335714Y-96142914D01*
X124335714Y-96142914D02*
X124383333Y-96333390D01*
X124383333Y-96333390D02*
X124383333Y-96476247D01*
X124383333Y-96476247D02*
X124335714Y-96666723D01*
X124335714Y-96666723D02*
X124288095Y-96761961D01*
X124288095Y-96761961D02*
X124192857Y-96857200D01*
X124192857Y-96857200D02*
X124050000Y-96904819D01*
X124050000Y-96904819D02*
X123811905Y-96904819D01*
X124954762Y-96333390D02*
X124859524Y-96285771D01*
X124859524Y-96285771D02*
X124811905Y-96238152D01*
X124811905Y-96238152D02*
X124764286Y-96142914D01*
X124764286Y-96142914D02*
X124764286Y-96095295D01*
X124764286Y-96095295D02*
X124811905Y-96000057D01*
X124811905Y-96000057D02*
X124859524Y-95952438D01*
X124859524Y-95952438D02*
X124954762Y-95904819D01*
X124954762Y-95904819D02*
X125145238Y-95904819D01*
X125145238Y-95904819D02*
X125240476Y-95952438D01*
X125240476Y-95952438D02*
X125288095Y-96000057D01*
X125288095Y-96000057D02*
X125335714Y-96095295D01*
X125335714Y-96095295D02*
X125335714Y-96142914D01*
X125335714Y-96142914D02*
X125288095Y-96238152D01*
X125288095Y-96238152D02*
X125240476Y-96285771D01*
X125240476Y-96285771D02*
X125145238Y-96333390D01*
X125145238Y-96333390D02*
X124954762Y-96333390D01*
X124954762Y-96333390D02*
X124859524Y-96381009D01*
X124859524Y-96381009D02*
X124811905Y-96428628D01*
X124811905Y-96428628D02*
X124764286Y-96523866D01*
X124764286Y-96523866D02*
X124764286Y-96714342D01*
X124764286Y-96714342D02*
X124811905Y-96809580D01*
X124811905Y-96809580D02*
X124859524Y-96857200D01*
X124859524Y-96857200D02*
X124954762Y-96904819D01*
X124954762Y-96904819D02*
X125145238Y-96904819D01*
X125145238Y-96904819D02*
X125240476Y-96857200D01*
X125240476Y-96857200D02*
X125288095Y-96809580D01*
X125288095Y-96809580D02*
X125335714Y-96714342D01*
X125335714Y-96714342D02*
X125335714Y-96523866D01*
X125335714Y-96523866D02*
X125288095Y-96428628D01*
X125288095Y-96428628D02*
X125240476Y-96381009D01*
X125240476Y-96381009D02*
X125145238Y-96333390D01*
X120685714Y-98804819D02*
X120114286Y-98804819D01*
X120400000Y-98804819D02*
X120400000Y-97804819D01*
X120400000Y-97804819D02*
X120304762Y-97947676D01*
X120304762Y-97947676D02*
X120209524Y-98042914D01*
X120209524Y-98042914D02*
X120114286Y-98090533D01*
X37284819Y-55824285D02*
X36284819Y-55824285D01*
X36284819Y-55824285D02*
X36284819Y-55586190D01*
X36284819Y-55586190D02*
X36332438Y-55443333D01*
X36332438Y-55443333D02*
X36427676Y-55348095D01*
X36427676Y-55348095D02*
X36522914Y-55300476D01*
X36522914Y-55300476D02*
X36713390Y-55252857D01*
X36713390Y-55252857D02*
X36856247Y-55252857D01*
X36856247Y-55252857D02*
X37046723Y-55300476D01*
X37046723Y-55300476D02*
X37141961Y-55348095D01*
X37141961Y-55348095D02*
X37237200Y-55443333D01*
X37237200Y-55443333D02*
X37284819Y-55586190D01*
X37284819Y-55586190D02*
X37284819Y-55824285D01*
X37237200Y-54871904D02*
X37284819Y-54729047D01*
X37284819Y-54729047D02*
X37284819Y-54490952D01*
X37284819Y-54490952D02*
X37237200Y-54395714D01*
X37237200Y-54395714D02*
X37189580Y-54348095D01*
X37189580Y-54348095D02*
X37094342Y-54300476D01*
X37094342Y-54300476D02*
X36999104Y-54300476D01*
X36999104Y-54300476D02*
X36903866Y-54348095D01*
X36903866Y-54348095D02*
X36856247Y-54395714D01*
X36856247Y-54395714D02*
X36808628Y-54490952D01*
X36808628Y-54490952D02*
X36761009Y-54681428D01*
X36761009Y-54681428D02*
X36713390Y-54776666D01*
X36713390Y-54776666D02*
X36665771Y-54824285D01*
X36665771Y-54824285D02*
X36570533Y-54871904D01*
X36570533Y-54871904D02*
X36475295Y-54871904D01*
X36475295Y-54871904D02*
X36380057Y-54824285D01*
X36380057Y-54824285D02*
X36332438Y-54776666D01*
X36332438Y-54776666D02*
X36284819Y-54681428D01*
X36284819Y-54681428D02*
X36284819Y-54443333D01*
X36284819Y-54443333D02*
X36332438Y-54300476D01*
X37284819Y-53348095D02*
X37284819Y-53919523D01*
X37284819Y-53633809D02*
X36284819Y-53633809D01*
X36284819Y-53633809D02*
X36427676Y-53729047D01*
X36427676Y-53729047D02*
X36522914Y-53824285D01*
X36522914Y-53824285D02*
X36570533Y-53919523D01*
X72162319Y-120776904D02*
X72971842Y-120776904D01*
X72971842Y-120776904D02*
X73067080Y-120729285D01*
X73067080Y-120729285D02*
X73114700Y-120681666D01*
X73114700Y-120681666D02*
X73162319Y-120586428D01*
X73162319Y-120586428D02*
X73162319Y-120395952D01*
X73162319Y-120395952D02*
X73114700Y-120300714D01*
X73114700Y-120300714D02*
X73067080Y-120253095D01*
X73067080Y-120253095D02*
X72971842Y-120205476D01*
X72971842Y-120205476D02*
X72162319Y-120205476D01*
X72257557Y-119776904D02*
X72209938Y-119729285D01*
X72209938Y-119729285D02*
X72162319Y-119634047D01*
X72162319Y-119634047D02*
X72162319Y-119395952D01*
X72162319Y-119395952D02*
X72209938Y-119300714D01*
X72209938Y-119300714D02*
X72257557Y-119253095D01*
X72257557Y-119253095D02*
X72352795Y-119205476D01*
X72352795Y-119205476D02*
X72448033Y-119205476D01*
X72448033Y-119205476D02*
X72590890Y-119253095D01*
X72590890Y-119253095D02*
X73162319Y-119824523D01*
X73162319Y-119824523D02*
X73162319Y-119205476D01*
X22211905Y-53104819D02*
X22211905Y-52104819D01*
X22211905Y-52104819D02*
X22450000Y-52104819D01*
X22450000Y-52104819D02*
X22592857Y-52152438D01*
X22592857Y-52152438D02*
X22688095Y-52247676D01*
X22688095Y-52247676D02*
X22735714Y-52342914D01*
X22735714Y-52342914D02*
X22783333Y-52533390D01*
X22783333Y-52533390D02*
X22783333Y-52676247D01*
X22783333Y-52676247D02*
X22735714Y-52866723D01*
X22735714Y-52866723D02*
X22688095Y-52961961D01*
X22688095Y-52961961D02*
X22592857Y-53057200D01*
X22592857Y-53057200D02*
X22450000Y-53104819D01*
X22450000Y-53104819D02*
X22211905Y-53104819D01*
X23116667Y-52104819D02*
X23735714Y-52104819D01*
X23735714Y-52104819D02*
X23402381Y-52485771D01*
X23402381Y-52485771D02*
X23545238Y-52485771D01*
X23545238Y-52485771D02*
X23640476Y-52533390D01*
X23640476Y-52533390D02*
X23688095Y-52581009D01*
X23688095Y-52581009D02*
X23735714Y-52676247D01*
X23735714Y-52676247D02*
X23735714Y-52914342D01*
X23735714Y-52914342D02*
X23688095Y-53009580D01*
X23688095Y-53009580D02*
X23640476Y-53057200D01*
X23640476Y-53057200D02*
X23545238Y-53104819D01*
X23545238Y-53104819D02*
X23259524Y-53104819D01*
X23259524Y-53104819D02*
X23164286Y-53057200D01*
X23164286Y-53057200D02*
X23116667Y-53009580D01*
X27385714Y-51204819D02*
X26814286Y-51204819D01*
X27100000Y-51204819D02*
X27100000Y-50204819D01*
X27100000Y-50204819D02*
X27004762Y-50347676D01*
X27004762Y-50347676D02*
X26909524Y-50442914D01*
X26909524Y-50442914D02*
X26814286Y-50490533D01*
X149211905Y-46104819D02*
X149211905Y-45104819D01*
X149211905Y-45104819D02*
X149450000Y-45104819D01*
X149450000Y-45104819D02*
X149592857Y-45152438D01*
X149592857Y-45152438D02*
X149688095Y-45247676D01*
X149688095Y-45247676D02*
X149735714Y-45342914D01*
X149735714Y-45342914D02*
X149783333Y-45533390D01*
X149783333Y-45533390D02*
X149783333Y-45676247D01*
X149783333Y-45676247D02*
X149735714Y-45866723D01*
X149735714Y-45866723D02*
X149688095Y-45961961D01*
X149688095Y-45961961D02*
X149592857Y-46057200D01*
X149592857Y-46057200D02*
X149450000Y-46104819D01*
X149450000Y-46104819D02*
X149211905Y-46104819D01*
X150116667Y-45104819D02*
X150783333Y-45104819D01*
X150783333Y-45104819D02*
X150354762Y-46104819D01*
X146085714Y-48004819D02*
X145514286Y-48004819D01*
X145800000Y-48004819D02*
X145800000Y-47004819D01*
X145800000Y-47004819D02*
X145704762Y-47147676D01*
X145704762Y-47147676D02*
X145609524Y-47242914D01*
X145609524Y-47242914D02*
X145514286Y-47290533D01*
X47611905Y-27304819D02*
X47611905Y-26304819D01*
X47611905Y-26304819D02*
X47850000Y-26304819D01*
X47850000Y-26304819D02*
X47992857Y-26352438D01*
X47992857Y-26352438D02*
X48088095Y-26447676D01*
X48088095Y-26447676D02*
X48135714Y-26542914D01*
X48135714Y-26542914D02*
X48183333Y-26733390D01*
X48183333Y-26733390D02*
X48183333Y-26876247D01*
X48183333Y-26876247D02*
X48135714Y-27066723D01*
X48135714Y-27066723D02*
X48088095Y-27161961D01*
X48088095Y-27161961D02*
X47992857Y-27257200D01*
X47992857Y-27257200D02*
X47850000Y-27304819D01*
X47850000Y-27304819D02*
X47611905Y-27304819D01*
X49040476Y-26638152D02*
X49040476Y-27304819D01*
X48802381Y-26257200D02*
X48564286Y-26971485D01*
X48564286Y-26971485D02*
X49183333Y-26971485D01*
X52785714Y-25404819D02*
X52214286Y-25404819D01*
X52500000Y-25404819D02*
X52500000Y-24404819D01*
X52500000Y-24404819D02*
X52404762Y-24547676D01*
X52404762Y-24547676D02*
X52309524Y-24642914D01*
X52309524Y-24642914D02*
X52214286Y-24690533D01*
D12*
X103894761Y-45987419D02*
X103561428Y-45511228D01*
X103323333Y-45987419D02*
X103323333Y-44987419D01*
X103323333Y-44987419D02*
X103704285Y-44987419D01*
X103704285Y-44987419D02*
X103799523Y-45035038D01*
X103799523Y-45035038D02*
X103847142Y-45082657D01*
X103847142Y-45082657D02*
X103894761Y-45177895D01*
X103894761Y-45177895D02*
X103894761Y-45320752D01*
X103894761Y-45320752D02*
X103847142Y-45415990D01*
X103847142Y-45415990D02*
X103799523Y-45463609D01*
X103799523Y-45463609D02*
X103704285Y-45511228D01*
X103704285Y-45511228D02*
X103323333Y-45511228D01*
X104180476Y-44987419D02*
X104513809Y-45987419D01*
X104513809Y-45987419D02*
X104847142Y-44987419D01*
X105704285Y-45987419D02*
X105132857Y-45987419D01*
X105418571Y-45987419D02*
X105418571Y-44987419D01*
X105418571Y-44987419D02*
X105323333Y-45130276D01*
X105323333Y-45130276D02*
X105228095Y-45225514D01*
X105228095Y-45225514D02*
X105132857Y-45273133D01*
D11*
X123811905Y-27704819D02*
X123811905Y-26704819D01*
X123811905Y-26704819D02*
X124050000Y-26704819D01*
X124050000Y-26704819D02*
X124192857Y-26752438D01*
X124192857Y-26752438D02*
X124288095Y-26847676D01*
X124288095Y-26847676D02*
X124335714Y-26942914D01*
X124335714Y-26942914D02*
X124383333Y-27133390D01*
X124383333Y-27133390D02*
X124383333Y-27276247D01*
X124383333Y-27276247D02*
X124335714Y-27466723D01*
X124335714Y-27466723D02*
X124288095Y-27561961D01*
X124288095Y-27561961D02*
X124192857Y-27657200D01*
X124192857Y-27657200D02*
X124050000Y-27704819D01*
X124050000Y-27704819D02*
X123811905Y-27704819D01*
X125240476Y-26704819D02*
X125050000Y-26704819D01*
X125050000Y-26704819D02*
X124954762Y-26752438D01*
X124954762Y-26752438D02*
X124907143Y-26800057D01*
X124907143Y-26800057D02*
X124811905Y-26942914D01*
X124811905Y-26942914D02*
X124764286Y-27133390D01*
X124764286Y-27133390D02*
X124764286Y-27514342D01*
X124764286Y-27514342D02*
X124811905Y-27609580D01*
X124811905Y-27609580D02*
X124859524Y-27657200D01*
X124859524Y-27657200D02*
X124954762Y-27704819D01*
X124954762Y-27704819D02*
X125145238Y-27704819D01*
X125145238Y-27704819D02*
X125240476Y-27657200D01*
X125240476Y-27657200D02*
X125288095Y-27609580D01*
X125288095Y-27609580D02*
X125335714Y-27514342D01*
X125335714Y-27514342D02*
X125335714Y-27276247D01*
X125335714Y-27276247D02*
X125288095Y-27181009D01*
X125288095Y-27181009D02*
X125240476Y-27133390D01*
X125240476Y-27133390D02*
X125145238Y-27085771D01*
X125145238Y-27085771D02*
X124954762Y-27085771D01*
X124954762Y-27085771D02*
X124859524Y-27133390D01*
X124859524Y-27133390D02*
X124811905Y-27181009D01*
X124811905Y-27181009D02*
X124764286Y-27276247D01*
X128985714Y-25804819D02*
X128414286Y-25804819D01*
X128700000Y-25804819D02*
X128700000Y-24804819D01*
X128700000Y-24804819D02*
X128604762Y-24947676D01*
X128604762Y-24947676D02*
X128509524Y-25042914D01*
X128509524Y-25042914D02*
X128414286Y-25090533D01*
D12*
X140038661Y-66048095D02*
X139991041Y-66190952D01*
X139991041Y-66190952D02*
X139991041Y-66429047D01*
X139991041Y-66429047D02*
X140038661Y-66524285D01*
X140038661Y-66524285D02*
X140086280Y-66571904D01*
X140086280Y-66571904D02*
X140181518Y-66619523D01*
X140181518Y-66619523D02*
X140276756Y-66619523D01*
X140276756Y-66619523D02*
X140371994Y-66571904D01*
X140371994Y-66571904D02*
X140419613Y-66524285D01*
X140419613Y-66524285D02*
X140467232Y-66429047D01*
X140467232Y-66429047D02*
X140514851Y-66238571D01*
X140514851Y-66238571D02*
X140562470Y-66143333D01*
X140562470Y-66143333D02*
X140610089Y-66095714D01*
X140610089Y-66095714D02*
X140705327Y-66048095D01*
X140705327Y-66048095D02*
X140800565Y-66048095D01*
X140800565Y-66048095D02*
X140895803Y-66095714D01*
X140895803Y-66095714D02*
X140943422Y-66143333D01*
X140943422Y-66143333D02*
X140991041Y-66238571D01*
X140991041Y-66238571D02*
X140991041Y-66476666D01*
X140991041Y-66476666D02*
X140943422Y-66619523D01*
X139991041Y-67048095D02*
X140991041Y-67048095D01*
X140991041Y-67048095D02*
X140991041Y-67286190D01*
X140991041Y-67286190D02*
X140943422Y-67429047D01*
X140943422Y-67429047D02*
X140848184Y-67524285D01*
X140848184Y-67524285D02*
X140752946Y-67571904D01*
X140752946Y-67571904D02*
X140562470Y-67619523D01*
X140562470Y-67619523D02*
X140419613Y-67619523D01*
X140419613Y-67619523D02*
X140229137Y-67571904D01*
X140229137Y-67571904D02*
X140133899Y-67524285D01*
X140133899Y-67524285D02*
X140038661Y-67429047D01*
X140038661Y-67429047D02*
X139991041Y-67286190D01*
X139991041Y-67286190D02*
X139991041Y-67048095D01*
X139991041Y-68571904D02*
X139991041Y-68000476D01*
X139991041Y-68286190D02*
X140991041Y-68286190D01*
X140991041Y-68286190D02*
X140848184Y-68190952D01*
X140848184Y-68190952D02*
X140752946Y-68095714D01*
X140752946Y-68095714D02*
X140705327Y-68000476D01*
X57347415Y-77771443D02*
X57347415Y-77200015D01*
X58347415Y-77485729D02*
X57347415Y-77485729D01*
X57823605Y-76533348D02*
X57823605Y-76866681D01*
X58347415Y-76866681D02*
X57347415Y-76866681D01*
X57347415Y-76866681D02*
X57347415Y-76390491D01*
X57347415Y-76152395D02*
X57347415Y-75580967D01*
X58347415Y-75866681D02*
X57347415Y-75866681D01*
X58347415Y-74723824D02*
X58347415Y-75295252D01*
X58347415Y-75009538D02*
X57347415Y-75009538D01*
X57347415Y-75009538D02*
X57490272Y-75104776D01*
X57490272Y-75104776D02*
X57585510Y-75200014D01*
X57585510Y-75200014D02*
X57633129Y-75295252D01*
%TO.C,TP4057*%
X122160000Y-38300000D02*
X138150000Y-38300000D01*
X122160000Y-50600000D02*
X122160000Y-38300000D01*
X138150000Y-38300000D02*
X138150000Y-50600000D01*
X138150000Y-50600000D02*
X122160000Y-50600000D01*
D13*
%TO.C,D2*%
X45600000Y-96300000D02*
X45600000Y-103600000D01*
X45600000Y-103600000D02*
X46750000Y-103600000D01*
X51100000Y-96300000D02*
X51100000Y-103600000D01*
%TO.C,D1*%
X82800000Y-128950000D02*
X90100000Y-128950000D01*
X82800000Y-134450000D02*
X90100000Y-134450000D01*
X90100000Y-134450000D02*
X90100000Y-133300000D01*
%TO.C,D5*%
X82800000Y-50590000D02*
X82800000Y-51740000D01*
X90100000Y-50590000D02*
X82800000Y-50590000D01*
X90100000Y-56090000D02*
X82800000Y-56090000D01*
%TO.C,D8*%
X120900000Y-97200000D02*
X128200000Y-97200000D01*
X120900000Y-102700000D02*
X128200000Y-102700000D01*
X128200000Y-102700000D02*
X128200000Y-101550000D01*
D11*
%TO.C,DS1*%
X33020000Y-35560000D02*
X33020000Y-74930000D01*
X55880000Y-35560000D02*
X33020000Y-35560000D01*
X55880000Y-35560000D02*
X55880000Y-74930000D01*
X55880000Y-74930000D02*
X33020000Y-74930000D01*
X36195000Y-37465000D02*
G75*
G02*
X33655000Y-37465000I-1270000J0D01*
G01*
X33655000Y-37465000D02*
G75*
G02*
X36195000Y-37465000I1270000J0D01*
G01*
X40005000Y-37465000D02*
G75*
G02*
X37465000Y-37465000I-1270000J0D01*
G01*
X37465000Y-37465000D02*
G75*
G02*
X40005000Y-37465000I1270000J0D01*
G01*
X43815000Y-37465000D02*
G75*
G02*
X41275000Y-37465000I-1270000J0D01*
G01*
X41275000Y-37465000D02*
G75*
G02*
X43815000Y-37465000I1270000J0D01*
G01*
X54610000Y-54610000D02*
G75*
G02*
X34290000Y-54610000I-10160000J0D01*
G01*
X34290000Y-54610000D02*
G75*
G02*
X54610000Y-54610000I10160000J0D01*
G01*
X47625000Y-37465000D02*
G75*
G02*
X45085000Y-37465000I-1270000J0D01*
G01*
X45085000Y-37465000D02*
G75*
G02*
X47625000Y-37465000I1270000J0D01*
G01*
X51435000Y-37465000D02*
G75*
G02*
X48895000Y-37465000I-1270000J0D01*
G01*
X48895000Y-37465000D02*
G75*
G02*
X51435000Y-37465000I1270000J0D01*
G01*
X55245000Y-37465000D02*
G75*
G02*
X52705000Y-37465000I-1270000J0D01*
G01*
X52705000Y-37465000D02*
G75*
G02*
X55245000Y-37465000I1270000J0D01*
G01*
D14*
%TO.C,U2*%
X73710000Y-109800000D02*
X73710000Y-118800000D01*
X73710000Y-109800000D02*
X75010000Y-109800000D01*
X73710000Y-118800000D02*
X75010000Y-118800000D01*
X75010000Y-105300000D02*
X75010000Y-109800000D01*
X75010000Y-118800000D02*
X75010000Y-123300000D01*
X97710000Y-105300000D02*
X75010000Y-105300000D01*
X97710000Y-105300000D02*
X97710000Y-123300000D01*
X97710000Y-123300000D02*
X75010000Y-123300000D01*
D13*
%TO.C,D3*%
X19300000Y-46400000D02*
X19300000Y-47550000D01*
X26600000Y-46400000D02*
X19300000Y-46400000D01*
X26600000Y-51900000D02*
X19300000Y-51900000D01*
%TO.C,D7*%
X146300000Y-46400000D02*
X153600000Y-46400000D01*
X146300000Y-51900000D02*
X153600000Y-51900000D01*
X153600000Y-51900000D02*
X153600000Y-50750000D01*
%TO.C,D4*%
X44700000Y-20600000D02*
X44700000Y-21750000D01*
X52000000Y-20600000D02*
X44700000Y-20600000D01*
X52000000Y-26100000D02*
X44700000Y-26100000D01*
D12*
%TO.C,RV1*%
X102870000Y-46990000D02*
X118110000Y-46990000D01*
X102870000Y-52070000D02*
X102870000Y-46990000D01*
X118110000Y-46990000D02*
X118110000Y-52070000D01*
X118110000Y-52070000D02*
X102870000Y-52070000D01*
D13*
%TO.C,D6*%
X120900000Y-21000000D02*
X120900000Y-22150000D01*
X128200000Y-21000000D02*
X120900000Y-21000000D01*
X128200000Y-26500000D02*
X120900000Y-26500000D01*
D12*
%TO.C,SD1*%
X121171539Y-57671539D02*
X139071538Y-57671539D01*
X121171539Y-75571538D02*
X121171539Y-57671539D01*
X139071538Y-57671539D02*
X139071538Y-75571538D01*
X139071538Y-75571538D02*
X121171539Y-75571538D01*
X137694615Y-57671539D02*
X122548462Y-57671539D01*
X122548462Y-65933077D01*
X137694615Y-65933077D01*
X137694615Y-57671539D01*
%TO.C,TFT1*%
X59023329Y-59200005D02*
X113423337Y-59200005D01*
X59023329Y-93200010D02*
X59023329Y-59200005D01*
X113423337Y-59200005D02*
X113423337Y-93200010D01*
X113423337Y-93200010D02*
X59023329Y-93200010D01*
%TD*%
%LPC*%
D11*
X112159799Y-83272757D02*
X112159799Y-83844185D01*
X112159799Y-83558471D02*
X111159799Y-83558471D01*
X111159799Y-83558471D02*
X111302656Y-83653709D01*
X111302656Y-83653709D02*
X111397894Y-83748947D01*
X111397894Y-83748947D02*
X111445513Y-83844185D01*
X112064560Y-82844185D02*
X112112180Y-82796566D01*
X112112180Y-82796566D02*
X112159799Y-82844185D01*
X112159799Y-82844185D02*
X112112180Y-82891804D01*
X112112180Y-82891804D02*
X112064560Y-82844185D01*
X112064560Y-82844185D02*
X112159799Y-82844185D01*
X111159799Y-82463233D02*
X111159799Y-81796567D01*
X111159799Y-81796567D02*
X112159799Y-82225138D01*
X111159799Y-81510852D02*
X111159799Y-80844186D01*
X111159799Y-80844186D02*
X112159799Y-81272757D01*
X111159799Y-80510852D02*
X111350275Y-80510852D01*
X111159799Y-80129900D02*
X111350275Y-80129900D01*
X112159799Y-78415614D02*
X112159799Y-78987042D01*
X112159799Y-78701328D02*
X111159799Y-78701328D01*
X111159799Y-78701328D02*
X111302656Y-78796566D01*
X111302656Y-78796566D02*
X111397894Y-78891804D01*
X111397894Y-78891804D02*
X111445513Y-78987042D01*
X111159799Y-77558471D02*
X111159799Y-77748947D01*
X111159799Y-77748947D02*
X111207418Y-77844185D01*
X111207418Y-77844185D02*
X111255037Y-77891804D01*
X111255037Y-77891804D02*
X111397894Y-77987042D01*
X111397894Y-77987042D02*
X111588370Y-78034661D01*
X111588370Y-78034661D02*
X111969322Y-78034661D01*
X111969322Y-78034661D02*
X112064560Y-77987042D01*
X112064560Y-77987042D02*
X112112180Y-77939423D01*
X112112180Y-77939423D02*
X112159799Y-77844185D01*
X112159799Y-77844185D02*
X112159799Y-77653709D01*
X112159799Y-77653709D02*
X112112180Y-77558471D01*
X112112180Y-77558471D02*
X112064560Y-77510852D01*
X112064560Y-77510852D02*
X111969322Y-77463233D01*
X111969322Y-77463233D02*
X111731227Y-77463233D01*
X111731227Y-77463233D02*
X111635989Y-77510852D01*
X111635989Y-77510852D02*
X111588370Y-77558471D01*
X111588370Y-77558471D02*
X111540751Y-77653709D01*
X111540751Y-77653709D02*
X111540751Y-77844185D01*
X111540751Y-77844185D02*
X111588370Y-77939423D01*
X111588370Y-77939423D02*
X111635989Y-77987042D01*
X111635989Y-77987042D02*
X111731227Y-78034661D01*
X111159799Y-76844185D02*
X111159799Y-76748947D01*
X111159799Y-76748947D02*
X111207418Y-76653709D01*
X111207418Y-76653709D02*
X111255037Y-76606090D01*
X111255037Y-76606090D02*
X111350275Y-76558471D01*
X111350275Y-76558471D02*
X111540751Y-76510852D01*
X111540751Y-76510852D02*
X111778846Y-76510852D01*
X111778846Y-76510852D02*
X111969322Y-76558471D01*
X111969322Y-76558471D02*
X112064560Y-76606090D01*
X112064560Y-76606090D02*
X112112180Y-76653709D01*
X112112180Y-76653709D02*
X112159799Y-76748947D01*
X112159799Y-76748947D02*
X112159799Y-76844185D01*
X112159799Y-76844185D02*
X112112180Y-76939423D01*
X112112180Y-76939423D02*
X112064560Y-76987042D01*
X112064560Y-76987042D02*
X111969322Y-77034661D01*
X111969322Y-77034661D02*
X111778846Y-77082280D01*
X111778846Y-77082280D02*
X111540751Y-77082280D01*
X111540751Y-77082280D02*
X111350275Y-77034661D01*
X111350275Y-77034661D02*
X111255037Y-76987042D01*
X111255037Y-76987042D02*
X111207418Y-76939423D01*
X111207418Y-76939423D02*
X111159799Y-76844185D01*
X112540751Y-75796566D02*
X112493132Y-75844185D01*
X112493132Y-75844185D02*
X112350275Y-75939423D01*
X112350275Y-75939423D02*
X112255037Y-75987042D01*
X112255037Y-75987042D02*
X112112180Y-76034661D01*
X112112180Y-76034661D02*
X111874084Y-76082280D01*
X111874084Y-76082280D02*
X111683608Y-76082280D01*
X111683608Y-76082280D02*
X111445513Y-76034661D01*
X111445513Y-76034661D02*
X111302656Y-75987042D01*
X111302656Y-75987042D02*
X111207418Y-75939423D01*
X111207418Y-75939423D02*
X111064560Y-75844185D01*
X111064560Y-75844185D02*
X111016941Y-75796566D01*
X112159799Y-74844185D02*
X111683608Y-75177518D01*
X112159799Y-75415613D02*
X111159799Y-75415613D01*
X111159799Y-75415613D02*
X111159799Y-75034661D01*
X111159799Y-75034661D02*
X111207418Y-74939423D01*
X111207418Y-74939423D02*
X111255037Y-74891804D01*
X111255037Y-74891804D02*
X111350275Y-74844185D01*
X111350275Y-74844185D02*
X111493132Y-74844185D01*
X111493132Y-74844185D02*
X111588370Y-74891804D01*
X111588370Y-74891804D02*
X111635989Y-74939423D01*
X111635989Y-74939423D02*
X111683608Y-75034661D01*
X111683608Y-75034661D02*
X111683608Y-75415613D01*
X111207418Y-73891804D02*
X111159799Y-73987042D01*
X111159799Y-73987042D02*
X111159799Y-74129899D01*
X111159799Y-74129899D02*
X111207418Y-74272756D01*
X111207418Y-74272756D02*
X111302656Y-74367994D01*
X111302656Y-74367994D02*
X111397894Y-74415613D01*
X111397894Y-74415613D02*
X111588370Y-74463232D01*
X111588370Y-74463232D02*
X111731227Y-74463232D01*
X111731227Y-74463232D02*
X111921703Y-74415613D01*
X111921703Y-74415613D02*
X112016941Y-74367994D01*
X112016941Y-74367994D02*
X112112180Y-74272756D01*
X112112180Y-74272756D02*
X112159799Y-74129899D01*
X112159799Y-74129899D02*
X112159799Y-74034661D01*
X112159799Y-74034661D02*
X112112180Y-73891804D01*
X112112180Y-73891804D02*
X112064560Y-73844185D01*
X112064560Y-73844185D02*
X111731227Y-73844185D01*
X111731227Y-73844185D02*
X111731227Y-74034661D01*
X111635989Y-73082280D02*
X111683608Y-72939423D01*
X111683608Y-72939423D02*
X111731227Y-72891804D01*
X111731227Y-72891804D02*
X111826465Y-72844185D01*
X111826465Y-72844185D02*
X111969322Y-72844185D01*
X111969322Y-72844185D02*
X112064560Y-72891804D01*
X112064560Y-72891804D02*
X112112180Y-72939423D01*
X112112180Y-72939423D02*
X112159799Y-73034661D01*
X112159799Y-73034661D02*
X112159799Y-73415613D01*
X112159799Y-73415613D02*
X111159799Y-73415613D01*
X111159799Y-73415613D02*
X111159799Y-73082280D01*
X111159799Y-73082280D02*
X111207418Y-72987042D01*
X111207418Y-72987042D02*
X111255037Y-72939423D01*
X111255037Y-72939423D02*
X111350275Y-72891804D01*
X111350275Y-72891804D02*
X111445513Y-72891804D01*
X111445513Y-72891804D02*
X111540751Y-72939423D01*
X111540751Y-72939423D02*
X111588370Y-72987042D01*
X111588370Y-72987042D02*
X111635989Y-73082280D01*
X111635989Y-73082280D02*
X111635989Y-73415613D01*
X112540751Y-72510851D02*
X112493132Y-72463232D01*
X112493132Y-72463232D02*
X112350275Y-72367994D01*
X112350275Y-72367994D02*
X112255037Y-72320375D01*
X112255037Y-72320375D02*
X112112180Y-72272756D01*
X112112180Y-72272756D02*
X111874084Y-72225137D01*
X111874084Y-72225137D02*
X111683608Y-72225137D01*
X111683608Y-72225137D02*
X111445513Y-72272756D01*
X111445513Y-72272756D02*
X111302656Y-72320375D01*
X111302656Y-72320375D02*
X111207418Y-72367994D01*
X111207418Y-72367994D02*
X111064560Y-72463232D01*
X111064560Y-72463232D02*
X111016941Y-72510851D01*
X112159799Y-71844184D02*
X111493132Y-71320375D01*
X111493132Y-71844184D02*
X112159799Y-71320375D01*
X112159799Y-70415613D02*
X112159799Y-70987041D01*
X112159799Y-70701327D02*
X111159799Y-70701327D01*
X111159799Y-70701327D02*
X111302656Y-70796565D01*
X111302656Y-70796565D02*
X111397894Y-70891803D01*
X111397894Y-70891803D02*
X111445513Y-70987041D01*
X111255037Y-70034660D02*
X111207418Y-69987041D01*
X111207418Y-69987041D02*
X111159799Y-69891803D01*
X111159799Y-69891803D02*
X111159799Y-69653708D01*
X111159799Y-69653708D02*
X111207418Y-69558470D01*
X111207418Y-69558470D02*
X111255037Y-69510851D01*
X111255037Y-69510851D02*
X111350275Y-69463232D01*
X111350275Y-69463232D02*
X111445513Y-69463232D01*
X111445513Y-69463232D02*
X111588370Y-69510851D01*
X111588370Y-69510851D02*
X112159799Y-70082279D01*
X112159799Y-70082279D02*
X112159799Y-69463232D01*
X111588370Y-68891803D02*
X111540751Y-68987041D01*
X111540751Y-68987041D02*
X111493132Y-69034660D01*
X111493132Y-69034660D02*
X111397894Y-69082279D01*
X111397894Y-69082279D02*
X111350275Y-69082279D01*
X111350275Y-69082279D02*
X111255037Y-69034660D01*
X111255037Y-69034660D02*
X111207418Y-68987041D01*
X111207418Y-68987041D02*
X111159799Y-68891803D01*
X111159799Y-68891803D02*
X111159799Y-68701327D01*
X111159799Y-68701327D02*
X111207418Y-68606089D01*
X111207418Y-68606089D02*
X111255037Y-68558470D01*
X111255037Y-68558470D02*
X111350275Y-68510851D01*
X111350275Y-68510851D02*
X111397894Y-68510851D01*
X111397894Y-68510851D02*
X111493132Y-68558470D01*
X111493132Y-68558470D02*
X111540751Y-68606089D01*
X111540751Y-68606089D02*
X111588370Y-68701327D01*
X111588370Y-68701327D02*
X111588370Y-68891803D01*
X111588370Y-68891803D02*
X111635989Y-68987041D01*
X111635989Y-68987041D02*
X111683608Y-69034660D01*
X111683608Y-69034660D02*
X111778846Y-69082279D01*
X111778846Y-69082279D02*
X111969322Y-69082279D01*
X111969322Y-69082279D02*
X112064560Y-69034660D01*
X112064560Y-69034660D02*
X112112180Y-68987041D01*
X112112180Y-68987041D02*
X112159799Y-68891803D01*
X112159799Y-68891803D02*
X112159799Y-68701327D01*
X112159799Y-68701327D02*
X112112180Y-68606089D01*
X112112180Y-68606089D02*
X112064560Y-68558470D01*
X112064560Y-68558470D02*
X111969322Y-68510851D01*
X111969322Y-68510851D02*
X111778846Y-68510851D01*
X111778846Y-68510851D02*
X111683608Y-68558470D01*
X111683608Y-68558470D02*
X111635989Y-68606089D01*
X111635989Y-68606089D02*
X111588370Y-68701327D01*
%TO.C,TP4057*%
D12*
X122160000Y-39530000D02*
X128310000Y-39530000D01*
X128310000Y-49370000D01*
X122160000Y-49370000D01*
X122160000Y-39530000D01*
X135690000Y-38300000D02*
X138150000Y-38300000D01*
X138150000Y-40760000D01*
X135690000Y-40760000D01*
X135690000Y-38300000D01*
X135690000Y-40760000D02*
X138150000Y-40760000D01*
X138150000Y-43220000D01*
X135690000Y-43220000D01*
X135690000Y-40760000D01*
X135690000Y-45680000D02*
X138150000Y-45680000D01*
X138150000Y-48140000D01*
X135690000Y-48140000D01*
X135690000Y-45680000D01*
X135690000Y-48140000D02*
X138150000Y-48140000D01*
X138150000Y-50600000D01*
X135690000Y-50600000D01*
X135690000Y-48140000D01*
%TD*%
D15*
%TO.C,TP4057*%
X136920000Y-41990000D03*
X136920000Y-46910000D03*
X136920000Y-39530000D03*
X136920000Y-49370000D03*
%TD*%
D16*
%TO.C,D2*%
X50000000Y-97500000D03*
X46700000Y-97500000D03*
X46700000Y-102400000D03*
X50000000Y-102400000D03*
%TD*%
D17*
%TO.C,D1*%
X84000000Y-130050000D03*
X84000000Y-133350000D03*
X88900000Y-133350000D03*
X88900000Y-130050000D03*
%TD*%
%TO.C,D5*%
X88900000Y-54990000D03*
X88900000Y-51690000D03*
X84000000Y-51690000D03*
X84000000Y-54990000D03*
%TD*%
%TO.C,D8*%
X122100000Y-98300000D03*
X122100000Y-101600000D03*
X127000000Y-101600000D03*
X127000000Y-98300000D03*
%TD*%
D18*
%TO.C,DS1*%
X40640000Y-73660000D03*
X48260000Y-73660000D03*
X45720000Y-73660000D03*
X43180000Y-73660000D03*
%TD*%
D19*
%TO.C,U2*%
X94240000Y-106680000D03*
X91700000Y-106680000D03*
X89160000Y-106680000D03*
X86620000Y-106680000D03*
X81540000Y-106680000D03*
X84080000Y-106680000D03*
X76460000Y-121920000D03*
X76460000Y-106680000D03*
X79000000Y-121920000D03*
X81540000Y-121920000D03*
X84080000Y-121920000D03*
X86620000Y-121920000D03*
X89160000Y-121920000D03*
X91700000Y-121920000D03*
X94240000Y-121920000D03*
X79000000Y-106680000D03*
%TD*%
D17*
%TO.C,D3*%
X25400000Y-50800000D03*
X25400000Y-47500000D03*
X20500000Y-47500000D03*
X20500000Y-50800000D03*
%TD*%
%TO.C,D7*%
X147500000Y-47500000D03*
X147500000Y-50800000D03*
X152400000Y-50800000D03*
X152400000Y-47500000D03*
%TD*%
%TO.C,D4*%
X50800000Y-25000000D03*
X50800000Y-21700000D03*
X45900000Y-21700000D03*
X45900000Y-25000000D03*
%TD*%
D18*
%TO.C,RV1*%
X115570000Y-49530000D03*
X110490000Y-49530000D03*
X105410000Y-49530000D03*
%TD*%
D17*
%TO.C,D6*%
X127000000Y-25400000D03*
X127000000Y-22100000D03*
X122100000Y-22100000D03*
X122100000Y-25400000D03*
%TD*%
D20*
%TO.C,SD1*%
X123925385Y-74194615D03*
X137694615Y-74194615D03*
X132186923Y-74194615D03*
X129433077Y-74194615D03*
X126679231Y-74194615D03*
X134940769Y-74194615D03*
%TD*%
D21*
%TO.C,TFT1*%
X60156662Y-70533335D03*
X60156662Y-84133331D03*
X60156674Y-68266669D03*
X60156674Y-75066667D03*
X60156674Y-72800001D03*
X60156674Y-79599999D03*
X60156662Y-77333333D03*
X60156674Y-81866665D03*
%TD*%
%LPD*%
M02*
