M48
; DRILL file {KiCad 8.0.3} date 2024-07-09T17:09:26+0200
; FORMAT={-:-/ absolute / inch / decimal}
; #@! TF.CreationDate,2024-07-09T17:09:26+02:00
; #@! TF.GenerationSoftware,Kicad,Pcbnew,8.0.3
; #@! TF.FileFunction,Plated,1,2,PTH
FMAT,2
INCH
; #@! TA.AperFunction,Plated,PTH,ViaDrill
T1C0.0100
; #@! TA.AperFunction,Plated,PTH,ViaDrill
T2C0.0118
; #@! TA.AperFunction,Plated,PTH,ComponentDrill
T3C0.0300
; #@! TA.AperFunction,Plated,PTH,ComponentDrill
T4C0.0500
%
G90
G05
T1
X1.85Y-3.05
X1.95Y-3.05
X2.05Y-3.25
X2.05Y-3.4
X2.25Y-3.05
X2.45Y-2.8
X2.5Y-3.2
X2.5Y-3.4
X2.6Y-1.6
X2.65Y-3.25
X2.7Y-4.4
X2.9Y-3.9
X2.95Y-3.05
X2.95Y-4.55
X3.05Y-3.85
X3.05Y-4.65
X3.2Y-3.85
X3.2Y-4.9
X3.2Y-5.0
X3.25Y-4.05
X3.35Y-4.05
X3.35Y-4.3
X3.45Y-2.3
X3.75Y-4.4
X3.9Y-4.6
X4.0Y-4.45
X4.15Y-3.8
X4.3Y-3.9
X4.3Y-4.5
X4.6Y-2.95
X4.85Y-3.3
X5.0Y-3.2
X5.1Y-3.05
X5.25Y-3.25
X5.35Y-3.4
X5.4Y-3.2
X5.65Y-2.1
X5.7Y-1.9
X5.8Y-2.1
T2
X2.9Y-4.9
X3.35Y-5.05
T3
X1.6Y-2.9
X1.7Y-2.9
X1.8Y-2.9
X1.9Y-2.9
X2.3684Y-2.7769
X2.3684Y-3.0446
X2.3684Y-3.3123
X2.3684Y-2.6877
X2.3684Y-2.8661
X2.3684Y-2.9554
X2.3684Y-3.1339
X2.3684Y-3.2231
X4.15Y-1.95
X4.35Y-1.95
X4.55Y-1.95
X4.879Y-2.921
X4.9874Y-2.921
X5.0958Y-2.921
X5.2042Y-2.921
X5.3126Y-2.921
X5.3906Y-1.5563
X5.3906Y-1.6531
X5.3906Y-1.8469
X5.3906Y-1.9437
X5.421Y-2.921
T4
X3.0102Y-4.2
X3.0102Y-4.8
X3.1102Y-4.2
X3.1102Y-4.8
X3.2102Y-4.2
X3.2102Y-4.8
X3.3102Y-4.2
X3.3102Y-4.8
X3.4102Y-4.2
X3.4102Y-4.8
X3.5102Y-4.2
X3.5102Y-4.8
X3.6102Y-4.2
X3.6102Y-4.8
X3.7102Y-4.2
X3.7102Y-4.8
M30
