%TF.GenerationSoftware,KiCad,Pcbnew,8.0.3*%
%TF.CreationDate,2024-07-09T17:09:24+02:00*%
%TF.ProjectId,eirini2,65697269-6e69-4322-9e6b-696361645f70,1.0*%
%TF.SameCoordinates,Original*%
%TF.FileFunction,Soldermask,Bot*%
%TF.FilePolarity,Negative*%
%FSLAX46Y46*%
G04 Gerber Fmt 4.6, Leading zero omitted, Abs format (unit mm)*
G04 Created by KiCad (PCBNEW 8.0.3) date 2024-07-09 17:09:24*
%MOMM*%
%LPD*%
G01*
G04 APERTURE LIST*
G04 APERTURE END LIST*
G36*
X76507872Y-120870215D02*
G01*
X76557277Y-120870215D01*
X76612297Y-120880500D01*
X76665723Y-120885762D01*
X76706309Y-120898073D01*
X76748514Y-120905963D01*
X76806969Y-120928608D01*
X76863540Y-120945769D01*
X76895861Y-120963045D01*
X76929937Y-120976246D01*
X76989143Y-121012905D01*
X77045849Y-121043215D01*
X77069675Y-121062769D01*
X77095345Y-121078663D01*
X77152228Y-121130519D01*
X77205644Y-121174356D01*
X77221471Y-121193641D01*
X77239123Y-121209733D01*
X77290361Y-121277583D01*
X77336785Y-121334151D01*
X77345763Y-121350948D01*
X77356370Y-121364994D01*
X77398572Y-121449748D01*
X77434231Y-121516460D01*
X77438033Y-121528995D01*
X77443088Y-121539146D01*
X77472940Y-121644067D01*
X77494238Y-121714277D01*
X77494937Y-121721382D01*
X77496331Y-121726279D01*
X77510815Y-121882590D01*
X77514500Y-121920000D01*
X77510815Y-121957412D01*
X77496331Y-122113720D01*
X77494937Y-122118616D01*
X77494238Y-122125723D01*
X77472935Y-122195948D01*
X77443088Y-122300853D01*
X77438034Y-122311002D01*
X77434231Y-122323540D01*
X77398565Y-122390265D01*
X77356370Y-122475005D01*
X77345765Y-122489047D01*
X77336785Y-122505849D01*
X77290351Y-122562428D01*
X77239123Y-122630266D01*
X77221474Y-122646354D01*
X77205644Y-122665644D01*
X77152217Y-122709489D01*
X77095345Y-122761336D01*
X77069680Y-122777226D01*
X77045849Y-122796785D01*
X76989131Y-122827101D01*
X76929937Y-122863753D01*
X76895868Y-122876951D01*
X76863540Y-122894231D01*
X76806957Y-122911395D01*
X76748514Y-122934036D01*
X76706315Y-122941924D01*
X76665723Y-122954238D01*
X76612294Y-122959500D01*
X76557277Y-122969785D01*
X76507872Y-122969785D01*
X76460000Y-122974500D01*
X76412128Y-122969785D01*
X76362723Y-122969785D01*
X76307704Y-122959500D01*
X76254277Y-122954238D01*
X76213685Y-122941924D01*
X76171485Y-122934036D01*
X76113037Y-122911393D01*
X76056460Y-122894231D01*
X76024134Y-122876952D01*
X75990062Y-122863753D01*
X75930861Y-122827097D01*
X75874151Y-122796785D01*
X75850322Y-122777229D01*
X75824654Y-122761336D01*
X75767772Y-122709481D01*
X75714356Y-122665644D01*
X75698528Y-122646358D01*
X75680876Y-122630266D01*
X75629635Y-122562412D01*
X75583215Y-122505849D01*
X75574237Y-122489052D01*
X75563629Y-122475005D01*
X75521419Y-122390237D01*
X75485769Y-122323540D01*
X75481967Y-122311007D01*
X75476911Y-122300853D01*
X75447048Y-122195894D01*
X75425762Y-122125723D01*
X75425062Y-122118621D01*
X75423668Y-122113720D01*
X75409167Y-121957240D01*
X75405500Y-121920000D01*
X75409167Y-121882762D01*
X75423668Y-121726279D01*
X75425062Y-121721377D01*
X75425762Y-121714277D01*
X75447043Y-121644120D01*
X75476911Y-121539146D01*
X75481967Y-121528990D01*
X75485769Y-121516460D01*
X75521412Y-121449775D01*
X75563629Y-121364994D01*
X75574238Y-121350944D01*
X75583215Y-121334151D01*
X75629626Y-121277598D01*
X75680876Y-121209733D01*
X75698531Y-121193637D01*
X75714356Y-121174356D01*
X75767761Y-121130527D01*
X75824654Y-121078663D01*
X75850327Y-121062766D01*
X75874151Y-121043215D01*
X75930849Y-121012909D01*
X75990062Y-120976246D01*
X76024140Y-120963043D01*
X76056460Y-120945769D01*
X76113026Y-120928609D01*
X76171485Y-120905963D01*
X76213692Y-120898073D01*
X76254277Y-120885762D01*
X76307701Y-120880500D01*
X76362723Y-120870215D01*
X76412128Y-120870215D01*
X76460000Y-120865500D01*
X76507872Y-120870215D01*
G37*
G36*
X79047872Y-120870215D02*
G01*
X79097277Y-120870215D01*
X79152297Y-120880500D01*
X79205723Y-120885762D01*
X79246309Y-120898073D01*
X79288514Y-120905963D01*
X79346969Y-120928608D01*
X79403540Y-120945769D01*
X79435861Y-120963045D01*
X79469937Y-120976246D01*
X79529143Y-121012905D01*
X79585849Y-121043215D01*
X79609675Y-121062769D01*
X79635345Y-121078663D01*
X79692228Y-121130519D01*
X79745644Y-121174356D01*
X79761471Y-121193641D01*
X79779123Y-121209733D01*
X79830361Y-121277583D01*
X79876785Y-121334151D01*
X79885763Y-121350948D01*
X79896370Y-121364994D01*
X79938572Y-121449748D01*
X79974231Y-121516460D01*
X79978033Y-121528995D01*
X79983088Y-121539146D01*
X80012940Y-121644067D01*
X80034238Y-121714277D01*
X80034937Y-121721382D01*
X80036331Y-121726279D01*
X80050815Y-121882590D01*
X80054500Y-121920000D01*
X80050815Y-121957412D01*
X80036331Y-122113720D01*
X80034937Y-122118616D01*
X80034238Y-122125723D01*
X80012935Y-122195948D01*
X79983088Y-122300853D01*
X79978034Y-122311002D01*
X79974231Y-122323540D01*
X79938565Y-122390265D01*
X79896370Y-122475005D01*
X79885765Y-122489047D01*
X79876785Y-122505849D01*
X79830351Y-122562428D01*
X79779123Y-122630266D01*
X79761474Y-122646354D01*
X79745644Y-122665644D01*
X79692217Y-122709489D01*
X79635345Y-122761336D01*
X79609680Y-122777226D01*
X79585849Y-122796785D01*
X79529131Y-122827101D01*
X79469937Y-122863753D01*
X79435868Y-122876951D01*
X79403540Y-122894231D01*
X79346957Y-122911395D01*
X79288514Y-122934036D01*
X79246315Y-122941924D01*
X79205723Y-122954238D01*
X79152294Y-122959500D01*
X79097277Y-122969785D01*
X79047872Y-122969785D01*
X79000000Y-122974500D01*
X78952128Y-122969785D01*
X78902723Y-122969785D01*
X78847704Y-122959500D01*
X78794277Y-122954238D01*
X78753685Y-122941924D01*
X78711485Y-122934036D01*
X78653037Y-122911393D01*
X78596460Y-122894231D01*
X78564134Y-122876952D01*
X78530062Y-122863753D01*
X78470861Y-122827097D01*
X78414151Y-122796785D01*
X78390322Y-122777229D01*
X78364654Y-122761336D01*
X78307772Y-122709481D01*
X78254356Y-122665644D01*
X78238528Y-122646358D01*
X78220876Y-122630266D01*
X78169635Y-122562412D01*
X78123215Y-122505849D01*
X78114237Y-122489052D01*
X78103629Y-122475005D01*
X78061419Y-122390237D01*
X78025769Y-122323540D01*
X78021967Y-122311007D01*
X78016911Y-122300853D01*
X77987048Y-122195894D01*
X77965762Y-122125723D01*
X77965062Y-122118621D01*
X77963668Y-122113720D01*
X77949167Y-121957240D01*
X77945500Y-121920000D01*
X77949167Y-121882762D01*
X77963668Y-121726279D01*
X77965062Y-121721377D01*
X77965762Y-121714277D01*
X77987043Y-121644120D01*
X78016911Y-121539146D01*
X78021967Y-121528990D01*
X78025769Y-121516460D01*
X78061412Y-121449775D01*
X78103629Y-121364994D01*
X78114238Y-121350944D01*
X78123215Y-121334151D01*
X78169626Y-121277598D01*
X78220876Y-121209733D01*
X78238531Y-121193637D01*
X78254356Y-121174356D01*
X78307761Y-121130527D01*
X78364654Y-121078663D01*
X78390327Y-121062766D01*
X78414151Y-121043215D01*
X78470849Y-121012909D01*
X78530062Y-120976246D01*
X78564140Y-120963043D01*
X78596460Y-120945769D01*
X78653026Y-120928609D01*
X78711485Y-120905963D01*
X78753692Y-120898073D01*
X78794277Y-120885762D01*
X78847701Y-120880500D01*
X78902723Y-120870215D01*
X78952128Y-120870215D01*
X79000000Y-120865500D01*
X79047872Y-120870215D01*
G37*
G36*
X81587872Y-120870215D02*
G01*
X81637277Y-120870215D01*
X81692297Y-120880500D01*
X81745723Y-120885762D01*
X81786309Y-120898073D01*
X81828514Y-120905963D01*
X81886969Y-120928608D01*
X81943540Y-120945769D01*
X81975861Y-120963045D01*
X82009937Y-120976246D01*
X82069143Y-121012905D01*
X82125849Y-121043215D01*
X82149675Y-121062769D01*
X82175345Y-121078663D01*
X82232228Y-121130519D01*
X82285644Y-121174356D01*
X82301471Y-121193641D01*
X82319123Y-121209733D01*
X82370361Y-121277583D01*
X82416785Y-121334151D01*
X82425763Y-121350948D01*
X82436370Y-121364994D01*
X82478572Y-121449748D01*
X82514231Y-121516460D01*
X82518033Y-121528995D01*
X82523088Y-121539146D01*
X82552940Y-121644067D01*
X82574238Y-121714277D01*
X82574937Y-121721382D01*
X82576331Y-121726279D01*
X82590815Y-121882590D01*
X82594500Y-121920000D01*
X82590815Y-121957412D01*
X82576331Y-122113720D01*
X82574937Y-122118616D01*
X82574238Y-122125723D01*
X82552935Y-122195948D01*
X82523088Y-122300853D01*
X82518034Y-122311002D01*
X82514231Y-122323540D01*
X82478565Y-122390265D01*
X82436370Y-122475005D01*
X82425765Y-122489047D01*
X82416785Y-122505849D01*
X82370351Y-122562428D01*
X82319123Y-122630266D01*
X82301474Y-122646354D01*
X82285644Y-122665644D01*
X82232217Y-122709489D01*
X82175345Y-122761336D01*
X82149680Y-122777226D01*
X82125849Y-122796785D01*
X82069131Y-122827101D01*
X82009937Y-122863753D01*
X81975868Y-122876951D01*
X81943540Y-122894231D01*
X81886957Y-122911395D01*
X81828514Y-122934036D01*
X81786315Y-122941924D01*
X81745723Y-122954238D01*
X81692294Y-122959500D01*
X81637277Y-122969785D01*
X81587872Y-122969785D01*
X81540000Y-122974500D01*
X81492128Y-122969785D01*
X81442723Y-122969785D01*
X81387704Y-122959500D01*
X81334277Y-122954238D01*
X81293685Y-122941924D01*
X81251485Y-122934036D01*
X81193037Y-122911393D01*
X81136460Y-122894231D01*
X81104134Y-122876952D01*
X81070062Y-122863753D01*
X81010861Y-122827097D01*
X80954151Y-122796785D01*
X80930322Y-122777229D01*
X80904654Y-122761336D01*
X80847772Y-122709481D01*
X80794356Y-122665644D01*
X80778528Y-122646358D01*
X80760876Y-122630266D01*
X80709635Y-122562412D01*
X80663215Y-122505849D01*
X80654237Y-122489052D01*
X80643629Y-122475005D01*
X80601419Y-122390237D01*
X80565769Y-122323540D01*
X80561967Y-122311007D01*
X80556911Y-122300853D01*
X80527048Y-122195894D01*
X80505762Y-122125723D01*
X80505062Y-122118621D01*
X80503668Y-122113720D01*
X80489167Y-121957240D01*
X80485500Y-121920000D01*
X80489167Y-121882762D01*
X80503668Y-121726279D01*
X80505062Y-121721377D01*
X80505762Y-121714277D01*
X80527043Y-121644120D01*
X80556911Y-121539146D01*
X80561967Y-121528990D01*
X80565769Y-121516460D01*
X80601412Y-121449775D01*
X80643629Y-121364994D01*
X80654238Y-121350944D01*
X80663215Y-121334151D01*
X80709626Y-121277598D01*
X80760876Y-121209733D01*
X80778531Y-121193637D01*
X80794356Y-121174356D01*
X80847761Y-121130527D01*
X80904654Y-121078663D01*
X80930327Y-121062766D01*
X80954151Y-121043215D01*
X81010849Y-121012909D01*
X81070062Y-120976246D01*
X81104140Y-120963043D01*
X81136460Y-120945769D01*
X81193026Y-120928609D01*
X81251485Y-120905963D01*
X81293692Y-120898073D01*
X81334277Y-120885762D01*
X81387701Y-120880500D01*
X81442723Y-120870215D01*
X81492128Y-120870215D01*
X81540000Y-120865500D01*
X81587872Y-120870215D01*
G37*
G36*
X84127872Y-120870215D02*
G01*
X84177277Y-120870215D01*
X84232297Y-120880500D01*
X84285723Y-120885762D01*
X84326309Y-120898073D01*
X84368514Y-120905963D01*
X84426969Y-120928608D01*
X84483540Y-120945769D01*
X84515861Y-120963045D01*
X84549937Y-120976246D01*
X84609143Y-121012905D01*
X84665849Y-121043215D01*
X84689675Y-121062769D01*
X84715345Y-121078663D01*
X84772228Y-121130519D01*
X84825644Y-121174356D01*
X84841471Y-121193641D01*
X84859123Y-121209733D01*
X84910361Y-121277583D01*
X84956785Y-121334151D01*
X84965763Y-121350948D01*
X84976370Y-121364994D01*
X85018572Y-121449748D01*
X85054231Y-121516460D01*
X85058033Y-121528995D01*
X85063088Y-121539146D01*
X85092940Y-121644067D01*
X85114238Y-121714277D01*
X85114937Y-121721382D01*
X85116331Y-121726279D01*
X85130815Y-121882590D01*
X85134500Y-121920000D01*
X85130815Y-121957412D01*
X85116331Y-122113720D01*
X85114937Y-122118616D01*
X85114238Y-122125723D01*
X85092935Y-122195948D01*
X85063088Y-122300853D01*
X85058034Y-122311002D01*
X85054231Y-122323540D01*
X85018565Y-122390265D01*
X84976370Y-122475005D01*
X84965765Y-122489047D01*
X84956785Y-122505849D01*
X84910351Y-122562428D01*
X84859123Y-122630266D01*
X84841474Y-122646354D01*
X84825644Y-122665644D01*
X84772217Y-122709489D01*
X84715345Y-122761336D01*
X84689680Y-122777226D01*
X84665849Y-122796785D01*
X84609131Y-122827101D01*
X84549937Y-122863753D01*
X84515868Y-122876951D01*
X84483540Y-122894231D01*
X84426957Y-122911395D01*
X84368514Y-122934036D01*
X84326315Y-122941924D01*
X84285723Y-122954238D01*
X84232294Y-122959500D01*
X84177277Y-122969785D01*
X84127872Y-122969785D01*
X84080000Y-122974500D01*
X84032128Y-122969785D01*
X83982723Y-122969785D01*
X83927704Y-122959500D01*
X83874277Y-122954238D01*
X83833685Y-122941924D01*
X83791485Y-122934036D01*
X83733037Y-122911393D01*
X83676460Y-122894231D01*
X83644134Y-122876952D01*
X83610062Y-122863753D01*
X83550861Y-122827097D01*
X83494151Y-122796785D01*
X83470322Y-122777229D01*
X83444654Y-122761336D01*
X83387772Y-122709481D01*
X83334356Y-122665644D01*
X83318528Y-122646358D01*
X83300876Y-122630266D01*
X83249635Y-122562412D01*
X83203215Y-122505849D01*
X83194237Y-122489052D01*
X83183629Y-122475005D01*
X83141419Y-122390237D01*
X83105769Y-122323540D01*
X83101967Y-122311007D01*
X83096911Y-122300853D01*
X83067048Y-122195894D01*
X83045762Y-122125723D01*
X83045062Y-122118621D01*
X83043668Y-122113720D01*
X83029167Y-121957240D01*
X83025500Y-121920000D01*
X83029167Y-121882762D01*
X83043668Y-121726279D01*
X83045062Y-121721377D01*
X83045762Y-121714277D01*
X83067043Y-121644120D01*
X83096911Y-121539146D01*
X83101967Y-121528990D01*
X83105769Y-121516460D01*
X83141412Y-121449775D01*
X83183629Y-121364994D01*
X83194238Y-121350944D01*
X83203215Y-121334151D01*
X83249626Y-121277598D01*
X83300876Y-121209733D01*
X83318531Y-121193637D01*
X83334356Y-121174356D01*
X83387761Y-121130527D01*
X83444654Y-121078663D01*
X83470327Y-121062766D01*
X83494151Y-121043215D01*
X83550849Y-121012909D01*
X83610062Y-120976246D01*
X83644140Y-120963043D01*
X83676460Y-120945769D01*
X83733026Y-120928609D01*
X83791485Y-120905963D01*
X83833692Y-120898073D01*
X83874277Y-120885762D01*
X83927701Y-120880500D01*
X83982723Y-120870215D01*
X84032128Y-120870215D01*
X84080000Y-120865500D01*
X84127872Y-120870215D01*
G37*
G36*
X86667872Y-120870215D02*
G01*
X86717277Y-120870215D01*
X86772297Y-120880500D01*
X86825723Y-120885762D01*
X86866309Y-120898073D01*
X86908514Y-120905963D01*
X86966969Y-120928608D01*
X87023540Y-120945769D01*
X87055861Y-120963045D01*
X87089937Y-120976246D01*
X87149143Y-121012905D01*
X87205849Y-121043215D01*
X87229675Y-121062769D01*
X87255345Y-121078663D01*
X87312228Y-121130519D01*
X87365644Y-121174356D01*
X87381471Y-121193641D01*
X87399123Y-121209733D01*
X87450361Y-121277583D01*
X87496785Y-121334151D01*
X87505763Y-121350948D01*
X87516370Y-121364994D01*
X87558572Y-121449748D01*
X87594231Y-121516460D01*
X87598033Y-121528995D01*
X87603088Y-121539146D01*
X87632940Y-121644067D01*
X87654238Y-121714277D01*
X87654937Y-121721382D01*
X87656331Y-121726279D01*
X87670815Y-121882590D01*
X87674500Y-121920000D01*
X87670815Y-121957412D01*
X87656331Y-122113720D01*
X87654937Y-122118616D01*
X87654238Y-122125723D01*
X87632935Y-122195948D01*
X87603088Y-122300853D01*
X87598034Y-122311002D01*
X87594231Y-122323540D01*
X87558565Y-122390265D01*
X87516370Y-122475005D01*
X87505765Y-122489047D01*
X87496785Y-122505849D01*
X87450351Y-122562428D01*
X87399123Y-122630266D01*
X87381474Y-122646354D01*
X87365644Y-122665644D01*
X87312217Y-122709489D01*
X87255345Y-122761336D01*
X87229680Y-122777226D01*
X87205849Y-122796785D01*
X87149131Y-122827101D01*
X87089937Y-122863753D01*
X87055868Y-122876951D01*
X87023540Y-122894231D01*
X86966957Y-122911395D01*
X86908514Y-122934036D01*
X86866315Y-122941924D01*
X86825723Y-122954238D01*
X86772294Y-122959500D01*
X86717277Y-122969785D01*
X86667872Y-122969785D01*
X86620000Y-122974500D01*
X86572128Y-122969785D01*
X86522723Y-122969785D01*
X86467704Y-122959500D01*
X86414277Y-122954238D01*
X86373685Y-122941924D01*
X86331485Y-122934036D01*
X86273037Y-122911393D01*
X86216460Y-122894231D01*
X86184134Y-122876952D01*
X86150062Y-122863753D01*
X86090861Y-122827097D01*
X86034151Y-122796785D01*
X86010322Y-122777229D01*
X85984654Y-122761336D01*
X85927772Y-122709481D01*
X85874356Y-122665644D01*
X85858528Y-122646358D01*
X85840876Y-122630266D01*
X85789635Y-122562412D01*
X85743215Y-122505849D01*
X85734237Y-122489052D01*
X85723629Y-122475005D01*
X85681419Y-122390237D01*
X85645769Y-122323540D01*
X85641967Y-122311007D01*
X85636911Y-122300853D01*
X85607048Y-122195894D01*
X85585762Y-122125723D01*
X85585062Y-122118621D01*
X85583668Y-122113720D01*
X85569167Y-121957240D01*
X85565500Y-121920000D01*
X85569167Y-121882762D01*
X85583668Y-121726279D01*
X85585062Y-121721377D01*
X85585762Y-121714277D01*
X85607043Y-121644120D01*
X85636911Y-121539146D01*
X85641967Y-121528990D01*
X85645769Y-121516460D01*
X85681412Y-121449775D01*
X85723629Y-121364994D01*
X85734238Y-121350944D01*
X85743215Y-121334151D01*
X85789626Y-121277598D01*
X85840876Y-121209733D01*
X85858531Y-121193637D01*
X85874356Y-121174356D01*
X85927761Y-121130527D01*
X85984654Y-121078663D01*
X86010327Y-121062766D01*
X86034151Y-121043215D01*
X86090849Y-121012909D01*
X86150062Y-120976246D01*
X86184140Y-120963043D01*
X86216460Y-120945769D01*
X86273026Y-120928609D01*
X86331485Y-120905963D01*
X86373692Y-120898073D01*
X86414277Y-120885762D01*
X86467701Y-120880500D01*
X86522723Y-120870215D01*
X86572128Y-120870215D01*
X86620000Y-120865500D01*
X86667872Y-120870215D01*
G37*
G36*
X89207872Y-120870215D02*
G01*
X89257277Y-120870215D01*
X89312297Y-120880500D01*
X89365723Y-120885762D01*
X89406309Y-120898073D01*
X89448514Y-120905963D01*
X89506969Y-120928608D01*
X89563540Y-120945769D01*
X89595861Y-120963045D01*
X89629937Y-120976246D01*
X89689143Y-121012905D01*
X89745849Y-121043215D01*
X89769675Y-121062769D01*
X89795345Y-121078663D01*
X89852228Y-121130519D01*
X89905644Y-121174356D01*
X89921471Y-121193641D01*
X89939123Y-121209733D01*
X89990361Y-121277583D01*
X90036785Y-121334151D01*
X90045763Y-121350948D01*
X90056370Y-121364994D01*
X90098572Y-121449748D01*
X90134231Y-121516460D01*
X90138033Y-121528995D01*
X90143088Y-121539146D01*
X90172940Y-121644067D01*
X90194238Y-121714277D01*
X90194937Y-121721382D01*
X90196331Y-121726279D01*
X90210815Y-121882590D01*
X90214500Y-121920000D01*
X90210815Y-121957412D01*
X90196331Y-122113720D01*
X90194937Y-122118616D01*
X90194238Y-122125723D01*
X90172935Y-122195948D01*
X90143088Y-122300853D01*
X90138034Y-122311002D01*
X90134231Y-122323540D01*
X90098565Y-122390265D01*
X90056370Y-122475005D01*
X90045765Y-122489047D01*
X90036785Y-122505849D01*
X89990351Y-122562428D01*
X89939123Y-122630266D01*
X89921474Y-122646354D01*
X89905644Y-122665644D01*
X89852217Y-122709489D01*
X89795345Y-122761336D01*
X89769680Y-122777226D01*
X89745849Y-122796785D01*
X89689131Y-122827101D01*
X89629937Y-122863753D01*
X89595868Y-122876951D01*
X89563540Y-122894231D01*
X89506957Y-122911395D01*
X89448514Y-122934036D01*
X89406315Y-122941924D01*
X89365723Y-122954238D01*
X89312294Y-122959500D01*
X89257277Y-122969785D01*
X89207872Y-122969785D01*
X89160000Y-122974500D01*
X89112128Y-122969785D01*
X89062723Y-122969785D01*
X89007704Y-122959500D01*
X88954277Y-122954238D01*
X88913685Y-122941924D01*
X88871485Y-122934036D01*
X88813037Y-122911393D01*
X88756460Y-122894231D01*
X88724134Y-122876952D01*
X88690062Y-122863753D01*
X88630861Y-122827097D01*
X88574151Y-122796785D01*
X88550322Y-122777229D01*
X88524654Y-122761336D01*
X88467772Y-122709481D01*
X88414356Y-122665644D01*
X88398528Y-122646358D01*
X88380876Y-122630266D01*
X88329635Y-122562412D01*
X88283215Y-122505849D01*
X88274237Y-122489052D01*
X88263629Y-122475005D01*
X88221419Y-122390237D01*
X88185769Y-122323540D01*
X88181967Y-122311007D01*
X88176911Y-122300853D01*
X88147048Y-122195894D01*
X88125762Y-122125723D01*
X88125062Y-122118621D01*
X88123668Y-122113720D01*
X88109167Y-121957240D01*
X88105500Y-121920000D01*
X88109167Y-121882762D01*
X88123668Y-121726279D01*
X88125062Y-121721377D01*
X88125762Y-121714277D01*
X88147043Y-121644120D01*
X88176911Y-121539146D01*
X88181967Y-121528990D01*
X88185769Y-121516460D01*
X88221412Y-121449775D01*
X88263629Y-121364994D01*
X88274238Y-121350944D01*
X88283215Y-121334151D01*
X88329626Y-121277598D01*
X88380876Y-121209733D01*
X88398531Y-121193637D01*
X88414356Y-121174356D01*
X88467761Y-121130527D01*
X88524654Y-121078663D01*
X88550327Y-121062766D01*
X88574151Y-121043215D01*
X88630849Y-121012909D01*
X88690062Y-120976246D01*
X88724140Y-120963043D01*
X88756460Y-120945769D01*
X88813026Y-120928609D01*
X88871485Y-120905963D01*
X88913692Y-120898073D01*
X88954277Y-120885762D01*
X89007701Y-120880500D01*
X89062723Y-120870215D01*
X89112128Y-120870215D01*
X89160000Y-120865500D01*
X89207872Y-120870215D01*
G37*
G36*
X91747872Y-120870215D02*
G01*
X91797277Y-120870215D01*
X91852297Y-120880500D01*
X91905723Y-120885762D01*
X91946309Y-120898073D01*
X91988514Y-120905963D01*
X92046969Y-120928608D01*
X92103540Y-120945769D01*
X92135861Y-120963045D01*
X92169937Y-120976246D01*
X92229143Y-121012905D01*
X92285849Y-121043215D01*
X92309675Y-121062769D01*
X92335345Y-121078663D01*
X92392228Y-121130519D01*
X92445644Y-121174356D01*
X92461471Y-121193641D01*
X92479123Y-121209733D01*
X92530361Y-121277583D01*
X92576785Y-121334151D01*
X92585763Y-121350948D01*
X92596370Y-121364994D01*
X92638572Y-121449748D01*
X92674231Y-121516460D01*
X92678033Y-121528995D01*
X92683088Y-121539146D01*
X92712940Y-121644067D01*
X92734238Y-121714277D01*
X92734937Y-121721382D01*
X92736331Y-121726279D01*
X92750815Y-121882590D01*
X92754500Y-121920000D01*
X92750815Y-121957412D01*
X92736331Y-122113720D01*
X92734937Y-122118616D01*
X92734238Y-122125723D01*
X92712935Y-122195948D01*
X92683088Y-122300853D01*
X92678034Y-122311002D01*
X92674231Y-122323540D01*
X92638565Y-122390265D01*
X92596370Y-122475005D01*
X92585765Y-122489047D01*
X92576785Y-122505849D01*
X92530351Y-122562428D01*
X92479123Y-122630266D01*
X92461474Y-122646354D01*
X92445644Y-122665644D01*
X92392217Y-122709489D01*
X92335345Y-122761336D01*
X92309680Y-122777226D01*
X92285849Y-122796785D01*
X92229131Y-122827101D01*
X92169937Y-122863753D01*
X92135868Y-122876951D01*
X92103540Y-122894231D01*
X92046957Y-122911395D01*
X91988514Y-122934036D01*
X91946315Y-122941924D01*
X91905723Y-122954238D01*
X91852294Y-122959500D01*
X91797277Y-122969785D01*
X91747872Y-122969785D01*
X91700000Y-122974500D01*
X91652128Y-122969785D01*
X91602723Y-122969785D01*
X91547704Y-122959500D01*
X91494277Y-122954238D01*
X91453685Y-122941924D01*
X91411485Y-122934036D01*
X91353037Y-122911393D01*
X91296460Y-122894231D01*
X91264134Y-122876952D01*
X91230062Y-122863753D01*
X91170861Y-122827097D01*
X91114151Y-122796785D01*
X91090322Y-122777229D01*
X91064654Y-122761336D01*
X91007772Y-122709481D01*
X90954356Y-122665644D01*
X90938528Y-122646358D01*
X90920876Y-122630266D01*
X90869635Y-122562412D01*
X90823215Y-122505849D01*
X90814237Y-122489052D01*
X90803629Y-122475005D01*
X90761419Y-122390237D01*
X90725769Y-122323540D01*
X90721967Y-122311007D01*
X90716911Y-122300853D01*
X90687048Y-122195894D01*
X90665762Y-122125723D01*
X90665062Y-122118621D01*
X90663668Y-122113720D01*
X90649167Y-121957240D01*
X90645500Y-121920000D01*
X90649167Y-121882762D01*
X90663668Y-121726279D01*
X90665062Y-121721377D01*
X90665762Y-121714277D01*
X90687043Y-121644120D01*
X90716911Y-121539146D01*
X90721967Y-121528990D01*
X90725769Y-121516460D01*
X90761412Y-121449775D01*
X90803629Y-121364994D01*
X90814238Y-121350944D01*
X90823215Y-121334151D01*
X90869626Y-121277598D01*
X90920876Y-121209733D01*
X90938531Y-121193637D01*
X90954356Y-121174356D01*
X91007761Y-121130527D01*
X91064654Y-121078663D01*
X91090327Y-121062766D01*
X91114151Y-121043215D01*
X91170849Y-121012909D01*
X91230062Y-120976246D01*
X91264140Y-120963043D01*
X91296460Y-120945769D01*
X91353026Y-120928609D01*
X91411485Y-120905963D01*
X91453692Y-120898073D01*
X91494277Y-120885762D01*
X91547701Y-120880500D01*
X91602723Y-120870215D01*
X91652128Y-120870215D01*
X91700000Y-120865500D01*
X91747872Y-120870215D01*
G37*
G36*
X94287872Y-120870215D02*
G01*
X94337277Y-120870215D01*
X94392297Y-120880500D01*
X94445723Y-120885762D01*
X94486309Y-120898073D01*
X94528514Y-120905963D01*
X94586969Y-120928608D01*
X94643540Y-120945769D01*
X94675861Y-120963045D01*
X94709937Y-120976246D01*
X94769143Y-121012905D01*
X94825849Y-121043215D01*
X94849675Y-121062769D01*
X94875345Y-121078663D01*
X94932228Y-121130519D01*
X94985644Y-121174356D01*
X95001471Y-121193641D01*
X95019123Y-121209733D01*
X95070361Y-121277583D01*
X95116785Y-121334151D01*
X95125763Y-121350948D01*
X95136370Y-121364994D01*
X95178572Y-121449748D01*
X95214231Y-121516460D01*
X95218033Y-121528995D01*
X95223088Y-121539146D01*
X95252940Y-121644067D01*
X95274238Y-121714277D01*
X95274937Y-121721382D01*
X95276331Y-121726279D01*
X95290815Y-121882590D01*
X95294500Y-121920000D01*
X95290815Y-121957412D01*
X95276331Y-122113720D01*
X95274937Y-122118616D01*
X95274238Y-122125723D01*
X95252935Y-122195948D01*
X95223088Y-122300853D01*
X95218034Y-122311002D01*
X95214231Y-122323540D01*
X95178565Y-122390265D01*
X95136370Y-122475005D01*
X95125765Y-122489047D01*
X95116785Y-122505849D01*
X95070351Y-122562428D01*
X95019123Y-122630266D01*
X95001474Y-122646354D01*
X94985644Y-122665644D01*
X94932217Y-122709489D01*
X94875345Y-122761336D01*
X94849680Y-122777226D01*
X94825849Y-122796785D01*
X94769131Y-122827101D01*
X94709937Y-122863753D01*
X94675868Y-122876951D01*
X94643540Y-122894231D01*
X94586957Y-122911395D01*
X94528514Y-122934036D01*
X94486315Y-122941924D01*
X94445723Y-122954238D01*
X94392294Y-122959500D01*
X94337277Y-122969785D01*
X94287872Y-122969785D01*
X94240000Y-122974500D01*
X94192128Y-122969785D01*
X94142723Y-122969785D01*
X94087704Y-122959500D01*
X94034277Y-122954238D01*
X93993685Y-122941924D01*
X93951485Y-122934036D01*
X93893037Y-122911393D01*
X93836460Y-122894231D01*
X93804134Y-122876952D01*
X93770062Y-122863753D01*
X93710861Y-122827097D01*
X93654151Y-122796785D01*
X93630322Y-122777229D01*
X93604654Y-122761336D01*
X93547772Y-122709481D01*
X93494356Y-122665644D01*
X93478528Y-122646358D01*
X93460876Y-122630266D01*
X93409635Y-122562412D01*
X93363215Y-122505849D01*
X93354237Y-122489052D01*
X93343629Y-122475005D01*
X93301419Y-122390237D01*
X93265769Y-122323540D01*
X93261967Y-122311007D01*
X93256911Y-122300853D01*
X93227048Y-122195894D01*
X93205762Y-122125723D01*
X93205062Y-122118621D01*
X93203668Y-122113720D01*
X93189167Y-121957240D01*
X93185500Y-121920000D01*
X93189167Y-121882762D01*
X93203668Y-121726279D01*
X93205062Y-121721377D01*
X93205762Y-121714277D01*
X93227043Y-121644120D01*
X93256911Y-121539146D01*
X93261967Y-121528990D01*
X93265769Y-121516460D01*
X93301412Y-121449775D01*
X93343629Y-121364994D01*
X93354238Y-121350944D01*
X93363215Y-121334151D01*
X93409626Y-121277598D01*
X93460876Y-121209733D01*
X93478531Y-121193637D01*
X93494356Y-121174356D01*
X93547761Y-121130527D01*
X93604654Y-121078663D01*
X93630327Y-121062766D01*
X93654151Y-121043215D01*
X93710849Y-121012909D01*
X93770062Y-120976246D01*
X93804140Y-120963043D01*
X93836460Y-120945769D01*
X93893026Y-120928609D01*
X93951485Y-120905963D01*
X93993692Y-120898073D01*
X94034277Y-120885762D01*
X94087701Y-120880500D01*
X94142723Y-120870215D01*
X94192128Y-120870215D01*
X94240000Y-120865500D01*
X94287872Y-120870215D01*
G37*
G36*
X76507872Y-105630215D02*
G01*
X76557277Y-105630215D01*
X76612297Y-105640500D01*
X76665723Y-105645762D01*
X76706309Y-105658073D01*
X76748514Y-105665963D01*
X76806969Y-105688608D01*
X76863540Y-105705769D01*
X76895861Y-105723045D01*
X76929937Y-105736246D01*
X76989143Y-105772905D01*
X77045849Y-105803215D01*
X77069675Y-105822769D01*
X77095345Y-105838663D01*
X77152228Y-105890519D01*
X77205644Y-105934356D01*
X77221471Y-105953641D01*
X77239123Y-105969733D01*
X77290361Y-106037583D01*
X77336785Y-106094151D01*
X77345763Y-106110948D01*
X77356370Y-106124994D01*
X77398572Y-106209748D01*
X77434231Y-106276460D01*
X77438033Y-106288995D01*
X77443088Y-106299146D01*
X77472940Y-106404067D01*
X77494238Y-106474277D01*
X77494937Y-106481382D01*
X77496331Y-106486279D01*
X77510815Y-106642590D01*
X77514500Y-106680000D01*
X77510815Y-106717412D01*
X77496331Y-106873720D01*
X77494937Y-106878616D01*
X77494238Y-106885723D01*
X77472935Y-106955948D01*
X77443088Y-107060853D01*
X77438034Y-107071002D01*
X77434231Y-107083540D01*
X77398565Y-107150265D01*
X77356370Y-107235005D01*
X77345765Y-107249047D01*
X77336785Y-107265849D01*
X77290351Y-107322428D01*
X77239123Y-107390266D01*
X77221474Y-107406354D01*
X77205644Y-107425644D01*
X77152217Y-107469489D01*
X77095345Y-107521336D01*
X77069680Y-107537226D01*
X77045849Y-107556785D01*
X76989131Y-107587101D01*
X76929937Y-107623753D01*
X76895868Y-107636951D01*
X76863540Y-107654231D01*
X76806957Y-107671395D01*
X76748514Y-107694036D01*
X76706315Y-107701924D01*
X76665723Y-107714238D01*
X76612294Y-107719500D01*
X76557277Y-107729785D01*
X76507872Y-107729785D01*
X76460000Y-107734500D01*
X76412128Y-107729785D01*
X76362723Y-107729785D01*
X76307704Y-107719500D01*
X76254277Y-107714238D01*
X76213685Y-107701924D01*
X76171485Y-107694036D01*
X76113037Y-107671393D01*
X76056460Y-107654231D01*
X76024134Y-107636952D01*
X75990062Y-107623753D01*
X75930861Y-107587097D01*
X75874151Y-107556785D01*
X75850322Y-107537229D01*
X75824654Y-107521336D01*
X75767772Y-107469481D01*
X75714356Y-107425644D01*
X75698528Y-107406358D01*
X75680876Y-107390266D01*
X75629635Y-107322412D01*
X75583215Y-107265849D01*
X75574237Y-107249052D01*
X75563629Y-107235005D01*
X75521419Y-107150237D01*
X75485769Y-107083540D01*
X75481967Y-107071007D01*
X75476911Y-107060853D01*
X75447048Y-106955894D01*
X75425762Y-106885723D01*
X75425062Y-106878621D01*
X75423668Y-106873720D01*
X75409167Y-106717240D01*
X75405500Y-106680000D01*
X75409167Y-106642762D01*
X75423668Y-106486279D01*
X75425062Y-106481377D01*
X75425762Y-106474277D01*
X75447043Y-106404120D01*
X75476911Y-106299146D01*
X75481967Y-106288990D01*
X75485769Y-106276460D01*
X75521412Y-106209775D01*
X75563629Y-106124994D01*
X75574238Y-106110944D01*
X75583215Y-106094151D01*
X75629626Y-106037598D01*
X75680876Y-105969733D01*
X75698531Y-105953637D01*
X75714356Y-105934356D01*
X75767761Y-105890527D01*
X75824654Y-105838663D01*
X75850327Y-105822766D01*
X75874151Y-105803215D01*
X75930849Y-105772909D01*
X75990062Y-105736246D01*
X76024140Y-105723043D01*
X76056460Y-105705769D01*
X76113026Y-105688609D01*
X76171485Y-105665963D01*
X76213692Y-105658073D01*
X76254277Y-105645762D01*
X76307701Y-105640500D01*
X76362723Y-105630215D01*
X76412128Y-105630215D01*
X76460000Y-105625500D01*
X76507872Y-105630215D01*
G37*
G36*
X79047872Y-105630215D02*
G01*
X79097277Y-105630215D01*
X79152297Y-105640500D01*
X79205723Y-105645762D01*
X79246309Y-105658073D01*
X79288514Y-105665963D01*
X79346969Y-105688608D01*
X79403540Y-105705769D01*
X79435861Y-105723045D01*
X79469937Y-105736246D01*
X79529143Y-105772905D01*
X79585849Y-105803215D01*
X79609675Y-105822769D01*
X79635345Y-105838663D01*
X79692228Y-105890519D01*
X79745644Y-105934356D01*
X79761471Y-105953641D01*
X79779123Y-105969733D01*
X79830361Y-106037583D01*
X79876785Y-106094151D01*
X79885763Y-106110948D01*
X79896370Y-106124994D01*
X79938572Y-106209748D01*
X79974231Y-106276460D01*
X79978033Y-106288995D01*
X79983088Y-106299146D01*
X80012940Y-106404067D01*
X80034238Y-106474277D01*
X80034937Y-106481382D01*
X80036331Y-106486279D01*
X80050815Y-106642590D01*
X80054500Y-106680000D01*
X80050815Y-106717412D01*
X80036331Y-106873720D01*
X80034937Y-106878616D01*
X80034238Y-106885723D01*
X80012935Y-106955948D01*
X79983088Y-107060853D01*
X79978034Y-107071002D01*
X79974231Y-107083540D01*
X79938565Y-107150265D01*
X79896370Y-107235005D01*
X79885765Y-107249047D01*
X79876785Y-107265849D01*
X79830351Y-107322428D01*
X79779123Y-107390266D01*
X79761474Y-107406354D01*
X79745644Y-107425644D01*
X79692217Y-107469489D01*
X79635345Y-107521336D01*
X79609680Y-107537226D01*
X79585849Y-107556785D01*
X79529131Y-107587101D01*
X79469937Y-107623753D01*
X79435868Y-107636951D01*
X79403540Y-107654231D01*
X79346957Y-107671395D01*
X79288514Y-107694036D01*
X79246315Y-107701924D01*
X79205723Y-107714238D01*
X79152294Y-107719500D01*
X79097277Y-107729785D01*
X79047872Y-107729785D01*
X79000000Y-107734500D01*
X78952128Y-107729785D01*
X78902723Y-107729785D01*
X78847704Y-107719500D01*
X78794277Y-107714238D01*
X78753685Y-107701924D01*
X78711485Y-107694036D01*
X78653037Y-107671393D01*
X78596460Y-107654231D01*
X78564134Y-107636952D01*
X78530062Y-107623753D01*
X78470861Y-107587097D01*
X78414151Y-107556785D01*
X78390322Y-107537229D01*
X78364654Y-107521336D01*
X78307772Y-107469481D01*
X78254356Y-107425644D01*
X78238528Y-107406358D01*
X78220876Y-107390266D01*
X78169635Y-107322412D01*
X78123215Y-107265849D01*
X78114237Y-107249052D01*
X78103629Y-107235005D01*
X78061419Y-107150237D01*
X78025769Y-107083540D01*
X78021967Y-107071007D01*
X78016911Y-107060853D01*
X77987048Y-106955894D01*
X77965762Y-106885723D01*
X77965062Y-106878621D01*
X77963668Y-106873720D01*
X77949167Y-106717240D01*
X77945500Y-106680000D01*
X77949167Y-106642762D01*
X77963668Y-106486279D01*
X77965062Y-106481377D01*
X77965762Y-106474277D01*
X77987043Y-106404120D01*
X78016911Y-106299146D01*
X78021967Y-106288990D01*
X78025769Y-106276460D01*
X78061412Y-106209775D01*
X78103629Y-106124994D01*
X78114238Y-106110944D01*
X78123215Y-106094151D01*
X78169626Y-106037598D01*
X78220876Y-105969733D01*
X78238531Y-105953637D01*
X78254356Y-105934356D01*
X78307761Y-105890527D01*
X78364654Y-105838663D01*
X78390327Y-105822766D01*
X78414151Y-105803215D01*
X78470849Y-105772909D01*
X78530062Y-105736246D01*
X78564140Y-105723043D01*
X78596460Y-105705769D01*
X78653026Y-105688609D01*
X78711485Y-105665963D01*
X78753692Y-105658073D01*
X78794277Y-105645762D01*
X78847701Y-105640500D01*
X78902723Y-105630215D01*
X78952128Y-105630215D01*
X79000000Y-105625500D01*
X79047872Y-105630215D01*
G37*
G36*
X81587872Y-105630215D02*
G01*
X81637277Y-105630215D01*
X81692297Y-105640500D01*
X81745723Y-105645762D01*
X81786309Y-105658073D01*
X81828514Y-105665963D01*
X81886969Y-105688608D01*
X81943540Y-105705769D01*
X81975861Y-105723045D01*
X82009937Y-105736246D01*
X82069143Y-105772905D01*
X82125849Y-105803215D01*
X82149675Y-105822769D01*
X82175345Y-105838663D01*
X82232228Y-105890519D01*
X82285644Y-105934356D01*
X82301471Y-105953641D01*
X82319123Y-105969733D01*
X82370361Y-106037583D01*
X82416785Y-106094151D01*
X82425763Y-106110948D01*
X82436370Y-106124994D01*
X82478572Y-106209748D01*
X82514231Y-106276460D01*
X82518033Y-106288995D01*
X82523088Y-106299146D01*
X82552940Y-106404067D01*
X82574238Y-106474277D01*
X82574937Y-106481382D01*
X82576331Y-106486279D01*
X82590815Y-106642590D01*
X82594500Y-106680000D01*
X82590815Y-106717412D01*
X82576331Y-106873720D01*
X82574937Y-106878616D01*
X82574238Y-106885723D01*
X82552935Y-106955948D01*
X82523088Y-107060853D01*
X82518034Y-107071002D01*
X82514231Y-107083540D01*
X82478565Y-107150265D01*
X82436370Y-107235005D01*
X82425765Y-107249047D01*
X82416785Y-107265849D01*
X82370351Y-107322428D01*
X82319123Y-107390266D01*
X82301474Y-107406354D01*
X82285644Y-107425644D01*
X82232217Y-107469489D01*
X82175345Y-107521336D01*
X82149680Y-107537226D01*
X82125849Y-107556785D01*
X82069131Y-107587101D01*
X82009937Y-107623753D01*
X81975868Y-107636951D01*
X81943540Y-107654231D01*
X81886957Y-107671395D01*
X81828514Y-107694036D01*
X81786315Y-107701924D01*
X81745723Y-107714238D01*
X81692294Y-107719500D01*
X81637277Y-107729785D01*
X81587872Y-107729785D01*
X81540000Y-107734500D01*
X81492128Y-107729785D01*
X81442723Y-107729785D01*
X81387704Y-107719500D01*
X81334277Y-107714238D01*
X81293685Y-107701924D01*
X81251485Y-107694036D01*
X81193037Y-107671393D01*
X81136460Y-107654231D01*
X81104134Y-107636952D01*
X81070062Y-107623753D01*
X81010861Y-107587097D01*
X80954151Y-107556785D01*
X80930322Y-107537229D01*
X80904654Y-107521336D01*
X80847772Y-107469481D01*
X80794356Y-107425644D01*
X80778528Y-107406358D01*
X80760876Y-107390266D01*
X80709635Y-107322412D01*
X80663215Y-107265849D01*
X80654237Y-107249052D01*
X80643629Y-107235005D01*
X80601419Y-107150237D01*
X80565769Y-107083540D01*
X80561967Y-107071007D01*
X80556911Y-107060853D01*
X80527048Y-106955894D01*
X80505762Y-106885723D01*
X80505062Y-106878621D01*
X80503668Y-106873720D01*
X80489167Y-106717240D01*
X80485500Y-106680000D01*
X80489167Y-106642762D01*
X80503668Y-106486279D01*
X80505062Y-106481377D01*
X80505762Y-106474277D01*
X80527043Y-106404120D01*
X80556911Y-106299146D01*
X80561967Y-106288990D01*
X80565769Y-106276460D01*
X80601412Y-106209775D01*
X80643629Y-106124994D01*
X80654238Y-106110944D01*
X80663215Y-106094151D01*
X80709626Y-106037598D01*
X80760876Y-105969733D01*
X80778531Y-105953637D01*
X80794356Y-105934356D01*
X80847761Y-105890527D01*
X80904654Y-105838663D01*
X80930327Y-105822766D01*
X80954151Y-105803215D01*
X81010849Y-105772909D01*
X81070062Y-105736246D01*
X81104140Y-105723043D01*
X81136460Y-105705769D01*
X81193026Y-105688609D01*
X81251485Y-105665963D01*
X81293692Y-105658073D01*
X81334277Y-105645762D01*
X81387701Y-105640500D01*
X81442723Y-105630215D01*
X81492128Y-105630215D01*
X81540000Y-105625500D01*
X81587872Y-105630215D01*
G37*
G36*
X84127872Y-105630215D02*
G01*
X84177277Y-105630215D01*
X84232297Y-105640500D01*
X84285723Y-105645762D01*
X84326309Y-105658073D01*
X84368514Y-105665963D01*
X84426969Y-105688608D01*
X84483540Y-105705769D01*
X84515861Y-105723045D01*
X84549937Y-105736246D01*
X84609143Y-105772905D01*
X84665849Y-105803215D01*
X84689675Y-105822769D01*
X84715345Y-105838663D01*
X84772228Y-105890519D01*
X84825644Y-105934356D01*
X84841471Y-105953641D01*
X84859123Y-105969733D01*
X84910361Y-106037583D01*
X84956785Y-106094151D01*
X84965763Y-106110948D01*
X84976370Y-106124994D01*
X85018572Y-106209748D01*
X85054231Y-106276460D01*
X85058033Y-106288995D01*
X85063088Y-106299146D01*
X85092940Y-106404067D01*
X85114238Y-106474277D01*
X85114937Y-106481382D01*
X85116331Y-106486279D01*
X85130815Y-106642590D01*
X85134500Y-106680000D01*
X85130815Y-106717412D01*
X85116331Y-106873720D01*
X85114937Y-106878616D01*
X85114238Y-106885723D01*
X85092935Y-106955948D01*
X85063088Y-107060853D01*
X85058034Y-107071002D01*
X85054231Y-107083540D01*
X85018565Y-107150265D01*
X84976370Y-107235005D01*
X84965765Y-107249047D01*
X84956785Y-107265849D01*
X84910351Y-107322428D01*
X84859123Y-107390266D01*
X84841474Y-107406354D01*
X84825644Y-107425644D01*
X84772217Y-107469489D01*
X84715345Y-107521336D01*
X84689680Y-107537226D01*
X84665849Y-107556785D01*
X84609131Y-107587101D01*
X84549937Y-107623753D01*
X84515868Y-107636951D01*
X84483540Y-107654231D01*
X84426957Y-107671395D01*
X84368514Y-107694036D01*
X84326315Y-107701924D01*
X84285723Y-107714238D01*
X84232294Y-107719500D01*
X84177277Y-107729785D01*
X84127872Y-107729785D01*
X84080000Y-107734500D01*
X84032128Y-107729785D01*
X83982723Y-107729785D01*
X83927704Y-107719500D01*
X83874277Y-107714238D01*
X83833685Y-107701924D01*
X83791485Y-107694036D01*
X83733037Y-107671393D01*
X83676460Y-107654231D01*
X83644134Y-107636952D01*
X83610062Y-107623753D01*
X83550861Y-107587097D01*
X83494151Y-107556785D01*
X83470322Y-107537229D01*
X83444654Y-107521336D01*
X83387772Y-107469481D01*
X83334356Y-107425644D01*
X83318528Y-107406358D01*
X83300876Y-107390266D01*
X83249635Y-107322412D01*
X83203215Y-107265849D01*
X83194237Y-107249052D01*
X83183629Y-107235005D01*
X83141419Y-107150237D01*
X83105769Y-107083540D01*
X83101967Y-107071007D01*
X83096911Y-107060853D01*
X83067048Y-106955894D01*
X83045762Y-106885723D01*
X83045062Y-106878621D01*
X83043668Y-106873720D01*
X83029167Y-106717240D01*
X83025500Y-106680000D01*
X83029167Y-106642762D01*
X83043668Y-106486279D01*
X83045062Y-106481377D01*
X83045762Y-106474277D01*
X83067043Y-106404120D01*
X83096911Y-106299146D01*
X83101967Y-106288990D01*
X83105769Y-106276460D01*
X83141412Y-106209775D01*
X83183629Y-106124994D01*
X83194238Y-106110944D01*
X83203215Y-106094151D01*
X83249626Y-106037598D01*
X83300876Y-105969733D01*
X83318531Y-105953637D01*
X83334356Y-105934356D01*
X83387761Y-105890527D01*
X83444654Y-105838663D01*
X83470327Y-105822766D01*
X83494151Y-105803215D01*
X83550849Y-105772909D01*
X83610062Y-105736246D01*
X83644140Y-105723043D01*
X83676460Y-105705769D01*
X83733026Y-105688609D01*
X83791485Y-105665963D01*
X83833692Y-105658073D01*
X83874277Y-105645762D01*
X83927701Y-105640500D01*
X83982723Y-105630215D01*
X84032128Y-105630215D01*
X84080000Y-105625500D01*
X84127872Y-105630215D01*
G37*
G36*
X86667872Y-105630215D02*
G01*
X86717277Y-105630215D01*
X86772297Y-105640500D01*
X86825723Y-105645762D01*
X86866309Y-105658073D01*
X86908514Y-105665963D01*
X86966969Y-105688608D01*
X87023540Y-105705769D01*
X87055861Y-105723045D01*
X87089937Y-105736246D01*
X87149143Y-105772905D01*
X87205849Y-105803215D01*
X87229675Y-105822769D01*
X87255345Y-105838663D01*
X87312228Y-105890519D01*
X87365644Y-105934356D01*
X87381471Y-105953641D01*
X87399123Y-105969733D01*
X87450361Y-106037583D01*
X87496785Y-106094151D01*
X87505763Y-106110948D01*
X87516370Y-106124994D01*
X87558572Y-106209748D01*
X87594231Y-106276460D01*
X87598033Y-106288995D01*
X87603088Y-106299146D01*
X87632940Y-106404067D01*
X87654238Y-106474277D01*
X87654937Y-106481382D01*
X87656331Y-106486279D01*
X87670815Y-106642590D01*
X87674500Y-106680000D01*
X87670815Y-106717412D01*
X87656331Y-106873720D01*
X87654937Y-106878616D01*
X87654238Y-106885723D01*
X87632935Y-106955948D01*
X87603088Y-107060853D01*
X87598034Y-107071002D01*
X87594231Y-107083540D01*
X87558565Y-107150265D01*
X87516370Y-107235005D01*
X87505765Y-107249047D01*
X87496785Y-107265849D01*
X87450351Y-107322428D01*
X87399123Y-107390266D01*
X87381474Y-107406354D01*
X87365644Y-107425644D01*
X87312217Y-107469489D01*
X87255345Y-107521336D01*
X87229680Y-107537226D01*
X87205849Y-107556785D01*
X87149131Y-107587101D01*
X87089937Y-107623753D01*
X87055868Y-107636951D01*
X87023540Y-107654231D01*
X86966957Y-107671395D01*
X86908514Y-107694036D01*
X86866315Y-107701924D01*
X86825723Y-107714238D01*
X86772294Y-107719500D01*
X86717277Y-107729785D01*
X86667872Y-107729785D01*
X86620000Y-107734500D01*
X86572128Y-107729785D01*
X86522723Y-107729785D01*
X86467704Y-107719500D01*
X86414277Y-107714238D01*
X86373685Y-107701924D01*
X86331485Y-107694036D01*
X86273037Y-107671393D01*
X86216460Y-107654231D01*
X86184134Y-107636952D01*
X86150062Y-107623753D01*
X86090861Y-107587097D01*
X86034151Y-107556785D01*
X86010322Y-107537229D01*
X85984654Y-107521336D01*
X85927772Y-107469481D01*
X85874356Y-107425644D01*
X85858528Y-107406358D01*
X85840876Y-107390266D01*
X85789635Y-107322412D01*
X85743215Y-107265849D01*
X85734237Y-107249052D01*
X85723629Y-107235005D01*
X85681419Y-107150237D01*
X85645769Y-107083540D01*
X85641967Y-107071007D01*
X85636911Y-107060853D01*
X85607048Y-106955894D01*
X85585762Y-106885723D01*
X85585062Y-106878621D01*
X85583668Y-106873720D01*
X85569167Y-106717240D01*
X85565500Y-106680000D01*
X85569167Y-106642762D01*
X85583668Y-106486279D01*
X85585062Y-106481377D01*
X85585762Y-106474277D01*
X85607043Y-106404120D01*
X85636911Y-106299146D01*
X85641967Y-106288990D01*
X85645769Y-106276460D01*
X85681412Y-106209775D01*
X85723629Y-106124994D01*
X85734238Y-106110944D01*
X85743215Y-106094151D01*
X85789626Y-106037598D01*
X85840876Y-105969733D01*
X85858531Y-105953637D01*
X85874356Y-105934356D01*
X85927761Y-105890527D01*
X85984654Y-105838663D01*
X86010327Y-105822766D01*
X86034151Y-105803215D01*
X86090849Y-105772909D01*
X86150062Y-105736246D01*
X86184140Y-105723043D01*
X86216460Y-105705769D01*
X86273026Y-105688609D01*
X86331485Y-105665963D01*
X86373692Y-105658073D01*
X86414277Y-105645762D01*
X86467701Y-105640500D01*
X86522723Y-105630215D01*
X86572128Y-105630215D01*
X86620000Y-105625500D01*
X86667872Y-105630215D01*
G37*
G36*
X89207872Y-105630215D02*
G01*
X89257277Y-105630215D01*
X89312297Y-105640500D01*
X89365723Y-105645762D01*
X89406309Y-105658073D01*
X89448514Y-105665963D01*
X89506969Y-105688608D01*
X89563540Y-105705769D01*
X89595861Y-105723045D01*
X89629937Y-105736246D01*
X89689143Y-105772905D01*
X89745849Y-105803215D01*
X89769675Y-105822769D01*
X89795345Y-105838663D01*
X89852228Y-105890519D01*
X89905644Y-105934356D01*
X89921471Y-105953641D01*
X89939123Y-105969733D01*
X89990361Y-106037583D01*
X90036785Y-106094151D01*
X90045763Y-106110948D01*
X90056370Y-106124994D01*
X90098572Y-106209748D01*
X90134231Y-106276460D01*
X90138033Y-106288995D01*
X90143088Y-106299146D01*
X90172940Y-106404067D01*
X90194238Y-106474277D01*
X90194937Y-106481382D01*
X90196331Y-106486279D01*
X90210815Y-106642590D01*
X90214500Y-106680000D01*
X90210815Y-106717412D01*
X90196331Y-106873720D01*
X90194937Y-106878616D01*
X90194238Y-106885723D01*
X90172935Y-106955948D01*
X90143088Y-107060853D01*
X90138034Y-107071002D01*
X90134231Y-107083540D01*
X90098565Y-107150265D01*
X90056370Y-107235005D01*
X90045765Y-107249047D01*
X90036785Y-107265849D01*
X89990351Y-107322428D01*
X89939123Y-107390266D01*
X89921474Y-107406354D01*
X89905644Y-107425644D01*
X89852217Y-107469489D01*
X89795345Y-107521336D01*
X89769680Y-107537226D01*
X89745849Y-107556785D01*
X89689131Y-107587101D01*
X89629937Y-107623753D01*
X89595868Y-107636951D01*
X89563540Y-107654231D01*
X89506957Y-107671395D01*
X89448514Y-107694036D01*
X89406315Y-107701924D01*
X89365723Y-107714238D01*
X89312294Y-107719500D01*
X89257277Y-107729785D01*
X89207872Y-107729785D01*
X89160000Y-107734500D01*
X89112128Y-107729785D01*
X89062723Y-107729785D01*
X89007704Y-107719500D01*
X88954277Y-107714238D01*
X88913685Y-107701924D01*
X88871485Y-107694036D01*
X88813037Y-107671393D01*
X88756460Y-107654231D01*
X88724134Y-107636952D01*
X88690062Y-107623753D01*
X88630861Y-107587097D01*
X88574151Y-107556785D01*
X88550322Y-107537229D01*
X88524654Y-107521336D01*
X88467772Y-107469481D01*
X88414356Y-107425644D01*
X88398528Y-107406358D01*
X88380876Y-107390266D01*
X88329635Y-107322412D01*
X88283215Y-107265849D01*
X88274237Y-107249052D01*
X88263629Y-107235005D01*
X88221419Y-107150237D01*
X88185769Y-107083540D01*
X88181967Y-107071007D01*
X88176911Y-107060853D01*
X88147048Y-106955894D01*
X88125762Y-106885723D01*
X88125062Y-106878621D01*
X88123668Y-106873720D01*
X88109167Y-106717240D01*
X88105500Y-106680000D01*
X88109167Y-106642762D01*
X88123668Y-106486279D01*
X88125062Y-106481377D01*
X88125762Y-106474277D01*
X88147043Y-106404120D01*
X88176911Y-106299146D01*
X88181967Y-106288990D01*
X88185769Y-106276460D01*
X88221412Y-106209775D01*
X88263629Y-106124994D01*
X88274238Y-106110944D01*
X88283215Y-106094151D01*
X88329626Y-106037598D01*
X88380876Y-105969733D01*
X88398531Y-105953637D01*
X88414356Y-105934356D01*
X88467761Y-105890527D01*
X88524654Y-105838663D01*
X88550327Y-105822766D01*
X88574151Y-105803215D01*
X88630849Y-105772909D01*
X88690062Y-105736246D01*
X88724140Y-105723043D01*
X88756460Y-105705769D01*
X88813026Y-105688609D01*
X88871485Y-105665963D01*
X88913692Y-105658073D01*
X88954277Y-105645762D01*
X89007701Y-105640500D01*
X89062723Y-105630215D01*
X89112128Y-105630215D01*
X89160000Y-105625500D01*
X89207872Y-105630215D01*
G37*
G36*
X91747872Y-105630215D02*
G01*
X91797277Y-105630215D01*
X91852297Y-105640500D01*
X91905723Y-105645762D01*
X91946309Y-105658073D01*
X91988514Y-105665963D01*
X92046969Y-105688608D01*
X92103540Y-105705769D01*
X92135861Y-105723045D01*
X92169937Y-105736246D01*
X92229143Y-105772905D01*
X92285849Y-105803215D01*
X92309675Y-105822769D01*
X92335345Y-105838663D01*
X92392228Y-105890519D01*
X92445644Y-105934356D01*
X92461471Y-105953641D01*
X92479123Y-105969733D01*
X92530361Y-106037583D01*
X92576785Y-106094151D01*
X92585763Y-106110948D01*
X92596370Y-106124994D01*
X92638572Y-106209748D01*
X92674231Y-106276460D01*
X92678033Y-106288995D01*
X92683088Y-106299146D01*
X92712940Y-106404067D01*
X92734238Y-106474277D01*
X92734937Y-106481382D01*
X92736331Y-106486279D01*
X92750815Y-106642590D01*
X92754500Y-106680000D01*
X92750815Y-106717412D01*
X92736331Y-106873720D01*
X92734937Y-106878616D01*
X92734238Y-106885723D01*
X92712935Y-106955948D01*
X92683088Y-107060853D01*
X92678034Y-107071002D01*
X92674231Y-107083540D01*
X92638565Y-107150265D01*
X92596370Y-107235005D01*
X92585765Y-107249047D01*
X92576785Y-107265849D01*
X92530351Y-107322428D01*
X92479123Y-107390266D01*
X92461474Y-107406354D01*
X92445644Y-107425644D01*
X92392217Y-107469489D01*
X92335345Y-107521336D01*
X92309680Y-107537226D01*
X92285849Y-107556785D01*
X92229131Y-107587101D01*
X92169937Y-107623753D01*
X92135868Y-107636951D01*
X92103540Y-107654231D01*
X92046957Y-107671395D01*
X91988514Y-107694036D01*
X91946315Y-107701924D01*
X91905723Y-107714238D01*
X91852294Y-107719500D01*
X91797277Y-107729785D01*
X91747872Y-107729785D01*
X91700000Y-107734500D01*
X91652128Y-107729785D01*
X91602723Y-107729785D01*
X91547704Y-107719500D01*
X91494277Y-107714238D01*
X91453685Y-107701924D01*
X91411485Y-107694036D01*
X91353037Y-107671393D01*
X91296460Y-107654231D01*
X91264134Y-107636952D01*
X91230062Y-107623753D01*
X91170861Y-107587097D01*
X91114151Y-107556785D01*
X91090322Y-107537229D01*
X91064654Y-107521336D01*
X91007772Y-107469481D01*
X90954356Y-107425644D01*
X90938528Y-107406358D01*
X90920876Y-107390266D01*
X90869635Y-107322412D01*
X90823215Y-107265849D01*
X90814237Y-107249052D01*
X90803629Y-107235005D01*
X90761419Y-107150237D01*
X90725769Y-107083540D01*
X90721967Y-107071007D01*
X90716911Y-107060853D01*
X90687048Y-106955894D01*
X90665762Y-106885723D01*
X90665062Y-106878621D01*
X90663668Y-106873720D01*
X90649167Y-106717240D01*
X90645500Y-106680000D01*
X90649167Y-106642762D01*
X90663668Y-106486279D01*
X90665062Y-106481377D01*
X90665762Y-106474277D01*
X90687043Y-106404120D01*
X90716911Y-106299146D01*
X90721967Y-106288990D01*
X90725769Y-106276460D01*
X90761412Y-106209775D01*
X90803629Y-106124994D01*
X90814238Y-106110944D01*
X90823215Y-106094151D01*
X90869626Y-106037598D01*
X90920876Y-105969733D01*
X90938531Y-105953637D01*
X90954356Y-105934356D01*
X91007761Y-105890527D01*
X91064654Y-105838663D01*
X91090327Y-105822766D01*
X91114151Y-105803215D01*
X91170849Y-105772909D01*
X91230062Y-105736246D01*
X91264140Y-105723043D01*
X91296460Y-105705769D01*
X91353026Y-105688609D01*
X91411485Y-105665963D01*
X91453692Y-105658073D01*
X91494277Y-105645762D01*
X91547701Y-105640500D01*
X91602723Y-105630215D01*
X91652128Y-105630215D01*
X91700000Y-105625500D01*
X91747872Y-105630215D01*
G37*
G36*
X94287872Y-105630215D02*
G01*
X94337277Y-105630215D01*
X94392297Y-105640500D01*
X94445723Y-105645762D01*
X94486309Y-105658073D01*
X94528514Y-105665963D01*
X94586969Y-105688608D01*
X94643540Y-105705769D01*
X94675861Y-105723045D01*
X94709937Y-105736246D01*
X94769143Y-105772905D01*
X94825849Y-105803215D01*
X94849675Y-105822769D01*
X94875345Y-105838663D01*
X94932228Y-105890519D01*
X94985644Y-105934356D01*
X95001471Y-105953641D01*
X95019123Y-105969733D01*
X95070361Y-106037583D01*
X95116785Y-106094151D01*
X95125763Y-106110948D01*
X95136370Y-106124994D01*
X95178572Y-106209748D01*
X95214231Y-106276460D01*
X95218033Y-106288995D01*
X95223088Y-106299146D01*
X95252940Y-106404067D01*
X95274238Y-106474277D01*
X95274937Y-106481382D01*
X95276331Y-106486279D01*
X95290815Y-106642590D01*
X95294500Y-106680000D01*
X95290815Y-106717412D01*
X95276331Y-106873720D01*
X95274937Y-106878616D01*
X95274238Y-106885723D01*
X95252935Y-106955948D01*
X95223088Y-107060853D01*
X95218034Y-107071002D01*
X95214231Y-107083540D01*
X95178565Y-107150265D01*
X95136370Y-107235005D01*
X95125765Y-107249047D01*
X95116785Y-107265849D01*
X95070351Y-107322428D01*
X95019123Y-107390266D01*
X95001474Y-107406354D01*
X94985644Y-107425644D01*
X94932217Y-107469489D01*
X94875345Y-107521336D01*
X94849680Y-107537226D01*
X94825849Y-107556785D01*
X94769131Y-107587101D01*
X94709937Y-107623753D01*
X94675868Y-107636951D01*
X94643540Y-107654231D01*
X94586957Y-107671395D01*
X94528514Y-107694036D01*
X94486315Y-107701924D01*
X94445723Y-107714238D01*
X94392294Y-107719500D01*
X94337277Y-107729785D01*
X94287872Y-107729785D01*
X94240000Y-107734500D01*
X94192128Y-107729785D01*
X94142723Y-107729785D01*
X94087704Y-107719500D01*
X94034277Y-107714238D01*
X93993685Y-107701924D01*
X93951485Y-107694036D01*
X93893037Y-107671393D01*
X93836460Y-107654231D01*
X93804134Y-107636952D01*
X93770062Y-107623753D01*
X93710861Y-107587097D01*
X93654151Y-107556785D01*
X93630322Y-107537229D01*
X93604654Y-107521336D01*
X93547772Y-107469481D01*
X93494356Y-107425644D01*
X93478528Y-107406358D01*
X93460876Y-107390266D01*
X93409635Y-107322412D01*
X93363215Y-107265849D01*
X93354237Y-107249052D01*
X93343629Y-107235005D01*
X93301419Y-107150237D01*
X93265769Y-107083540D01*
X93261967Y-107071007D01*
X93256911Y-107060853D01*
X93227048Y-106955894D01*
X93205762Y-106885723D01*
X93205062Y-106878621D01*
X93203668Y-106873720D01*
X93189167Y-106717240D01*
X93185500Y-106680000D01*
X93189167Y-106642762D01*
X93203668Y-106486279D01*
X93205062Y-106481377D01*
X93205762Y-106474277D01*
X93227043Y-106404120D01*
X93256911Y-106299146D01*
X93261967Y-106288990D01*
X93265769Y-106276460D01*
X93301412Y-106209775D01*
X93343629Y-106124994D01*
X93354238Y-106110944D01*
X93363215Y-106094151D01*
X93409626Y-106037598D01*
X93460876Y-105969733D01*
X93478531Y-105953637D01*
X93494356Y-105934356D01*
X93547761Y-105890527D01*
X93604654Y-105838663D01*
X93630327Y-105822766D01*
X93654151Y-105803215D01*
X93710849Y-105772909D01*
X93770062Y-105736246D01*
X93804140Y-105723043D01*
X93836460Y-105705769D01*
X93893026Y-105688609D01*
X93951485Y-105665963D01*
X93993692Y-105658073D01*
X94034277Y-105645762D01*
X94087701Y-105640500D01*
X94142723Y-105630215D01*
X94192128Y-105630215D01*
X94240000Y-105625500D01*
X94287872Y-105630215D01*
G37*
G36*
X60204230Y-83238261D02*
G01*
X60250738Y-83238261D01*
X60290894Y-83246796D01*
X60332192Y-83250864D01*
X60384077Y-83266603D01*
X60434777Y-83277380D01*
X60467220Y-83291824D01*
X60500981Y-83302066D01*
X60554629Y-83330741D01*
X60606662Y-83353908D01*
X60630854Y-83371484D01*
X60656540Y-83385214D01*
X60708933Y-83428212D01*
X60758880Y-83464501D01*
X60775098Y-83482513D01*
X60792883Y-83497109D01*
X60840680Y-83555349D01*
X60884777Y-83604324D01*
X60894039Y-83620367D01*
X60904778Y-83633452D01*
X60944502Y-83707771D01*
X60978853Y-83767268D01*
X60982804Y-83779429D01*
X60987926Y-83789011D01*
X61016166Y-83882106D01*
X61036995Y-83946210D01*
X61037728Y-83953185D01*
X61039128Y-83957800D01*
X61052752Y-84096133D01*
X61056662Y-84133331D01*
X61052752Y-84170531D01*
X61039128Y-84308861D01*
X61037728Y-84313475D01*
X61036995Y-84320452D01*
X61016162Y-84384569D01*
X60987926Y-84477650D01*
X60982805Y-84487230D01*
X60978853Y-84499394D01*
X60944495Y-84558903D01*
X60904778Y-84633209D01*
X60894041Y-84646291D01*
X60884777Y-84662338D01*
X60840671Y-84711322D01*
X60792883Y-84769552D01*
X60775101Y-84784144D01*
X60758880Y-84802161D01*
X60708922Y-84838457D01*
X60656540Y-84881447D01*
X60630859Y-84895173D01*
X60606662Y-84912754D01*
X60554617Y-84935925D01*
X60500981Y-84964595D01*
X60467227Y-84974834D01*
X60434777Y-84989282D01*
X60384066Y-85000060D01*
X60332192Y-85015797D01*
X60290903Y-85019863D01*
X60250738Y-85028401D01*
X60204220Y-85028401D01*
X60156662Y-85033085D01*
X60109104Y-85028401D01*
X60062586Y-85028401D01*
X60022421Y-85019863D01*
X59981131Y-85015797D01*
X59929254Y-85000060D01*
X59878547Y-84989282D01*
X59846098Y-84974834D01*
X59812342Y-84964595D01*
X59758700Y-84935922D01*
X59706662Y-84912754D01*
X59682467Y-84895175D01*
X59656783Y-84881447D01*
X59604392Y-84838450D01*
X59554444Y-84802161D01*
X59538224Y-84784147D01*
X59520440Y-84769552D01*
X59472641Y-84711309D01*
X59428547Y-84662338D01*
X59419284Y-84646295D01*
X59408545Y-84633209D01*
X59368815Y-84558879D01*
X59334471Y-84499394D01*
X59330520Y-84487234D01*
X59325397Y-84477650D01*
X59297146Y-84384522D01*
X59276329Y-84320452D01*
X59275596Y-84313480D01*
X59274195Y-84308861D01*
X59260555Y-84170380D01*
X59256662Y-84133331D01*
X59260555Y-84096284D01*
X59274195Y-83957800D01*
X59275596Y-83953180D01*
X59276329Y-83946210D01*
X59297142Y-83882153D01*
X59325397Y-83789011D01*
X59330521Y-83779424D01*
X59334471Y-83767268D01*
X59368807Y-83707794D01*
X59408545Y-83633452D01*
X59419286Y-83620363D01*
X59428547Y-83604324D01*
X59472632Y-83555362D01*
X59520440Y-83497109D01*
X59538228Y-83482510D01*
X59554444Y-83464501D01*
X59604381Y-83428219D01*
X59656783Y-83385214D01*
X59682472Y-83371482D01*
X59706662Y-83353908D01*
X59758688Y-83330744D01*
X59812342Y-83302066D01*
X59846105Y-83291823D01*
X59878547Y-83277380D01*
X59929243Y-83266604D01*
X59981131Y-83250864D01*
X60022430Y-83246796D01*
X60062586Y-83238261D01*
X60109094Y-83238261D01*
X60156662Y-83233576D01*
X60204230Y-83238261D01*
G37*
G36*
X60204242Y-80971595D02*
G01*
X60250750Y-80971595D01*
X60290906Y-80980130D01*
X60332204Y-80984198D01*
X60384089Y-80999937D01*
X60434789Y-81010714D01*
X60467232Y-81025158D01*
X60500993Y-81035400D01*
X60554641Y-81064075D01*
X60606674Y-81087242D01*
X60630866Y-81104818D01*
X60656552Y-81118548D01*
X60708945Y-81161546D01*
X60758892Y-81197835D01*
X60775110Y-81215847D01*
X60792895Y-81230443D01*
X60840692Y-81288683D01*
X60884789Y-81337658D01*
X60894051Y-81353701D01*
X60904790Y-81366786D01*
X60944514Y-81441105D01*
X60978865Y-81500602D01*
X60982816Y-81512763D01*
X60987938Y-81522345D01*
X61016178Y-81615440D01*
X61037007Y-81679544D01*
X61037740Y-81686519D01*
X61039140Y-81691134D01*
X61052764Y-81829467D01*
X61056674Y-81866665D01*
X61052764Y-81903865D01*
X61039140Y-82042195D01*
X61037740Y-82046809D01*
X61037007Y-82053786D01*
X61016174Y-82117903D01*
X60987938Y-82210984D01*
X60982817Y-82220564D01*
X60978865Y-82232728D01*
X60944507Y-82292237D01*
X60904790Y-82366543D01*
X60894053Y-82379625D01*
X60884789Y-82395672D01*
X60840683Y-82444656D01*
X60792895Y-82502886D01*
X60775113Y-82517478D01*
X60758892Y-82535495D01*
X60708934Y-82571791D01*
X60656552Y-82614781D01*
X60630871Y-82628507D01*
X60606674Y-82646088D01*
X60554629Y-82669259D01*
X60500993Y-82697929D01*
X60467239Y-82708168D01*
X60434789Y-82722616D01*
X60384078Y-82733394D01*
X60332204Y-82749131D01*
X60290915Y-82753197D01*
X60250750Y-82761735D01*
X60204232Y-82761735D01*
X60156674Y-82766419D01*
X60109116Y-82761735D01*
X60062598Y-82761735D01*
X60022433Y-82753197D01*
X59981143Y-82749131D01*
X59929266Y-82733394D01*
X59878559Y-82722616D01*
X59846110Y-82708168D01*
X59812354Y-82697929D01*
X59758712Y-82669256D01*
X59706674Y-82646088D01*
X59682479Y-82628509D01*
X59656795Y-82614781D01*
X59604404Y-82571784D01*
X59554456Y-82535495D01*
X59538236Y-82517481D01*
X59520452Y-82502886D01*
X59472653Y-82444643D01*
X59428559Y-82395672D01*
X59419296Y-82379629D01*
X59408557Y-82366543D01*
X59368827Y-82292213D01*
X59334483Y-82232728D01*
X59330532Y-82220568D01*
X59325409Y-82210984D01*
X59297158Y-82117856D01*
X59276341Y-82053786D01*
X59275608Y-82046814D01*
X59274207Y-82042195D01*
X59260567Y-81903714D01*
X59256674Y-81866665D01*
X59260567Y-81829618D01*
X59274207Y-81691134D01*
X59275608Y-81686514D01*
X59276341Y-81679544D01*
X59297154Y-81615487D01*
X59325409Y-81522345D01*
X59330533Y-81512758D01*
X59334483Y-81500602D01*
X59368819Y-81441128D01*
X59408557Y-81366786D01*
X59419298Y-81353697D01*
X59428559Y-81337658D01*
X59472644Y-81288696D01*
X59520452Y-81230443D01*
X59538240Y-81215844D01*
X59554456Y-81197835D01*
X59604393Y-81161553D01*
X59656795Y-81118548D01*
X59682484Y-81104816D01*
X59706674Y-81087242D01*
X59758700Y-81064078D01*
X59812354Y-81035400D01*
X59846117Y-81025157D01*
X59878559Y-81010714D01*
X59929255Y-80999938D01*
X59981143Y-80984198D01*
X60022442Y-80980130D01*
X60062598Y-80971595D01*
X60109106Y-80971595D01*
X60156674Y-80966910D01*
X60204242Y-80971595D01*
G37*
G36*
X60204242Y-78704929D02*
G01*
X60250750Y-78704929D01*
X60290906Y-78713464D01*
X60332204Y-78717532D01*
X60384089Y-78733271D01*
X60434789Y-78744048D01*
X60467232Y-78758492D01*
X60500993Y-78768734D01*
X60554641Y-78797409D01*
X60606674Y-78820576D01*
X60630866Y-78838152D01*
X60656552Y-78851882D01*
X60708945Y-78894880D01*
X60758892Y-78931169D01*
X60775110Y-78949181D01*
X60792895Y-78963777D01*
X60840692Y-79022017D01*
X60884789Y-79070992D01*
X60894051Y-79087035D01*
X60904790Y-79100120D01*
X60944514Y-79174439D01*
X60978865Y-79233936D01*
X60982816Y-79246097D01*
X60987938Y-79255679D01*
X61016178Y-79348774D01*
X61037007Y-79412878D01*
X61037740Y-79419853D01*
X61039140Y-79424468D01*
X61052764Y-79562801D01*
X61056674Y-79599999D01*
X61052764Y-79637199D01*
X61039140Y-79775529D01*
X61037740Y-79780143D01*
X61037007Y-79787120D01*
X61016174Y-79851237D01*
X60987938Y-79944318D01*
X60982817Y-79953898D01*
X60978865Y-79966062D01*
X60944507Y-80025571D01*
X60904790Y-80099877D01*
X60894053Y-80112959D01*
X60884789Y-80129006D01*
X60840683Y-80177990D01*
X60792895Y-80236220D01*
X60775113Y-80250812D01*
X60758892Y-80268829D01*
X60708934Y-80305125D01*
X60656552Y-80348115D01*
X60630871Y-80361841D01*
X60606674Y-80379422D01*
X60554629Y-80402593D01*
X60500993Y-80431263D01*
X60467239Y-80441502D01*
X60434789Y-80455950D01*
X60384078Y-80466728D01*
X60332204Y-80482465D01*
X60290915Y-80486531D01*
X60250750Y-80495069D01*
X60204232Y-80495069D01*
X60156674Y-80499753D01*
X60109116Y-80495069D01*
X60062598Y-80495069D01*
X60022433Y-80486531D01*
X59981143Y-80482465D01*
X59929266Y-80466728D01*
X59878559Y-80455950D01*
X59846110Y-80441502D01*
X59812354Y-80431263D01*
X59758712Y-80402590D01*
X59706674Y-80379422D01*
X59682479Y-80361843D01*
X59656795Y-80348115D01*
X59604404Y-80305118D01*
X59554456Y-80268829D01*
X59538236Y-80250815D01*
X59520452Y-80236220D01*
X59472653Y-80177977D01*
X59428559Y-80129006D01*
X59419296Y-80112963D01*
X59408557Y-80099877D01*
X59368827Y-80025547D01*
X59334483Y-79966062D01*
X59330532Y-79953902D01*
X59325409Y-79944318D01*
X59297158Y-79851190D01*
X59276341Y-79787120D01*
X59275608Y-79780148D01*
X59274207Y-79775529D01*
X59260567Y-79637048D01*
X59256674Y-79599999D01*
X59260567Y-79562952D01*
X59274207Y-79424468D01*
X59275608Y-79419848D01*
X59276341Y-79412878D01*
X59297154Y-79348821D01*
X59325409Y-79255679D01*
X59330533Y-79246092D01*
X59334483Y-79233936D01*
X59368819Y-79174462D01*
X59408557Y-79100120D01*
X59419298Y-79087031D01*
X59428559Y-79070992D01*
X59472644Y-79022030D01*
X59520452Y-78963777D01*
X59538240Y-78949178D01*
X59554456Y-78931169D01*
X59604393Y-78894887D01*
X59656795Y-78851882D01*
X59682484Y-78838150D01*
X59706674Y-78820576D01*
X59758700Y-78797412D01*
X59812354Y-78768734D01*
X59846117Y-78758491D01*
X59878559Y-78744048D01*
X59929255Y-78733272D01*
X59981143Y-78717532D01*
X60022442Y-78713464D01*
X60062598Y-78704929D01*
X60109106Y-78704929D01*
X60156674Y-78700244D01*
X60204242Y-78704929D01*
G37*
G36*
X60204230Y-76438263D02*
G01*
X60250738Y-76438263D01*
X60290894Y-76446798D01*
X60332192Y-76450866D01*
X60384077Y-76466605D01*
X60434777Y-76477382D01*
X60467220Y-76491826D01*
X60500981Y-76502068D01*
X60554629Y-76530743D01*
X60606662Y-76553910D01*
X60630854Y-76571486D01*
X60656540Y-76585216D01*
X60708933Y-76628214D01*
X60758880Y-76664503D01*
X60775098Y-76682515D01*
X60792883Y-76697111D01*
X60840680Y-76755351D01*
X60884777Y-76804326D01*
X60894039Y-76820369D01*
X60904778Y-76833454D01*
X60944502Y-76907773D01*
X60978853Y-76967270D01*
X60982804Y-76979431D01*
X60987926Y-76989013D01*
X61016166Y-77082108D01*
X61036995Y-77146212D01*
X61037728Y-77153187D01*
X61039128Y-77157802D01*
X61052752Y-77296135D01*
X61056662Y-77333333D01*
X61052752Y-77370533D01*
X61039128Y-77508863D01*
X61037728Y-77513477D01*
X61036995Y-77520454D01*
X61016162Y-77584571D01*
X60987926Y-77677652D01*
X60982805Y-77687232D01*
X60978853Y-77699396D01*
X60944495Y-77758905D01*
X60904778Y-77833211D01*
X60894041Y-77846293D01*
X60884777Y-77862340D01*
X60840671Y-77911324D01*
X60792883Y-77969554D01*
X60775101Y-77984146D01*
X60758880Y-78002163D01*
X60708922Y-78038459D01*
X60656540Y-78081449D01*
X60630859Y-78095175D01*
X60606662Y-78112756D01*
X60554617Y-78135927D01*
X60500981Y-78164597D01*
X60467227Y-78174836D01*
X60434777Y-78189284D01*
X60384066Y-78200062D01*
X60332192Y-78215799D01*
X60290903Y-78219865D01*
X60250738Y-78228403D01*
X60204220Y-78228403D01*
X60156662Y-78233087D01*
X60109104Y-78228403D01*
X60062586Y-78228403D01*
X60022421Y-78219865D01*
X59981131Y-78215799D01*
X59929254Y-78200062D01*
X59878547Y-78189284D01*
X59846098Y-78174836D01*
X59812342Y-78164597D01*
X59758700Y-78135924D01*
X59706662Y-78112756D01*
X59682467Y-78095177D01*
X59656783Y-78081449D01*
X59604392Y-78038452D01*
X59554444Y-78002163D01*
X59538224Y-77984149D01*
X59520440Y-77969554D01*
X59472641Y-77911311D01*
X59428547Y-77862340D01*
X59419284Y-77846297D01*
X59408545Y-77833211D01*
X59368815Y-77758881D01*
X59334471Y-77699396D01*
X59330520Y-77687236D01*
X59325397Y-77677652D01*
X59297146Y-77584524D01*
X59276329Y-77520454D01*
X59275596Y-77513482D01*
X59274195Y-77508863D01*
X59260555Y-77370382D01*
X59256662Y-77333333D01*
X59260555Y-77296286D01*
X59274195Y-77157802D01*
X59275596Y-77153182D01*
X59276329Y-77146212D01*
X59297142Y-77082155D01*
X59325397Y-76989013D01*
X59330521Y-76979426D01*
X59334471Y-76967270D01*
X59368807Y-76907796D01*
X59408545Y-76833454D01*
X59419286Y-76820365D01*
X59428547Y-76804326D01*
X59472632Y-76755364D01*
X59520440Y-76697111D01*
X59538228Y-76682512D01*
X59554444Y-76664503D01*
X59604381Y-76628221D01*
X59656783Y-76585216D01*
X59682472Y-76571484D01*
X59706662Y-76553910D01*
X59758688Y-76530746D01*
X59812342Y-76502068D01*
X59846105Y-76491825D01*
X59878547Y-76477382D01*
X59929243Y-76466606D01*
X59981131Y-76450866D01*
X60022430Y-76446798D01*
X60062586Y-76438263D01*
X60109094Y-76438263D01*
X60156662Y-76433578D01*
X60204230Y-76438263D01*
G37*
G36*
X60204242Y-74171597D02*
G01*
X60250750Y-74171597D01*
X60290906Y-74180132D01*
X60332204Y-74184200D01*
X60384089Y-74199939D01*
X60434789Y-74210716D01*
X60467232Y-74225160D01*
X60500993Y-74235402D01*
X60554641Y-74264077D01*
X60606674Y-74287244D01*
X60630866Y-74304820D01*
X60656552Y-74318550D01*
X60708945Y-74361548D01*
X60758892Y-74397837D01*
X60775110Y-74415849D01*
X60792895Y-74430445D01*
X60840692Y-74488685D01*
X60884789Y-74537660D01*
X60894051Y-74553703D01*
X60904790Y-74566788D01*
X60944514Y-74641107D01*
X60978865Y-74700604D01*
X60982816Y-74712765D01*
X60987938Y-74722347D01*
X61016178Y-74815442D01*
X61037007Y-74879546D01*
X61037740Y-74886521D01*
X61039140Y-74891136D01*
X61052764Y-75029469D01*
X61056674Y-75066667D01*
X61052764Y-75103867D01*
X61039140Y-75242197D01*
X61037740Y-75246811D01*
X61037007Y-75253788D01*
X61016174Y-75317905D01*
X60987938Y-75410986D01*
X60982817Y-75420566D01*
X60978865Y-75432730D01*
X60944507Y-75492239D01*
X60904790Y-75566545D01*
X60894053Y-75579627D01*
X60884789Y-75595674D01*
X60840683Y-75644658D01*
X60792895Y-75702888D01*
X60775113Y-75717480D01*
X60758892Y-75735497D01*
X60708934Y-75771793D01*
X60656552Y-75814783D01*
X60630871Y-75828509D01*
X60606674Y-75846090D01*
X60554629Y-75869261D01*
X60500993Y-75897931D01*
X60467239Y-75908170D01*
X60434789Y-75922618D01*
X60384078Y-75933396D01*
X60332204Y-75949133D01*
X60290915Y-75953199D01*
X60250750Y-75961737D01*
X60204232Y-75961737D01*
X60156674Y-75966421D01*
X60109116Y-75961737D01*
X60062598Y-75961737D01*
X60022433Y-75953199D01*
X59981143Y-75949133D01*
X59929266Y-75933396D01*
X59878559Y-75922618D01*
X59846110Y-75908170D01*
X59812354Y-75897931D01*
X59758712Y-75869258D01*
X59706674Y-75846090D01*
X59682479Y-75828511D01*
X59656795Y-75814783D01*
X59604404Y-75771786D01*
X59554456Y-75735497D01*
X59538236Y-75717483D01*
X59520452Y-75702888D01*
X59472653Y-75644645D01*
X59428559Y-75595674D01*
X59419296Y-75579631D01*
X59408557Y-75566545D01*
X59368827Y-75492215D01*
X59334483Y-75432730D01*
X59330532Y-75420570D01*
X59325409Y-75410986D01*
X59297158Y-75317858D01*
X59276341Y-75253788D01*
X59275608Y-75246816D01*
X59274207Y-75242197D01*
X59260567Y-75103716D01*
X59256674Y-75066667D01*
X59260567Y-75029620D01*
X59274207Y-74891136D01*
X59275608Y-74886516D01*
X59276341Y-74879546D01*
X59297154Y-74815489D01*
X59325409Y-74722347D01*
X59330533Y-74712760D01*
X59334483Y-74700604D01*
X59368819Y-74641130D01*
X59408557Y-74566788D01*
X59419298Y-74553699D01*
X59428559Y-74537660D01*
X59472644Y-74488698D01*
X59520452Y-74430445D01*
X59538240Y-74415846D01*
X59554456Y-74397837D01*
X59604393Y-74361555D01*
X59656795Y-74318550D01*
X59682484Y-74304818D01*
X59706674Y-74287244D01*
X59758700Y-74264080D01*
X59812354Y-74235402D01*
X59846117Y-74225159D01*
X59878559Y-74210716D01*
X59929255Y-74199940D01*
X59981143Y-74184200D01*
X60022442Y-74180132D01*
X60062598Y-74171597D01*
X60109106Y-74171597D01*
X60156674Y-74166912D01*
X60204242Y-74171597D01*
G37*
G36*
X123965437Y-73536486D02*
G01*
X124005296Y-73536486D01*
X124038863Y-73544759D01*
X124072839Y-73548588D01*
X124116787Y-73563966D01*
X124160475Y-73574734D01*
X124186307Y-73588291D01*
X124212892Y-73597594D01*
X124257822Y-73625825D01*
X124301991Y-73649007D01*
X124319739Y-73664730D01*
X124338537Y-73676542D01*
X124380981Y-73718986D01*
X124421620Y-73754989D01*
X124431950Y-73769955D01*
X124443457Y-73781462D01*
X124479629Y-73839030D01*
X124512410Y-73886521D01*
X124516886Y-73898324D01*
X124522405Y-73907107D01*
X124548496Y-73981673D01*
X124569084Y-74035958D01*
X124569930Y-74042928D01*
X124571411Y-74047160D01*
X124583875Y-74157775D01*
X124588348Y-74194615D01*
X124583874Y-74231457D01*
X124571411Y-74342069D01*
X124569930Y-74346299D01*
X124569084Y-74353272D01*
X124548492Y-74407568D01*
X124522405Y-74482122D01*
X124516887Y-74490903D01*
X124512410Y-74502709D01*
X124479622Y-74550209D01*
X124443457Y-74607767D01*
X124431953Y-74619270D01*
X124421620Y-74634241D01*
X124380972Y-74670251D01*
X124338537Y-74712687D01*
X124319743Y-74724495D01*
X124301991Y-74740223D01*
X124257812Y-74763409D01*
X124212892Y-74791635D01*
X124186312Y-74800935D01*
X124160475Y-74814496D01*
X124116777Y-74825266D01*
X124072839Y-74840641D01*
X124038871Y-74844468D01*
X124005296Y-74852744D01*
X123965428Y-74852744D01*
X123925385Y-74857256D01*
X123885342Y-74852744D01*
X123845474Y-74852744D01*
X123811899Y-74844468D01*
X123777930Y-74840641D01*
X123733988Y-74825265D01*
X123690295Y-74814496D01*
X123664459Y-74800936D01*
X123637877Y-74791635D01*
X123592951Y-74763406D01*
X123548779Y-74740223D01*
X123531029Y-74724498D01*
X123512232Y-74712687D01*
X123469788Y-74670243D01*
X123429150Y-74634241D01*
X123418819Y-74619274D01*
X123407312Y-74607767D01*
X123371135Y-74550193D01*
X123338360Y-74502709D01*
X123333884Y-74490907D01*
X123328364Y-74482122D01*
X123302265Y-74407534D01*
X123281686Y-74353272D01*
X123280839Y-74346304D01*
X123279358Y-74342069D01*
X123266881Y-74231342D01*
X123262422Y-74194615D01*
X123266881Y-74157890D01*
X123279358Y-74047160D01*
X123280840Y-74042924D01*
X123281686Y-74035958D01*
X123302260Y-73981707D01*
X123328364Y-73907107D01*
X123333885Y-73898320D01*
X123338360Y-73886521D01*
X123371128Y-73839047D01*
X123407312Y-73781462D01*
X123418821Y-73769952D01*
X123429150Y-73754989D01*
X123469780Y-73718993D01*
X123512232Y-73676542D01*
X123531033Y-73664728D01*
X123548779Y-73649007D01*
X123592941Y-73625828D01*
X123637877Y-73597594D01*
X123664464Y-73588290D01*
X123690295Y-73574734D01*
X123733978Y-73563966D01*
X123777930Y-73548588D01*
X123811906Y-73544759D01*
X123845474Y-73536486D01*
X123885333Y-73536486D01*
X123925385Y-73531973D01*
X123965437Y-73536486D01*
G37*
G36*
X126719283Y-73536486D02*
G01*
X126759142Y-73536486D01*
X126792709Y-73544759D01*
X126826685Y-73548588D01*
X126870633Y-73563966D01*
X126914321Y-73574734D01*
X126940153Y-73588291D01*
X126966738Y-73597594D01*
X127011668Y-73625825D01*
X127055837Y-73649007D01*
X127073585Y-73664730D01*
X127092383Y-73676542D01*
X127134827Y-73718986D01*
X127175466Y-73754989D01*
X127185796Y-73769955D01*
X127197303Y-73781462D01*
X127233475Y-73839030D01*
X127266256Y-73886521D01*
X127270732Y-73898324D01*
X127276251Y-73907107D01*
X127302342Y-73981673D01*
X127322930Y-74035958D01*
X127323776Y-74042928D01*
X127325257Y-74047160D01*
X127337721Y-74157775D01*
X127342194Y-74194615D01*
X127337720Y-74231457D01*
X127325257Y-74342069D01*
X127323776Y-74346299D01*
X127322930Y-74353272D01*
X127302338Y-74407568D01*
X127276251Y-74482122D01*
X127270733Y-74490903D01*
X127266256Y-74502709D01*
X127233468Y-74550209D01*
X127197303Y-74607767D01*
X127185799Y-74619270D01*
X127175466Y-74634241D01*
X127134818Y-74670251D01*
X127092383Y-74712687D01*
X127073589Y-74724495D01*
X127055837Y-74740223D01*
X127011658Y-74763409D01*
X126966738Y-74791635D01*
X126940158Y-74800935D01*
X126914321Y-74814496D01*
X126870623Y-74825266D01*
X126826685Y-74840641D01*
X126792717Y-74844468D01*
X126759142Y-74852744D01*
X126719274Y-74852744D01*
X126679231Y-74857256D01*
X126639188Y-74852744D01*
X126599320Y-74852744D01*
X126565745Y-74844468D01*
X126531776Y-74840641D01*
X126487834Y-74825265D01*
X126444141Y-74814496D01*
X126418305Y-74800936D01*
X126391723Y-74791635D01*
X126346797Y-74763406D01*
X126302625Y-74740223D01*
X126284875Y-74724498D01*
X126266078Y-74712687D01*
X126223634Y-74670243D01*
X126182996Y-74634241D01*
X126172665Y-74619274D01*
X126161158Y-74607767D01*
X126124981Y-74550193D01*
X126092206Y-74502709D01*
X126087730Y-74490907D01*
X126082210Y-74482122D01*
X126056111Y-74407534D01*
X126035532Y-74353272D01*
X126034685Y-74346304D01*
X126033204Y-74342069D01*
X126020727Y-74231342D01*
X126016268Y-74194615D01*
X126020727Y-74157890D01*
X126033204Y-74047160D01*
X126034686Y-74042924D01*
X126035532Y-74035958D01*
X126056106Y-73981707D01*
X126082210Y-73907107D01*
X126087731Y-73898320D01*
X126092206Y-73886521D01*
X126124974Y-73839047D01*
X126161158Y-73781462D01*
X126172667Y-73769952D01*
X126182996Y-73754989D01*
X126223626Y-73718993D01*
X126266078Y-73676542D01*
X126284879Y-73664728D01*
X126302625Y-73649007D01*
X126346787Y-73625828D01*
X126391723Y-73597594D01*
X126418310Y-73588290D01*
X126444141Y-73574734D01*
X126487824Y-73563966D01*
X126531776Y-73548588D01*
X126565752Y-73544759D01*
X126599320Y-73536486D01*
X126639179Y-73536486D01*
X126679231Y-73531973D01*
X126719283Y-73536486D01*
G37*
G36*
X129473129Y-73536486D02*
G01*
X129512988Y-73536486D01*
X129546555Y-73544759D01*
X129580531Y-73548588D01*
X129624479Y-73563966D01*
X129668167Y-73574734D01*
X129693999Y-73588291D01*
X129720584Y-73597594D01*
X129765514Y-73625825D01*
X129809683Y-73649007D01*
X129827431Y-73664730D01*
X129846229Y-73676542D01*
X129888673Y-73718986D01*
X129929312Y-73754989D01*
X129939642Y-73769955D01*
X129951149Y-73781462D01*
X129987321Y-73839030D01*
X130020102Y-73886521D01*
X130024578Y-73898324D01*
X130030097Y-73907107D01*
X130056188Y-73981673D01*
X130076776Y-74035958D01*
X130077622Y-74042928D01*
X130079103Y-74047160D01*
X130091567Y-74157775D01*
X130096040Y-74194615D01*
X130091566Y-74231457D01*
X130079103Y-74342069D01*
X130077622Y-74346299D01*
X130076776Y-74353272D01*
X130056184Y-74407568D01*
X130030097Y-74482122D01*
X130024579Y-74490903D01*
X130020102Y-74502709D01*
X129987314Y-74550209D01*
X129951149Y-74607767D01*
X129939645Y-74619270D01*
X129929312Y-74634241D01*
X129888664Y-74670251D01*
X129846229Y-74712687D01*
X129827435Y-74724495D01*
X129809683Y-74740223D01*
X129765504Y-74763409D01*
X129720584Y-74791635D01*
X129694004Y-74800935D01*
X129668167Y-74814496D01*
X129624469Y-74825266D01*
X129580531Y-74840641D01*
X129546563Y-74844468D01*
X129512988Y-74852744D01*
X129473120Y-74852744D01*
X129433077Y-74857256D01*
X129393034Y-74852744D01*
X129353166Y-74852744D01*
X129319591Y-74844468D01*
X129285622Y-74840641D01*
X129241680Y-74825265D01*
X129197987Y-74814496D01*
X129172151Y-74800936D01*
X129145569Y-74791635D01*
X129100643Y-74763406D01*
X129056471Y-74740223D01*
X129038721Y-74724498D01*
X129019924Y-74712687D01*
X128977480Y-74670243D01*
X128936842Y-74634241D01*
X128926511Y-74619274D01*
X128915004Y-74607767D01*
X128878827Y-74550193D01*
X128846052Y-74502709D01*
X128841576Y-74490907D01*
X128836056Y-74482122D01*
X128809957Y-74407534D01*
X128789378Y-74353272D01*
X128788531Y-74346304D01*
X128787050Y-74342069D01*
X128774573Y-74231342D01*
X128770114Y-74194615D01*
X128774573Y-74157890D01*
X128787050Y-74047160D01*
X128788532Y-74042924D01*
X128789378Y-74035958D01*
X128809952Y-73981707D01*
X128836056Y-73907107D01*
X128841577Y-73898320D01*
X128846052Y-73886521D01*
X128878820Y-73839047D01*
X128915004Y-73781462D01*
X128926513Y-73769952D01*
X128936842Y-73754989D01*
X128977472Y-73718993D01*
X129019924Y-73676542D01*
X129038725Y-73664728D01*
X129056471Y-73649007D01*
X129100633Y-73625828D01*
X129145569Y-73597594D01*
X129172156Y-73588290D01*
X129197987Y-73574734D01*
X129241670Y-73563966D01*
X129285622Y-73548588D01*
X129319598Y-73544759D01*
X129353166Y-73536486D01*
X129393025Y-73536486D01*
X129433077Y-73531973D01*
X129473129Y-73536486D01*
G37*
G36*
X132226975Y-73536486D02*
G01*
X132266834Y-73536486D01*
X132300401Y-73544759D01*
X132334377Y-73548588D01*
X132378325Y-73563966D01*
X132422013Y-73574734D01*
X132447845Y-73588291D01*
X132474430Y-73597594D01*
X132519360Y-73625825D01*
X132563529Y-73649007D01*
X132581277Y-73664730D01*
X132600075Y-73676542D01*
X132642519Y-73718986D01*
X132683158Y-73754989D01*
X132693488Y-73769955D01*
X132704995Y-73781462D01*
X132741167Y-73839030D01*
X132773948Y-73886521D01*
X132778424Y-73898324D01*
X132783943Y-73907107D01*
X132810034Y-73981673D01*
X132830622Y-74035958D01*
X132831468Y-74042928D01*
X132832949Y-74047160D01*
X132845413Y-74157775D01*
X132849886Y-74194615D01*
X132845412Y-74231457D01*
X132832949Y-74342069D01*
X132831468Y-74346299D01*
X132830622Y-74353272D01*
X132810030Y-74407568D01*
X132783943Y-74482122D01*
X132778425Y-74490903D01*
X132773948Y-74502709D01*
X132741160Y-74550209D01*
X132704995Y-74607767D01*
X132693491Y-74619270D01*
X132683158Y-74634241D01*
X132642510Y-74670251D01*
X132600075Y-74712687D01*
X132581281Y-74724495D01*
X132563529Y-74740223D01*
X132519350Y-74763409D01*
X132474430Y-74791635D01*
X132447850Y-74800935D01*
X132422013Y-74814496D01*
X132378315Y-74825266D01*
X132334377Y-74840641D01*
X132300409Y-74844468D01*
X132266834Y-74852744D01*
X132226966Y-74852744D01*
X132186923Y-74857256D01*
X132146880Y-74852744D01*
X132107012Y-74852744D01*
X132073437Y-74844468D01*
X132039468Y-74840641D01*
X131995526Y-74825265D01*
X131951833Y-74814496D01*
X131925997Y-74800936D01*
X131899415Y-74791635D01*
X131854489Y-74763406D01*
X131810317Y-74740223D01*
X131792567Y-74724498D01*
X131773770Y-74712687D01*
X131731326Y-74670243D01*
X131690688Y-74634241D01*
X131680357Y-74619274D01*
X131668850Y-74607767D01*
X131632673Y-74550193D01*
X131599898Y-74502709D01*
X131595422Y-74490907D01*
X131589902Y-74482122D01*
X131563803Y-74407534D01*
X131543224Y-74353272D01*
X131542377Y-74346304D01*
X131540896Y-74342069D01*
X131528419Y-74231342D01*
X131523960Y-74194615D01*
X131528419Y-74157890D01*
X131540896Y-74047160D01*
X131542378Y-74042924D01*
X131543224Y-74035958D01*
X131563798Y-73981707D01*
X131589902Y-73907107D01*
X131595423Y-73898320D01*
X131599898Y-73886521D01*
X131632666Y-73839047D01*
X131668850Y-73781462D01*
X131680359Y-73769952D01*
X131690688Y-73754989D01*
X131731318Y-73718993D01*
X131773770Y-73676542D01*
X131792571Y-73664728D01*
X131810317Y-73649007D01*
X131854479Y-73625828D01*
X131899415Y-73597594D01*
X131926002Y-73588290D01*
X131951833Y-73574734D01*
X131995516Y-73563966D01*
X132039468Y-73548588D01*
X132073444Y-73544759D01*
X132107012Y-73536486D01*
X132146871Y-73536486D01*
X132186923Y-73531973D01*
X132226975Y-73536486D01*
G37*
G36*
X134980821Y-73536486D02*
G01*
X135020680Y-73536486D01*
X135054247Y-73544759D01*
X135088223Y-73548588D01*
X135132171Y-73563966D01*
X135175859Y-73574734D01*
X135201691Y-73588291D01*
X135228276Y-73597594D01*
X135273206Y-73625825D01*
X135317375Y-73649007D01*
X135335123Y-73664730D01*
X135353921Y-73676542D01*
X135396365Y-73718986D01*
X135437004Y-73754989D01*
X135447334Y-73769955D01*
X135458841Y-73781462D01*
X135495013Y-73839030D01*
X135527794Y-73886521D01*
X135532270Y-73898324D01*
X135537789Y-73907107D01*
X135563880Y-73981673D01*
X135584468Y-74035958D01*
X135585314Y-74042928D01*
X135586795Y-74047160D01*
X135599259Y-74157775D01*
X135603732Y-74194615D01*
X135599258Y-74231457D01*
X135586795Y-74342069D01*
X135585314Y-74346299D01*
X135584468Y-74353272D01*
X135563876Y-74407568D01*
X135537789Y-74482122D01*
X135532271Y-74490903D01*
X135527794Y-74502709D01*
X135495006Y-74550209D01*
X135458841Y-74607767D01*
X135447337Y-74619270D01*
X135437004Y-74634241D01*
X135396356Y-74670251D01*
X135353921Y-74712687D01*
X135335127Y-74724495D01*
X135317375Y-74740223D01*
X135273196Y-74763409D01*
X135228276Y-74791635D01*
X135201696Y-74800935D01*
X135175859Y-74814496D01*
X135132161Y-74825266D01*
X135088223Y-74840641D01*
X135054255Y-74844468D01*
X135020680Y-74852744D01*
X134980812Y-74852744D01*
X134940769Y-74857256D01*
X134900726Y-74852744D01*
X134860858Y-74852744D01*
X134827283Y-74844468D01*
X134793314Y-74840641D01*
X134749372Y-74825265D01*
X134705679Y-74814496D01*
X134679843Y-74800936D01*
X134653261Y-74791635D01*
X134608335Y-74763406D01*
X134564163Y-74740223D01*
X134546413Y-74724498D01*
X134527616Y-74712687D01*
X134485172Y-74670243D01*
X134444534Y-74634241D01*
X134434203Y-74619274D01*
X134422696Y-74607767D01*
X134386519Y-74550193D01*
X134353744Y-74502709D01*
X134349268Y-74490907D01*
X134343748Y-74482122D01*
X134317649Y-74407534D01*
X134297070Y-74353272D01*
X134296223Y-74346304D01*
X134294742Y-74342069D01*
X134282265Y-74231342D01*
X134277806Y-74194615D01*
X134282265Y-74157890D01*
X134294742Y-74047160D01*
X134296224Y-74042924D01*
X134297070Y-74035958D01*
X134317644Y-73981707D01*
X134343748Y-73907107D01*
X134349269Y-73898320D01*
X134353744Y-73886521D01*
X134386512Y-73839047D01*
X134422696Y-73781462D01*
X134434205Y-73769952D01*
X134444534Y-73754989D01*
X134485164Y-73718993D01*
X134527616Y-73676542D01*
X134546417Y-73664728D01*
X134564163Y-73649007D01*
X134608325Y-73625828D01*
X134653261Y-73597594D01*
X134679848Y-73588290D01*
X134705679Y-73574734D01*
X134749362Y-73563966D01*
X134793314Y-73548588D01*
X134827290Y-73544759D01*
X134860858Y-73536486D01*
X134900717Y-73536486D01*
X134940769Y-73531973D01*
X134980821Y-73536486D01*
G37*
G36*
X137734667Y-73536486D02*
G01*
X137774526Y-73536486D01*
X137808093Y-73544759D01*
X137842069Y-73548588D01*
X137886017Y-73563966D01*
X137929705Y-73574734D01*
X137955537Y-73588291D01*
X137982122Y-73597594D01*
X138027052Y-73625825D01*
X138071221Y-73649007D01*
X138088969Y-73664730D01*
X138107767Y-73676542D01*
X138150211Y-73718986D01*
X138190850Y-73754989D01*
X138201180Y-73769955D01*
X138212687Y-73781462D01*
X138248859Y-73839030D01*
X138281640Y-73886521D01*
X138286116Y-73898324D01*
X138291635Y-73907107D01*
X138317726Y-73981673D01*
X138338314Y-74035958D01*
X138339160Y-74042928D01*
X138340641Y-74047160D01*
X138353105Y-74157775D01*
X138357578Y-74194615D01*
X138353104Y-74231457D01*
X138340641Y-74342069D01*
X138339160Y-74346299D01*
X138338314Y-74353272D01*
X138317722Y-74407568D01*
X138291635Y-74482122D01*
X138286117Y-74490903D01*
X138281640Y-74502709D01*
X138248852Y-74550209D01*
X138212687Y-74607767D01*
X138201183Y-74619270D01*
X138190850Y-74634241D01*
X138150202Y-74670251D01*
X138107767Y-74712687D01*
X138088973Y-74724495D01*
X138071221Y-74740223D01*
X138027042Y-74763409D01*
X137982122Y-74791635D01*
X137955542Y-74800935D01*
X137929705Y-74814496D01*
X137886007Y-74825266D01*
X137842069Y-74840641D01*
X137808101Y-74844468D01*
X137774526Y-74852744D01*
X137734658Y-74852744D01*
X137694615Y-74857256D01*
X137654572Y-74852744D01*
X137614704Y-74852744D01*
X137581129Y-74844468D01*
X137547160Y-74840641D01*
X137503218Y-74825265D01*
X137459525Y-74814496D01*
X137433689Y-74800936D01*
X137407107Y-74791635D01*
X137362181Y-74763406D01*
X137318009Y-74740223D01*
X137300259Y-74724498D01*
X137281462Y-74712687D01*
X137239018Y-74670243D01*
X137198380Y-74634241D01*
X137188049Y-74619274D01*
X137176542Y-74607767D01*
X137140365Y-74550193D01*
X137107590Y-74502709D01*
X137103114Y-74490907D01*
X137097594Y-74482122D01*
X137071495Y-74407534D01*
X137050916Y-74353272D01*
X137050069Y-74346304D01*
X137048588Y-74342069D01*
X137036111Y-74231342D01*
X137031652Y-74194615D01*
X137036111Y-74157890D01*
X137048588Y-74047160D01*
X137050070Y-74042924D01*
X137050916Y-74035958D01*
X137071490Y-73981707D01*
X137097594Y-73907107D01*
X137103115Y-73898320D01*
X137107590Y-73886521D01*
X137140358Y-73839047D01*
X137176542Y-73781462D01*
X137188051Y-73769952D01*
X137198380Y-73754989D01*
X137239010Y-73718993D01*
X137281462Y-73676542D01*
X137300263Y-73664728D01*
X137318009Y-73649007D01*
X137362171Y-73625828D01*
X137407107Y-73597594D01*
X137433694Y-73588290D01*
X137459525Y-73574734D01*
X137503208Y-73563966D01*
X137547160Y-73548588D01*
X137581136Y-73544759D01*
X137614704Y-73536486D01*
X137654563Y-73536486D01*
X137694615Y-73531973D01*
X137734667Y-73536486D01*
G37*
G36*
X40809561Y-72917105D02*
G01*
X40970619Y-72973462D01*
X41115099Y-73064244D01*
X41235756Y-73184901D01*
X41326538Y-73329381D01*
X41382895Y-73490439D01*
X41402000Y-73660000D01*
X41382895Y-73829561D01*
X41326538Y-73990619D01*
X41235756Y-74135099D01*
X41115099Y-74255756D01*
X40970619Y-74346538D01*
X40809561Y-74402895D01*
X40640000Y-74422000D01*
X40470439Y-74402895D01*
X40309381Y-74346538D01*
X40164901Y-74255756D01*
X40044244Y-74135099D01*
X39953462Y-73990619D01*
X39897105Y-73829561D01*
X39878000Y-73660000D01*
X39897105Y-73490439D01*
X39953462Y-73329381D01*
X40044244Y-73184901D01*
X40164901Y-73064244D01*
X40309381Y-72973462D01*
X40470439Y-72917105D01*
X40640000Y-72898000D01*
X40809561Y-72917105D01*
G37*
G36*
X43349561Y-72917105D02*
G01*
X43510619Y-72973462D01*
X43655099Y-73064244D01*
X43775756Y-73184901D01*
X43866538Y-73329381D01*
X43922895Y-73490439D01*
X43942000Y-73660000D01*
X43922895Y-73829561D01*
X43866538Y-73990619D01*
X43775756Y-74135099D01*
X43655099Y-74255756D01*
X43510619Y-74346538D01*
X43349561Y-74402895D01*
X43180000Y-74422000D01*
X43010439Y-74402895D01*
X42849381Y-74346538D01*
X42704901Y-74255756D01*
X42584244Y-74135099D01*
X42493462Y-73990619D01*
X42437105Y-73829561D01*
X42418000Y-73660000D01*
X42437105Y-73490439D01*
X42493462Y-73329381D01*
X42584244Y-73184901D01*
X42704901Y-73064244D01*
X42849381Y-72973462D01*
X43010439Y-72917105D01*
X43180000Y-72898000D01*
X43349561Y-72917105D01*
G37*
G36*
X45889561Y-72917105D02*
G01*
X46050619Y-72973462D01*
X46195099Y-73064244D01*
X46315756Y-73184901D01*
X46406538Y-73329381D01*
X46462895Y-73490439D01*
X46482000Y-73660000D01*
X46462895Y-73829561D01*
X46406538Y-73990619D01*
X46315756Y-74135099D01*
X46195099Y-74255756D01*
X46050619Y-74346538D01*
X45889561Y-74402895D01*
X45720000Y-74422000D01*
X45550439Y-74402895D01*
X45389381Y-74346538D01*
X45244901Y-74255756D01*
X45124244Y-74135099D01*
X45033462Y-73990619D01*
X44977105Y-73829561D01*
X44958000Y-73660000D01*
X44977105Y-73490439D01*
X45033462Y-73329381D01*
X45124244Y-73184901D01*
X45244901Y-73064244D01*
X45389381Y-72973462D01*
X45550439Y-72917105D01*
X45720000Y-72898000D01*
X45889561Y-72917105D01*
G37*
G36*
X48429561Y-72917105D02*
G01*
X48590619Y-72973462D01*
X48735099Y-73064244D01*
X48855756Y-73184901D01*
X48946538Y-73329381D01*
X49002895Y-73490439D01*
X49022000Y-73660000D01*
X49002895Y-73829561D01*
X48946538Y-73990619D01*
X48855756Y-74135099D01*
X48735099Y-74255756D01*
X48590619Y-74346538D01*
X48429561Y-74402895D01*
X48260000Y-74422000D01*
X48090439Y-74402895D01*
X47929381Y-74346538D01*
X47784901Y-74255756D01*
X47664244Y-74135099D01*
X47573462Y-73990619D01*
X47517105Y-73829561D01*
X47498000Y-73660000D01*
X47517105Y-73490439D01*
X47573462Y-73329381D01*
X47664244Y-73184901D01*
X47784901Y-73064244D01*
X47929381Y-72973462D01*
X48090439Y-72917105D01*
X48260000Y-72898000D01*
X48429561Y-72917105D01*
G37*
G36*
X60204242Y-71904931D02*
G01*
X60250750Y-71904931D01*
X60290906Y-71913466D01*
X60332204Y-71917534D01*
X60384089Y-71933273D01*
X60434789Y-71944050D01*
X60467232Y-71958494D01*
X60500993Y-71968736D01*
X60554641Y-71997411D01*
X60606674Y-72020578D01*
X60630866Y-72038154D01*
X60656552Y-72051884D01*
X60708945Y-72094882D01*
X60758892Y-72131171D01*
X60775110Y-72149183D01*
X60792895Y-72163779D01*
X60840692Y-72222019D01*
X60884789Y-72270994D01*
X60894051Y-72287037D01*
X60904790Y-72300122D01*
X60944514Y-72374441D01*
X60978865Y-72433938D01*
X60982816Y-72446099D01*
X60987938Y-72455681D01*
X61016178Y-72548776D01*
X61037007Y-72612880D01*
X61037740Y-72619855D01*
X61039140Y-72624470D01*
X61052764Y-72762803D01*
X61056674Y-72800001D01*
X61052764Y-72837201D01*
X61039140Y-72975531D01*
X61037740Y-72980145D01*
X61037007Y-72987122D01*
X61016174Y-73051239D01*
X60987938Y-73144320D01*
X60982817Y-73153900D01*
X60978865Y-73166064D01*
X60944507Y-73225573D01*
X60904790Y-73299879D01*
X60894053Y-73312961D01*
X60884789Y-73329008D01*
X60840683Y-73377992D01*
X60792895Y-73436222D01*
X60775113Y-73450814D01*
X60758892Y-73468831D01*
X60708934Y-73505127D01*
X60656552Y-73548117D01*
X60630871Y-73561843D01*
X60606674Y-73579424D01*
X60554629Y-73602595D01*
X60500993Y-73631265D01*
X60467239Y-73641504D01*
X60434789Y-73655952D01*
X60384078Y-73666730D01*
X60332204Y-73682467D01*
X60290915Y-73686533D01*
X60250750Y-73695071D01*
X60204232Y-73695071D01*
X60156674Y-73699755D01*
X60109116Y-73695071D01*
X60062598Y-73695071D01*
X60022433Y-73686533D01*
X59981143Y-73682467D01*
X59929266Y-73666730D01*
X59878559Y-73655952D01*
X59846110Y-73641504D01*
X59812354Y-73631265D01*
X59758712Y-73602592D01*
X59706674Y-73579424D01*
X59682479Y-73561845D01*
X59656795Y-73548117D01*
X59604404Y-73505120D01*
X59554456Y-73468831D01*
X59538236Y-73450817D01*
X59520452Y-73436222D01*
X59472653Y-73377979D01*
X59428559Y-73329008D01*
X59419296Y-73312965D01*
X59408557Y-73299879D01*
X59368827Y-73225549D01*
X59334483Y-73166064D01*
X59330532Y-73153904D01*
X59325409Y-73144320D01*
X59297158Y-73051192D01*
X59276341Y-72987122D01*
X59275608Y-72980150D01*
X59274207Y-72975531D01*
X59260567Y-72837050D01*
X59256674Y-72800001D01*
X59260567Y-72762954D01*
X59274207Y-72624470D01*
X59275608Y-72619850D01*
X59276341Y-72612880D01*
X59297154Y-72548823D01*
X59325409Y-72455681D01*
X59330533Y-72446094D01*
X59334483Y-72433938D01*
X59368819Y-72374464D01*
X59408557Y-72300122D01*
X59419298Y-72287033D01*
X59428559Y-72270994D01*
X59472644Y-72222032D01*
X59520452Y-72163779D01*
X59538240Y-72149180D01*
X59554456Y-72131171D01*
X59604393Y-72094889D01*
X59656795Y-72051884D01*
X59682484Y-72038152D01*
X59706674Y-72020578D01*
X59758700Y-71997414D01*
X59812354Y-71968736D01*
X59846117Y-71958493D01*
X59878559Y-71944050D01*
X59929255Y-71933274D01*
X59981143Y-71917534D01*
X60022442Y-71913466D01*
X60062598Y-71904931D01*
X60109106Y-71904931D01*
X60156674Y-71900246D01*
X60204242Y-71904931D01*
G37*
G36*
X60204230Y-69638265D02*
G01*
X60250738Y-69638265D01*
X60290894Y-69646800D01*
X60332192Y-69650868D01*
X60384077Y-69666607D01*
X60434777Y-69677384D01*
X60467220Y-69691828D01*
X60500981Y-69702070D01*
X60554629Y-69730745D01*
X60606662Y-69753912D01*
X60630854Y-69771488D01*
X60656540Y-69785218D01*
X60708933Y-69828216D01*
X60758880Y-69864505D01*
X60775098Y-69882517D01*
X60792883Y-69897113D01*
X60840680Y-69955353D01*
X60884777Y-70004328D01*
X60894039Y-70020371D01*
X60904778Y-70033456D01*
X60944502Y-70107775D01*
X60978853Y-70167272D01*
X60982804Y-70179433D01*
X60987926Y-70189015D01*
X61016166Y-70282110D01*
X61036995Y-70346214D01*
X61037728Y-70353189D01*
X61039128Y-70357804D01*
X61052752Y-70496137D01*
X61056662Y-70533335D01*
X61052752Y-70570535D01*
X61039128Y-70708865D01*
X61037728Y-70713479D01*
X61036995Y-70720456D01*
X61016162Y-70784573D01*
X60987926Y-70877654D01*
X60982805Y-70887234D01*
X60978853Y-70899398D01*
X60944495Y-70958907D01*
X60904778Y-71033213D01*
X60894041Y-71046295D01*
X60884777Y-71062342D01*
X60840671Y-71111326D01*
X60792883Y-71169556D01*
X60775101Y-71184148D01*
X60758880Y-71202165D01*
X60708922Y-71238461D01*
X60656540Y-71281451D01*
X60630859Y-71295177D01*
X60606662Y-71312758D01*
X60554617Y-71335929D01*
X60500981Y-71364599D01*
X60467227Y-71374838D01*
X60434777Y-71389286D01*
X60384066Y-71400064D01*
X60332192Y-71415801D01*
X60290903Y-71419867D01*
X60250738Y-71428405D01*
X60204220Y-71428405D01*
X60156662Y-71433089D01*
X60109104Y-71428405D01*
X60062586Y-71428405D01*
X60022421Y-71419867D01*
X59981131Y-71415801D01*
X59929254Y-71400064D01*
X59878547Y-71389286D01*
X59846098Y-71374838D01*
X59812342Y-71364599D01*
X59758700Y-71335926D01*
X59706662Y-71312758D01*
X59682467Y-71295179D01*
X59656783Y-71281451D01*
X59604392Y-71238454D01*
X59554444Y-71202165D01*
X59538224Y-71184151D01*
X59520440Y-71169556D01*
X59472641Y-71111313D01*
X59428547Y-71062342D01*
X59419284Y-71046299D01*
X59408545Y-71033213D01*
X59368815Y-70958883D01*
X59334471Y-70899398D01*
X59330520Y-70887238D01*
X59325397Y-70877654D01*
X59297146Y-70784526D01*
X59276329Y-70720456D01*
X59275596Y-70713484D01*
X59274195Y-70708865D01*
X59260555Y-70570384D01*
X59256662Y-70533335D01*
X59260555Y-70496288D01*
X59274195Y-70357804D01*
X59275596Y-70353184D01*
X59276329Y-70346214D01*
X59297142Y-70282157D01*
X59325397Y-70189015D01*
X59330521Y-70179428D01*
X59334471Y-70167272D01*
X59368807Y-70107798D01*
X59408545Y-70033456D01*
X59419286Y-70020367D01*
X59428547Y-70004328D01*
X59472632Y-69955366D01*
X59520440Y-69897113D01*
X59538228Y-69882514D01*
X59554444Y-69864505D01*
X59604381Y-69828223D01*
X59656783Y-69785218D01*
X59682472Y-69771486D01*
X59706662Y-69753912D01*
X59758688Y-69730748D01*
X59812342Y-69702070D01*
X59846105Y-69691827D01*
X59878547Y-69677384D01*
X59929243Y-69666608D01*
X59981131Y-69650868D01*
X60022430Y-69646800D01*
X60062586Y-69638265D01*
X60109094Y-69638265D01*
X60156662Y-69633580D01*
X60204230Y-69638265D01*
G37*
G36*
X60204242Y-67371599D02*
G01*
X60250750Y-67371599D01*
X60290906Y-67380134D01*
X60332204Y-67384202D01*
X60384089Y-67399941D01*
X60434789Y-67410718D01*
X60467232Y-67425162D01*
X60500993Y-67435404D01*
X60554641Y-67464079D01*
X60606674Y-67487246D01*
X60630866Y-67504822D01*
X60656552Y-67518552D01*
X60708945Y-67561550D01*
X60758892Y-67597839D01*
X60775110Y-67615851D01*
X60792895Y-67630447D01*
X60840692Y-67688687D01*
X60884789Y-67737662D01*
X60894051Y-67753705D01*
X60904790Y-67766790D01*
X60944514Y-67841109D01*
X60978865Y-67900606D01*
X60982816Y-67912767D01*
X60987938Y-67922349D01*
X61016178Y-68015444D01*
X61037007Y-68079548D01*
X61037740Y-68086523D01*
X61039140Y-68091138D01*
X61052764Y-68229471D01*
X61056674Y-68266669D01*
X61052764Y-68303869D01*
X61039140Y-68442199D01*
X61037740Y-68446813D01*
X61037007Y-68453790D01*
X61016174Y-68517907D01*
X60987938Y-68610988D01*
X60982817Y-68620568D01*
X60978865Y-68632732D01*
X60944507Y-68692241D01*
X60904790Y-68766547D01*
X60894053Y-68779629D01*
X60884789Y-68795676D01*
X60840683Y-68844660D01*
X60792895Y-68902890D01*
X60775113Y-68917482D01*
X60758892Y-68935499D01*
X60708934Y-68971795D01*
X60656552Y-69014785D01*
X60630871Y-69028511D01*
X60606674Y-69046092D01*
X60554629Y-69069263D01*
X60500993Y-69097933D01*
X60467239Y-69108172D01*
X60434789Y-69122620D01*
X60384078Y-69133398D01*
X60332204Y-69149135D01*
X60290915Y-69153201D01*
X60250750Y-69161739D01*
X60204232Y-69161739D01*
X60156674Y-69166423D01*
X60109116Y-69161739D01*
X60062598Y-69161739D01*
X60022433Y-69153201D01*
X59981143Y-69149135D01*
X59929266Y-69133398D01*
X59878559Y-69122620D01*
X59846110Y-69108172D01*
X59812354Y-69097933D01*
X59758712Y-69069260D01*
X59706674Y-69046092D01*
X59682479Y-69028513D01*
X59656795Y-69014785D01*
X59604404Y-68971788D01*
X59554456Y-68935499D01*
X59538236Y-68917485D01*
X59520452Y-68902890D01*
X59472653Y-68844647D01*
X59428559Y-68795676D01*
X59419296Y-68779633D01*
X59408557Y-68766547D01*
X59368827Y-68692217D01*
X59334483Y-68632732D01*
X59330532Y-68620572D01*
X59325409Y-68610988D01*
X59297158Y-68517860D01*
X59276341Y-68453790D01*
X59275608Y-68446818D01*
X59274207Y-68442199D01*
X59260567Y-68303718D01*
X59256674Y-68266669D01*
X59260567Y-68229622D01*
X59274207Y-68091138D01*
X59275608Y-68086518D01*
X59276341Y-68079548D01*
X59297154Y-68015491D01*
X59325409Y-67922349D01*
X59330533Y-67912762D01*
X59334483Y-67900606D01*
X59368819Y-67841132D01*
X59408557Y-67766790D01*
X59419298Y-67753701D01*
X59428559Y-67737662D01*
X59472644Y-67688700D01*
X59520452Y-67630447D01*
X59538240Y-67615848D01*
X59554456Y-67597839D01*
X59604393Y-67561557D01*
X59656795Y-67518552D01*
X59682484Y-67504820D01*
X59706674Y-67487246D01*
X59758700Y-67464082D01*
X59812354Y-67435404D01*
X59846117Y-67425161D01*
X59878559Y-67410718D01*
X59929255Y-67399942D01*
X59981143Y-67384202D01*
X60022442Y-67380134D01*
X60062598Y-67371599D01*
X60109106Y-67371599D01*
X60156674Y-67366914D01*
X60204242Y-67371599D01*
G37*
G36*
X105579561Y-48787105D02*
G01*
X105740619Y-48843462D01*
X105885099Y-48934244D01*
X106005756Y-49054901D01*
X106096538Y-49199381D01*
X106152895Y-49360439D01*
X106172000Y-49530000D01*
X106152895Y-49699561D01*
X106096538Y-49860619D01*
X106005756Y-50005099D01*
X105885099Y-50125756D01*
X105740619Y-50216538D01*
X105579561Y-50272895D01*
X105410000Y-50292000D01*
X105240439Y-50272895D01*
X105079381Y-50216538D01*
X104934901Y-50125756D01*
X104814244Y-50005099D01*
X104723462Y-49860619D01*
X104667105Y-49699561D01*
X104648000Y-49530000D01*
X104667105Y-49360439D01*
X104723462Y-49199381D01*
X104814244Y-49054901D01*
X104934901Y-48934244D01*
X105079381Y-48843462D01*
X105240439Y-48787105D01*
X105410000Y-48768000D01*
X105579561Y-48787105D01*
G37*
G36*
X110659561Y-48787105D02*
G01*
X110820619Y-48843462D01*
X110965099Y-48934244D01*
X111085756Y-49054901D01*
X111176538Y-49199381D01*
X111232895Y-49360439D01*
X111252000Y-49530000D01*
X111232895Y-49699561D01*
X111176538Y-49860619D01*
X111085756Y-50005099D01*
X110965099Y-50125756D01*
X110820619Y-50216538D01*
X110659561Y-50272895D01*
X110490000Y-50292000D01*
X110320439Y-50272895D01*
X110159381Y-50216538D01*
X110014901Y-50125756D01*
X109894244Y-50005099D01*
X109803462Y-49860619D01*
X109747105Y-49699561D01*
X109728000Y-49530000D01*
X109747105Y-49360439D01*
X109803462Y-49199381D01*
X109894244Y-49054901D01*
X110014901Y-48934244D01*
X110159381Y-48843462D01*
X110320439Y-48787105D01*
X110490000Y-48768000D01*
X110659561Y-48787105D01*
G37*
G36*
X115739561Y-48787105D02*
G01*
X115900619Y-48843462D01*
X116045099Y-48934244D01*
X116165756Y-49054901D01*
X116256538Y-49199381D01*
X116312895Y-49360439D01*
X116332000Y-49530000D01*
X116312895Y-49699561D01*
X116256538Y-49860619D01*
X116165756Y-50005099D01*
X116045099Y-50125756D01*
X115900619Y-50216538D01*
X115739561Y-50272895D01*
X115570000Y-50292000D01*
X115400439Y-50272895D01*
X115239381Y-50216538D01*
X115094901Y-50125756D01*
X114974244Y-50005099D01*
X114883462Y-49860619D01*
X114827105Y-49699561D01*
X114808000Y-49530000D01*
X114827105Y-49360439D01*
X114883462Y-49199381D01*
X114974244Y-49054901D01*
X115094901Y-48934244D01*
X115239381Y-48843462D01*
X115400439Y-48787105D01*
X115570000Y-48768000D01*
X115739561Y-48787105D01*
G37*
G36*
X137138082Y-48794965D02*
G01*
X137269360Y-48863865D01*
X137380334Y-48962180D01*
X137464555Y-49084195D01*
X137517129Y-49222821D01*
X137535000Y-49370000D01*
X137517129Y-49517179D01*
X137464555Y-49655805D01*
X137380334Y-49777820D01*
X137269360Y-49876135D01*
X137138082Y-49945035D01*
X136994130Y-49980516D01*
X136845870Y-49980516D01*
X136701918Y-49945035D01*
X136570640Y-49876135D01*
X136459666Y-49777820D01*
X136375445Y-49655805D01*
X136322871Y-49517179D01*
X136305000Y-49370000D01*
X136322871Y-49222821D01*
X136375445Y-49084195D01*
X136459666Y-48962180D01*
X136570640Y-48863865D01*
X136701918Y-48794965D01*
X136845870Y-48759484D01*
X136994130Y-48759484D01*
X137138082Y-48794965D01*
G37*
G36*
X137138082Y-46334965D02*
G01*
X137269360Y-46403865D01*
X137380334Y-46502180D01*
X137464555Y-46624195D01*
X137517129Y-46762821D01*
X137535000Y-46910000D01*
X137517129Y-47057179D01*
X137464555Y-47195805D01*
X137380334Y-47317820D01*
X137269360Y-47416135D01*
X137138082Y-47485035D01*
X136994130Y-47520516D01*
X136845870Y-47520516D01*
X136701918Y-47485035D01*
X136570640Y-47416135D01*
X136459666Y-47317820D01*
X136375445Y-47195805D01*
X136322871Y-47057179D01*
X136305000Y-46910000D01*
X136322871Y-46762821D01*
X136375445Y-46624195D01*
X136459666Y-46502180D01*
X136570640Y-46403865D01*
X136701918Y-46334965D01*
X136845870Y-46299484D01*
X136994130Y-46299484D01*
X137138082Y-46334965D01*
G37*
G36*
X137138082Y-41414965D02*
G01*
X137269360Y-41483865D01*
X137380334Y-41582180D01*
X137464555Y-41704195D01*
X137517129Y-41842821D01*
X137535000Y-41990000D01*
X137517129Y-42137179D01*
X137464555Y-42275805D01*
X137380334Y-42397820D01*
X137269360Y-42496135D01*
X137138082Y-42565035D01*
X136994130Y-42600516D01*
X136845870Y-42600516D01*
X136701918Y-42565035D01*
X136570640Y-42496135D01*
X136459666Y-42397820D01*
X136375445Y-42275805D01*
X136322871Y-42137179D01*
X136305000Y-41990000D01*
X136322871Y-41842821D01*
X136375445Y-41704195D01*
X136459666Y-41582180D01*
X136570640Y-41483865D01*
X136701918Y-41414965D01*
X136845870Y-41379484D01*
X136994130Y-41379484D01*
X137138082Y-41414965D01*
G37*
G36*
X137138082Y-38954965D02*
G01*
X137269360Y-39023865D01*
X137380334Y-39122180D01*
X137464555Y-39244195D01*
X137517129Y-39382821D01*
X137535000Y-39530000D01*
X137517129Y-39677179D01*
X137464555Y-39815805D01*
X137380334Y-39937820D01*
X137269360Y-40036135D01*
X137138082Y-40105035D01*
X136994130Y-40140516D01*
X136845870Y-40140516D01*
X136701918Y-40105035D01*
X136570640Y-40036135D01*
X136459666Y-39937820D01*
X136375445Y-39815805D01*
X136322871Y-39677179D01*
X136305000Y-39530000D01*
X136322871Y-39382821D01*
X136375445Y-39244195D01*
X136459666Y-39122180D01*
X136570640Y-39023865D01*
X136701918Y-38954965D01*
X136845870Y-38919484D01*
X136994130Y-38919484D01*
X137138082Y-38954965D01*
G37*
M02*
