%TF.GenerationSoftware,KiCad,Pcbnew,8.0.3*%
%TF.CreationDate,2024-07-09T17:09:24+02:00*%
%TF.ProjectId,eirini2,65697269-6e69-4322-9e6b-696361645f70,1.0*%
%TF.SameCoordinates,Original*%
%TF.FileFunction,Profile,NP*%
%FSLAX46Y46*%
G04 Gerber Fmt 4.6, Leading zero omitted, Abs format (unit mm)*
G04 Created by KiCad (PCBNEW 8.0.3) date 2024-07-09 17:09:24*
%MOMM*%
%LPD*%
G01*
G04 APERTURE LIST*
%TA.AperFunction,Profile*%
%ADD10C,0.050000*%
%TD*%
G04 APERTURE END LIST*
D10*
X66040000Y-25400000D02*
X86360000Y-48260000D01*
X132080000Y-101600000D02*
X86360000Y-142240000D01*
X45720000Y-15240000D02*
X25400000Y-25400000D01*
X140900000Y-43180000D02*
G75*
G02*
X138500000Y-43180000I-1200000J0D01*
G01*
X138500000Y-43180000D02*
G75*
G02*
X140900000Y-43180000I1200000J0D01*
G01*
X147320000Y-25400000D02*
X157480000Y-50800000D01*
X40640000Y-101600000D02*
X15240000Y-50800000D01*
X86360000Y-48260000D02*
X106680000Y-25400000D01*
X157480000Y-50800000D02*
X132080000Y-101600000D01*
X106680000Y-25400000D02*
X127000000Y-15240000D01*
X140900000Y-45720000D02*
G75*
G02*
X138500000Y-45720000I-1200000J0D01*
G01*
X138500000Y-45720000D02*
G75*
G02*
X140900000Y-45720000I1200000J0D01*
G01*
X25400000Y-25400000D02*
X15240000Y-50800000D01*
X127000000Y-15240000D02*
X147320000Y-25400000D01*
X86360000Y-142240000D02*
X40640000Y-101600000D01*
X45720000Y-15240000D02*
X66040000Y-25400000D01*
%TO.C,SD1*%
X124010002Y-71843332D02*
G75*
G02*
X121743336Y-71843332I-1133333J0D01*
G01*
X121743336Y-71843332D02*
G75*
G02*
X124010002Y-71843332I1133333J0D01*
G01*
X138743331Y-71843332D02*
G75*
G02*
X136476665Y-71843332I-1133333J0D01*
G01*
X136476665Y-71843332D02*
G75*
G02*
X138743331Y-71843332I1133333J0D01*
G01*
%TO.C,TFT1*%
X62308775Y-60911774D02*
G75*
G02*
X59103225Y-60911774I-1602775J0D01*
G01*
X59103225Y-60911774D02*
G75*
G02*
X62308775Y-60911774I1602775J0D01*
G01*
X62308775Y-91440000D02*
G75*
G02*
X59103225Y-91440000I-1602775J0D01*
G01*
X59103225Y-91440000D02*
G75*
G02*
X62308775Y-91440000I1602775J0D01*
G01*
%TD*%
M02*
